<svg width="202" height="202" viewBox="0 0 202 202" fill="none" xmlns="http://www.w3.org/2000/svg">
<circle cx="98.064" cy="98.0639" r="95.7151" fill="url(#paint0_linear_401_309)"/>
<path d="M164.845 138.136C164.845 138.136 187.439 79.1709 175.733 70.1789C164.028 61.1859 114.935 64.8179 112.246 68.0299C109.556 71.2429 93.72 142.22 93.72 142.22L164.845 138.136Z" fill="#231F20"/>
<path d="M93.686 142.578C93.6369 142.577 93.5885 142.567 93.5438 142.547C93.4991 142.526 93.459 142.497 93.426 142.461C93.3916 142.421 93.3673 142.373 93.3551 142.322C93.3429 142.271 93.3432 142.217 93.356 142.166C94.001 139.262 109.268 71.064 111.985 67.824C113.474 66.046 126.579 64.392 140.604 64.207C148.837 64.097 168.797 64.433 175.946 69.918C180.921 73.735 180.605 86.393 175.013 107.618C170.896 123.316 165.222 138.109 165.167 138.253C165.144 138.315 165.103 138.37 165.049 138.409C164.996 138.448 164.931 138.47 164.865 138.473L93.706 142.591L93.686 142.578ZM143.197 64.873H140.617C126.208 65.065 113.687 66.843 112.486 68.25C110.427 70.728 99.614 117.214 94.098 141.857L164.584 137.793C166.032 133.956 186.54 78.91 175.507 70.447C170.862 66.884 159.15 64.873 143.197 64.873Z" fill="#231F20"/>
<path d="M73.102 87.189L62.92 121.38C62.92 121.38 83.922 124.092 83.922 123.316C83.922 122.541 88.039 85.692 88.039 85.692L73.102 87.189Z" fill="white"/>
<path d="M82.866 123.762C79.318 123.762 69.253 122.541 62.879 121.703C62.8297 121.696 62.7823 121.679 62.7402 121.652C62.6981 121.625 62.6622 121.59 62.6348 121.548C62.6074 121.507 62.5893 121.46 62.5816 121.411C62.5738 121.361 62.5767 121.311 62.59 121.263L72.773 87.073C72.7917 87.0068 72.8298 86.9478 72.8824 86.9036C72.935 86.8594 72.9997 86.832 73.068 86.825L88.012 85.329C88.0625 85.3244 88.1134 85.3312 88.1608 85.3491C88.2083 85.3669 88.2511 85.3952 88.286 85.432C88.361 85.502 88.396 85.604 88.382 85.706C86.962 98.406 84.265 122.602 84.265 123.296C84.2587 123.408 84.2097 123.514 84.128 123.591C83.7258 123.743 83.2942 123.801 82.866 123.762ZM63.338 121.092C70.638 122.026 81.974 123.323 83.565 123.097C83.826 120.131 87.168 90.202 87.627 86.077L73.342 87.51L63.338 121.092Z" fill="#231F20"/>
<path d="M53.801 78.6979C53.891 78.7939 57.506 77.8259 59.372 80.0699C61.239 82.3149 58.817 84.3199 52.922 83.1599C47.029 81.9999 53.801 78.6979 53.801 78.6979Z" fill="white"/>
<path d="M56.03 83.839C54.963 83.8284 53.8995 83.7158 52.854 83.503C51.153 83.166 50.274 82.617 50.171 81.814C49.972 80.263 53.033 78.691 53.651 78.382C53.722 78.358 53.799 78.358 53.87 78.382H54.096C55.056 78.265 57.98 77.894 59.64 79.885C60.381 80.764 60.539 81.663 60.1 82.418C59.53 83.318 58.055 83.839 56.03 83.839ZM53.876 79.034C52.539 79.72 50.776 80.928 50.871 81.69C50.871 81.944 51.228 82.425 52.991 82.775C56.978 83.558 58.981 82.83 59.489 81.972C59.6102 81.6808 59.6376 81.3591 59.5676 81.0515C59.4975 80.744 59.3334 80.4659 59.098 80.256C57.685 78.567 55.139 78.883 54.185 79.006C54.055 79.034 53.959 79.034 53.876 79.034Z" fill="#231F20"/>
<path d="M44.737 71.5239C44.737 71.5239 43.997 70.674 44.463 70.0759C44.5678 69.9546 44.7 69.86 44.8487 69.8C44.9975 69.74 45.1583 69.7164 45.318 69.731C45.4777 69.7457 45.6316 69.7983 45.7669 69.8843C45.9022 69.9704 46.015 70.0875 46.096 70.226C46.096 70.226 44.929 70.6459 44.737 71.5239Z" fill="white"/>
<path d="M44.737 71.874C44.6869 71.8745 44.6372 71.8644 44.5912 71.8445C44.5452 71.8245 44.5039 71.795 44.47 71.758C44.127 71.359 43.674 70.508 44.188 69.863C44.422 69.556 44.784 69.376 45.169 69.376C45.644 69.384 46.086 69.616 46.363 70C46.44 70.09 46.466 70.21 46.432 70.323C46.4176 70.3778 46.39 70.4283 46.3516 70.4701C46.3133 70.512 46.2654 70.5438 46.212 70.563C45.938 70.659 45.204 71.043 45.08 71.6C45.0667 71.6637 45.0359 71.7225 44.991 71.7696C44.9461 71.8168 44.889 71.8505 44.826 71.867L44.737 71.874ZM45.183 70.083C45.0998 70.0843 45.0178 70.1041 44.9431 70.141C44.8684 70.1778 44.8028 70.2308 44.751 70.296C44.712 70.3712 44.6917 70.4548 44.6917 70.5395C44.6917 70.6243 44.712 70.7078 44.751 70.783C44.958 70.529 45.209 70.315 45.492 70.151C45.3971 70.1098 45.2925 70.096 45.19 70.111L45.183 70.083Z" fill="#231F20"/>
<path d="M46.356 70.1929C45.9479 70.2262 45.5623 70.3937 45.2595 70.6692C44.9566 70.9447 44.7536 71.3128 44.682 71.7159L59.4 90.8749C59.4908 89.9571 59.887 89.0963 60.5253 88.4305C61.1635 87.7647 62.0068 87.3324 62.92 87.2029L46.356 70.1929Z" fill="white"/>
<path d="M59.393 91.225C59.34 91.2244 59.2877 91.2118 59.2402 91.188C59.1928 91.1643 59.1513 91.1301 59.119 91.088L44.4 71.929C44.3667 71.8856 44.3438 71.8353 44.3331 71.7817C44.3223 71.7281 44.324 71.6728 44.338 71.62C44.4349 71.1439 44.6841 70.7123 45.048 70.3905C45.4119 70.0686 45.8707 69.874 46.355 69.836C46.451 69.836 46.543 69.876 46.609 69.946L63.173 86.956C63.2189 87.0016 63.2509 87.0592 63.2654 87.1221C63.2799 87.1851 63.2763 87.2509 63.255 87.312C63.2357 87.3734 63.1998 87.4283 63.1513 87.4707C63.1028 87.513 63.0435 87.5411 62.98 87.552C62.1436 87.6665 61.37 88.0593 60.7839 88.667C60.1978 89.2747 59.8333 90.0619 59.749 90.902C59.7435 90.9734 59.7162 91.0415 59.6708 91.0969C59.6254 91.1524 59.564 91.1925 59.495 91.212L59.392 91.225H59.393ZM45.073 71.648L59.215 90.05C59.4141 89.3259 59.7955 88.6649 60.3228 88.1303C60.8502 87.5956 61.5058 87.2051 62.227 86.996L46.227 70.562C45.9531 70.6182 45.7001 70.7494 45.4963 70.941C45.2926 71.1326 45.146 71.378 45.073 71.648Z" fill="#231F20"/>
<path d="M59.4 90.8749L64.422 93.4829L65.047 92.8999L62.92 87.2029C62.92 87.2029 59.009 86.8109 59.4 90.8749Z" fill="white"/>
<path d="M64.422 93.834C64.3646 93.8345 64.3081 93.82 64.258 93.792L59.235 91.184C59.1816 91.1573 59.1359 91.1173 59.1023 91.068C59.0687 91.0186 59.0483 90.9615 59.043 90.902C58.9475 90.3559 58.9776 89.7952 59.1309 89.2624C59.2842 88.7297 59.5568 88.2388 59.928 87.827C60.3421 87.4709 60.8229 87.2008 61.3424 87.0323C61.8619 86.8639 62.4098 86.8006 62.954 86.846C63.0212 86.8523 63.0853 86.8775 63.1387 86.9188C63.1922 86.96 63.2328 87.0156 63.256 87.079L65.376 92.776C65.4016 92.8417 65.4066 92.9137 65.3906 92.9824C65.3745 93.0511 65.3381 93.1134 65.286 93.161L64.662 93.744C64.5956 93.8021 64.5103 93.8341 64.422 93.834ZM59.736 90.648L64.361 93.051L64.635 92.804L62.673 87.546C61.8526 87.5226 61.0521 87.8008 60.423 88.328C60.1473 88.6419 59.9431 89.0119 59.8244 89.4124C59.7058 89.813 59.6756 90.2346 59.736 90.648Z" fill="#231F20"/>
<path d="M64.422 93.4829L65.382 94.5129L65.836 93.9979L65.046 92.8999L64.422 93.4829Z" fill="white"/>
<path d="M65.383 94.87C65.3347 94.8702 65.2869 94.8599 65.243 94.8397C65.1991 94.8195 65.1602 94.7899 65.129 94.753L64.162 93.723C64.0999 93.6534 64.0657 93.5632 64.066 93.47C64.0712 93.3757 64.1128 93.2871 64.182 93.223L64.807 92.639C64.8442 92.6054 64.888 92.58 64.9356 92.5645C64.9832 92.549 65.0335 92.5436 65.0833 92.5488C65.1331 92.554 65.1812 92.5696 65.2246 92.5946C65.268 92.6196 65.3056 92.6535 65.335 92.694L66.124 93.792C66.1744 93.8542 66.2018 93.9319 66.2018 94.012C66.2018 94.092 66.1744 94.1697 66.124 94.232L65.671 94.747C65.6395 94.7854 65.5998 94.8164 65.5549 94.8377C65.5099 94.859 65.4608 94.87 65.411 94.87H65.383ZM64.923 93.497L65.376 93.985L64.985 93.442L64.923 93.497Z" fill="#231F20"/>
<path d="M54.734 92.378C55.544 90.738 57.574 87.258 58.041 85.748C59.331 81.628 51.777 77.771 49.334 77.771C46.892 77.771 41.787 86.311 41.787 90.875C41.787 95.44 58.7 130.393 58.7 130.393L74.927 122.966L54.734 92.378Z" fill="white"/>
<path d="M58.72 130.75C58.6541 130.75 58.5896 130.731 58.5338 130.696C58.4781 130.661 58.4335 130.61 58.405 130.551C57.719 129.123 41.451 95.461 41.451 90.875C41.451 86.29 46.611 77.414 49.334 77.414C51.214 77.414 55.585 79.418 57.568 82.082C58.0069 82.5941 58.3134 83.2061 58.4606 83.8643C58.6077 84.5225 58.5911 85.2068 58.412 85.857C57.7577 87.4755 56.9919 89.0466 56.12 90.559C55.756 91.246 55.434 91.863 55.173 92.351L75.27 122.761C75.298 122.804 75.3167 122.852 75.3249 122.903C75.3332 122.954 75.3308 123.005 75.318 123.055C75.3033 123.103 75.2786 123.148 75.2455 123.186C75.2125 123.223 75.1717 123.254 75.126 123.275L58.892 130.716C58.8406 130.747 58.7792 130.759 58.72 130.75ZM49.334 78.12C47.187 78.12 42.164 86.358 42.164 90.875C42.164 95.076 57.211 126.439 58.885 129.933L74.426 122.808L54.44 92.605C54.4099 92.5503 54.3941 92.4889 54.3941 92.4265C54.3941 92.3641 54.4099 92.3027 54.44 92.248C54.7 91.726 55.078 91.019 55.49 90.25C56.3386 88.7765 57.086 87.247 57.727 85.672C57.8719 85.1279 57.8807 84.5566 57.7527 84.0083C57.6247 83.4601 57.3638 82.9517 56.993 82.528C55.078 79.926 50.913 78.121 49.335 78.121L49.334 78.12Z" fill="#231F20"/>
<path d="M141.07 99.2979L161.07 94.1979C160.385 93.2289 152.316 67.6049 143.808 63.4109C136.363 58.4679 118.709 55.1729 103.113 56.2919C103.113 56.2919 98.996 56.1419 91.778 59.0039C74.2 65.9919 70.81 90.3259 70.81 90.3259L84.533 95.0689C84.533 95.0689 81.912 126.542 79.435 142.996C79.435 142.996 109.775 148.934 153.949 141.624C153.983 141.61 141.152 103.952 141.07 99.2979Z" fill="#E7816B"/>
<path d="M139.423 64.1179C136.775 66.8629 134.71 70.1579 131.787 72.7459C125.488 78.3199 117.247 82.7339 108.609 82.1979C98.427 81.5669 89.624 74.6059 87.415 64.4679C86.042 58.1109 87.469 52.2079 92.382 47.7179C95.779 44.6159 100.129 42.7209 104.575 41.5409C116.383 38.3759 129.632 40.0579 139.712 46.9909C141.359 48.0052 142.749 49.3866 143.773 51.0269C146.292 55.5919 143.396 60.2869 140.13 63.4239C139.91 63.6369 139.677 63.8769 139.423 64.1179Z" fill="#E7816B"/>
<path d="M104.685 71.311C104.582 71.311 102.688 73.618 102.592 73.652C103.669 77.716 104.808 83.008 109.405 83.53C118.73 84.594 120.143 72.156 121.9 66.287C115.443 68.099 110.887 68.827 104.685 71.311Z" fill="#231F20"/>
<path d="M110.496 83.942C110.12 83.9389 109.745 83.9158 109.371 83.873C104.781 83.352 103.484 78.382 102.434 74.407L102.256 73.721C102.239 73.6535 102.243 73.5827 102.268 73.5177C102.292 73.4527 102.336 73.3966 102.393 73.357C102.503 73.254 103.003 72.671 103.367 72.245C104.431 71.023 104.444 71.016 104.554 70.968C108.352 69.4992 112.25 68.3041 116.218 67.392C117.968 66.952 119.773 66.499 121.776 65.937C121.896 65.903 122.025 65.937 122.112 66.026C122.196 66.116 122.227 66.243 122.195 66.362C121.934 67.234 121.68 68.264 121.405 69.355C119.985 75.231 117.81 83.935 110.496 83.942ZM102.949 73.762L103.072 74.236C104.122 78.217 105.302 82.726 109.426 83.159C117.062 84.031 119.196 75.444 120.761 69.169C120.973 68.312 121.179 67.488 121.385 66.747C119.608 67.234 117.955 67.646 116.397 68.044C112.465 68.9369 108.603 70.116 104.842 71.572C104.705 71.71 104.225 72.259 103.868 72.677C103.388 73.295 103.12 73.597 102.969 73.762H102.949Z" fill="#231F20"/>
<path d="M113.714 23.4319C112.342 23.3769 111.464 23.9739 110.284 24.3999C107.984 25.2099 106.914 23.2879 104.938 22.2649C101.827 20.647 98.2516 20.1561 94.8195 20.8756C91.3874 21.5951 88.3103 23.4807 86.111 26.2119C84.7415 27.8344 83.8546 29.8085 83.551 31.9099C83.264 34.2849 83.929 36.7149 83.517 39.0619C83.2656 40.41 82.6751 41.6719 81.8012 42.7288C80.9274 43.7857 79.7989 44.6027 78.522 45.1029C80.719 45.2729 82.928 45.0629 85.054 44.4849C84.4432 45.2116 83.6839 45.7989 82.8272 46.2076C81.9704 46.6162 81.0361 46.8366 80.087 46.8539C82.2747 48.5367 84.9631 49.438 87.723 49.4139L82.886 50.5469C87.003 53.1889 92.019 53.9789 96.869 53.7589C106.53 53.2589 122.709 49.3039 122.428 36.7829C122.27 31.9849 119.635 23.7069 113.714 23.4329V23.4319Z" fill="white"/>
<path d="M95.21 54.164C91.51 54.164 86.776 53.478 82.673 50.856C82.6169 50.8183 82.5729 50.7653 82.5463 50.7032C82.5197 50.641 82.5116 50.5726 82.5231 50.506C82.537 50.4407 82.5686 50.3805 82.6145 50.332C82.6604 50.2835 82.7187 50.2486 82.783 50.231L85.473 49.606C83.4257 49.257 81.4945 48.4136 79.847 47.149C79.7893 47.1059 79.7465 47.0457 79.7249 46.977C79.7032 46.9082 79.7038 46.8344 79.7265 46.766C79.7492 46.6976 79.7928 46.638 79.8513 46.5959C79.9097 46.5537 79.98 46.531 80.052 46.531C81.461 46.5079 82.8213 46.0124 83.915 45.124C82.125 45.495 80.2901 45.611 78.4671 45.467C78.39 45.4598 78.3175 45.4267 78.2616 45.3732C78.2057 45.3196 78.1695 45.2487 78.159 45.172C78.1466 45.0943 78.1618 45.0147 78.202 44.9471C78.2422 44.8795 78.3049 44.8281 78.379 44.802C79.6057 44.3294 80.691 43.5507 81.5316 42.54C82.3721 41.5293 82.94 40.3202 83.181 39.028C83.346 37.7943 83.3597 36.545 83.222 35.308C83.1148 34.1662 83.1148 33.0168 83.222 31.875C83.5343 29.7089 84.4471 27.6737 85.8571 26C88.1061 23.2068 91.2533 21.2789 94.7633 20.5442C98.2734 19.8095 101.93 20.3133 105.11 21.97C105.694 22.29 106.25 22.66 106.77 23.075C107.882 23.92 108.76 24.585 110.201 24.085C110.51 23.975 110.798 23.851 111.079 23.735C111.916 23.3089 112.844 23.0894 113.783 23.095C119.725 23.357 122.703 31.415 122.798 36.783C122.922 42.474 119.814 46.957 113.556 50.093C107.299 53.231 99.834 53.958 96.918 54.109C96.341 54.15 95.786 54.164 95.21 54.164ZM83.75 50.732C88.183 53.306 93.2671 53.649 96.8281 53.478C99.6831 53.327 106.983 52.648 113.193 49.531C119.196 46.524 122.174 42.261 122.057 36.852C121.941 31.745 119.203 24.077 113.7 23.81C112.863 23.8157 112.039 24.0153 111.292 24.393C110.997 24.517 110.695 24.647 110.372 24.757C108.595 25.382 107.484 24.537 106.311 23.645C105.823 23.254 105.302 22.907 104.753 22.608C101.714 21.0218 98.2184 20.5388 94.8628 21.2412C91.5072 21.9436 88.4991 23.788 86.351 26.46C85.0272 28.0239 84.165 29.9256 83.861 31.952C83.7582 33.0456 83.7582 34.1464 83.861 35.24C84 36.532 83.981 37.837 83.806 39.125C83.5892 40.3007 83.1237 41.4165 82.4408 42.3978C81.7579 43.3791 80.8732 44.2032 79.846 44.815C81.5571 44.8129 83.2601 44.5822 84.9101 44.129C84.9811 44.1085 85.0569 44.1116 85.1261 44.1377C85.1953 44.1638 85.2542 44.2116 85.294 44.274C85.336 44.3332 85.3586 44.4039 85.3586 44.4765C85.3586 44.549 85.336 44.6198 85.294 44.679C84.2085 45.9712 82.6936 46.8289 81.027 47.095C83.0112 48.3896 85.334 49.0681 87.7031 49.045C87.7876 49.0428 87.8699 49.0725 87.9335 49.1283C87.9971 49.1841 88.0373 49.2618 88.046 49.346C88.057 49.43 88.0366 49.515 87.9886 49.5848C87.9405 49.6546 87.8684 49.7042 87.7861 49.724L83.751 50.733L83.75 50.732Z" fill="#231F20"/>
<path d="M101.906 61.8319L102.592 73.6519C102.592 73.6519 107.992 79.8299 114.942 76.0339C121.892 72.2379 121.625 66.2179 121.625 66.2179L117.062 44.0249C117.062 44.0249 110.757 42.5699 109.152 30.1449C103.773 34.4061 97.3442 37.1362 90.543 38.0469C90.543 38.0469 90.667 51.9469 93.116 57.4729C95.566 62.9989 101.906 61.8319 101.906 61.8319Z" fill="white"/>
<path d="M110.38 77.606C105.659 77.606 102.372 73.934 102.331 73.879C102.28 73.8221 102.251 73.7492 102.249 73.673L101.563 62.216C100.115 62.36 94.955 62.498 92.78 57.589C90.33 52.098 90.187 38.596 90.18 38.026C90.1806 37.9431 90.2106 37.8632 90.2646 37.8004C90.3186 37.7376 90.3932 37.696 90.475 37.683C97.2039 36.765 103.566 34.0683 108.905 29.871C108.952 29.8296 109.01 29.802 109.071 29.7911C109.133 29.7802 109.197 29.7863 109.255 29.809C109.313 29.8314 109.363 29.8687 109.402 29.917C109.44 29.9653 109.465 30.0229 109.474 30.084C110.284 36.372 112.328 39.728 113.899 41.444C114.748 42.469 115.864 43.2388 117.124 43.668C117.187 43.6845 117.244 43.7184 117.289 43.7657C117.334 43.8131 117.365 43.8721 117.378 43.936L121.948 66.149C121.948 66.266 122.153 72.479 115.086 76.336C113.65 77.1515 112.031 77.5885 110.38 77.606ZM102.921 73.487C103.607 74.236 108.52 79.137 114.784 75.712C121.454 72.06 121.289 66.259 121.289 66.204L116.767 44.238C115.628 43.861 110.469 41.582 108.897 30.736C103.623 34.7213 97.4321 37.3175 90.893 38.286C90.893 40.346 91.236 52.331 93.425 57.281C95.737 62.484 101.597 61.502 101.844 61.461C101.891 61.4518 101.94 61.4526 101.987 61.4633C102.035 61.4739 102.079 61.4943 102.118 61.523C102.155 61.5546 102.186 61.5933 102.208 61.6369C102.231 61.6805 102.244 61.7281 102.248 61.777L102.921 73.487Z" fill="#231F20"/>
<path d="M114.49 50.245C116.102 50.4876 117.744 50.0828 119.059 49.119C119.947 48.4152 120.639 47.4951 121.069 46.4469C121.499 45.3987 121.653 44.2575 121.515 43.133C121.473 42.2923 121.238 41.4725 120.829 40.737C120.629 40.3692 120.352 40.0489 120.017 39.7979C119.681 39.5468 119.296 39.3708 118.887 39.282C117.874 39.219 116.867 39.4864 116.019 40.044C114.689 40.731 114.647 41.492 113.919 42.618C114.002 42.515 114.064 42.227 114.146 42.124" fill="white"/>
<path d="M115.409 50.663C115.083 50.6619 114.757 50.6368 114.434 50.588C114.343 50.5727 114.262 50.5224 114.208 50.448C114.155 50.3735 114.132 50.2808 114.146 50.19C114.153 50.1455 114.168 50.1028 114.191 50.0643C114.215 50.0259 114.245 49.9926 114.282 49.9663C114.318 49.94 114.36 49.9213 114.404 49.9113C114.447 49.9012 114.493 49.9001 114.537 49.908C116.057 50.1319 117.604 49.7446 118.839 48.831C119.68 48.1617 120.334 47.2872 120.739 46.2917C121.145 45.2962 121.287 44.2132 121.152 43.147C121.125 42.3592 120.915 41.5885 120.541 40.895C120.364 40.5736 120.121 40.2935 119.827 40.0734C119.534 39.8532 119.197 39.698 118.839 39.618C117.989 39.468 117.138 39.858 116.191 40.346C115.541 40.663 115.031 41.211 114.764 41.884C114.62 42.144 114.462 42.44 114.249 42.762C114.235 42.79 114.216 42.8156 114.194 42.838C114.139 42.9061 114.059 42.95 113.972 42.9603C113.885 42.9705 113.798 42.9464 113.728 42.893C113.655 42.8419 113.606 42.7641 113.59 42.6766C113.574 42.5891 113.594 42.4989 113.645 42.426C113.645 42.426 113.645 42.336 113.693 42.289C113.733 42.164 113.791 42.047 113.865 41.939C113.9 41.8974 113.945 41.8646 113.995 41.843L114.125 41.595C114.464 40.7986 115.078 40.1505 115.855 39.769C116.665 39.351 117.783 38.774 118.929 38.973C119.871 39.16 120.684 39.753 121.152 40.593C121.572 41.378 121.807 42.25 121.838 43.14C121.983 44.3215 121.82 45.5204 121.366 46.6206C120.911 47.7208 120.18 48.685 119.244 49.42C118.13 50.2314 116.787 50.6668 115.409 50.663ZM102.262 68.05C103.613 67.9527 104.921 67.5266 106.07 66.8089C107.219 66.0912 108.176 65.1036 108.856 63.932C111.278 59.889 110.311 57.302 110.311 57.302C110.311 57.302 107.045 61.468 101.906 61.804L102.262 68.05Z" fill="#231F20"/>
<path d="M102.262 68.3869C102.175 68.387 102.092 68.3535 102.029 68.2935C101.967 68.2335 101.93 68.1516 101.926 68.0649L101.563 61.8869C101.56 61.8419 101.566 61.7967 101.581 61.754C101.596 61.7113 101.619 61.6719 101.648 61.6381C101.678 61.6043 101.715 61.5767 101.755 61.5569C101.796 61.5372 101.84 61.5256 101.885 61.5229C106.805 61.2069 110.009 57.1979 110.043 57.1569C110.08 57.1084 110.13 57.0708 110.187 57.0479C110.244 57.025 110.305 57.0178 110.366 57.0269C110.426 57.0373 110.482 57.0631 110.529 57.1016C110.575 57.1402 110.611 57.1903 110.633 57.2469C110.674 57.3569 111.628 60.0329 109.144 64.1719C108.437 65.3892 107.442 66.4137 106.246 67.1549C105.049 67.8961 103.689 68.3313 102.284 68.4219L102.262 68.3869ZM102.262 62.1409L102.585 67.6809C103.811 67.5296 104.985 67.0994 106.019 66.4233C107.052 65.7472 107.917 64.8433 108.547 63.7809C110.187 61.0349 110.228 59.0309 110.105 58.0699C108.051 60.3068 105.274 61.749 102.262 62.1409Z" fill="#231F20"/>
<path d="M101 43.044C101 43.044 98.427 49.826 99.593 50.636C100.76 51.446 103.223 50.156 103.223 50.156" fill="white"/>
<path d="M100.609 51.2469C100.179 51.2669 99.755 51.1509 99.394 50.9169C98.104 50.0249 100.081 44.5749 100.671 42.9199C100.696 42.8574 100.738 42.8034 100.793 42.7648C100.848 42.7262 100.914 42.7046 100.981 42.7028C101.048 42.701 101.114 42.719 101.172 42.7546C101.229 42.7902 101.274 42.8418 101.302 42.9029C101.34 42.9869 101.342 43.0819 101.309 43.1669C100.115 46.3179 99.25 49.9629 99.786 50.3469C100.602 50.9099 102.427 50.1829 103.058 49.8529C103.139 49.8113 103.234 49.803 103.321 49.8299C103.408 49.8568 103.481 49.9168 103.525 49.9969C103.566 50.078 103.573 50.1719 103.544 50.2581C103.516 50.3444 103.455 50.4158 103.374 50.4569C102.519 50.915 101.577 51.1844 100.609 51.2469Z" fill="#231F20"/>
<path d="M106.061 42.8718C106.586 42.702 106.819 41.9649 106.58 41.2255C106.341 40.486 105.721 40.0243 105.195 40.1942C104.67 40.364 104.437 41.1011 104.676 41.8405C104.915 42.5799 105.535 43.0416 106.061 42.8718Z" fill="#231F20"/>
<path d="M96.4622 45.1178C97.0144 45.1103 97.4535 44.4743 97.4429 43.6973C97.4323 42.9204 96.9761 42.2966 96.4239 42.3041C95.8716 42.3116 95.4325 42.9476 95.4431 43.7246C95.4537 44.5016 95.9099 45.1253 96.4622 45.1178Z" fill="#231F20"/>
<path d="M101.816 59.347C101.157 59.3639 100.509 59.174 99.964 58.804C97.803 57.226 97.644 53.739 97.638 53.588C97.6361 53.5069 97.6623 53.4277 97.7123 53.3639C97.7623 53.3001 97.8329 53.2556 97.912 53.238C106.791 51.295 106.887 51.363 107.045 51.48C107.084 51.5095 107.117 51.5466 107.142 51.589C107.167 51.6314 107.183 51.6783 107.189 51.727C107.326 53.1111 107.136 54.5081 106.633 55.805C106.331 56.5997 105.852 57.3153 105.232 57.8979C104.613 58.4804 103.87 58.9147 103.058 59.168C102.654 59.2849 102.236 59.3452 101.816 59.347ZM98.352 53.855C98.434 54.685 98.804 57.115 100.355 58.242C101.103 58.701 102.016 58.802 102.845 58.516C103.56 58.2933 104.216 57.9115 104.763 57.3992C105.31 56.8869 105.733 56.2574 106.002 55.558C106.427 54.4661 106.605 53.2937 106.523 52.125C105.343 52.338 101.178 53.231 98.352 53.848V53.855Z" fill="#231F20"/>
<path d="M106.318 55.6949C105 58.8799 101.7 59.6419 100.142 58.5369C100.492 57.3219 101.13 56.0589 102.317 55.5989C103.619 55.1545 105.038 55.1885 106.318 55.6949Z" fill="#231F20"/>
<path d="M101.816 59.3399C101.158 59.3579 100.511 59.1706 99.964 58.8039C99.9074 58.7628 99.865 58.7051 99.8428 58.6388C99.8206 58.5724 99.8196 58.5008 99.84 58.4339C100.307 56.7589 101.11 55.6879 102.214 55.2689C103.588 54.8021 105.082 54.834 106.434 55.3589C106.523 55.3909 106.594 55.4579 106.634 55.5439C106.668 55.63 106.668 55.7258 106.634 55.8119C106.33 56.6049 105.85 57.3188 105.231 57.9C104.612 58.4812 103.869 58.9147 103.058 59.1679C102.654 59.2822 102.236 59.3401 101.816 59.3399ZM100.568 58.3719C101.281 58.7089 102.097 58.7579 102.846 58.5089C103.503 58.3078 104.11 57.9703 104.628 57.5185C105.146 57.0667 105.563 56.5107 105.851 55.8869C104.751 55.5209 103.561 55.5209 102.461 55.8869C101.618 56.2299 101 57.0669 100.568 58.3719ZM90.22 48.5219C89.7505 48.5215 89.2952 48.3607 88.9296 48.0661C88.564 47.7714 88.3101 47.3607 88.21 46.9019L87.49 43.6269C87.374 43.0938 87.4743 42.5363 87.7688 42.077C88.0633 41.6177 88.5281 41.294 89.061 41.1769L96.711 39.4949C96.9756 39.4362 97.2492 39.4303 97.516 39.4776C97.7829 39.5249 98.0378 39.6244 98.2661 39.7705C98.4944 39.9165 98.6916 40.1063 98.8464 40.3287C99.0011 40.5512 99.1104 40.8021 99.168 41.0669L99.854 44.3409C99.9649 44.8674 99.8655 45.4163 99.577 45.8704C99.2885 46.3245 98.8337 46.6477 98.31 46.7709L90.66 48.4459C90.517 48.4879 90.37 48.5139 90.22 48.5219ZM97.158 40.1609C97.0599 40.1508 96.9611 40.1508 96.863 40.1609L89.219 41.8359C88.8701 41.9166 88.5664 42.1303 88.3729 42.4317C88.1793 42.733 88.1112 43.0981 88.183 43.4489L88.903 46.7709C89.073 47.4909 89.784 47.9469 90.509 47.8009L98.159 46.0849C98.879 45.9149 99.334 45.2039 99.189 44.4779L98.502 41.2039C98.4331 40.9048 98.266 40.6374 98.0272 40.4445C97.7885 40.2517 97.4919 40.1444 97.185 40.1399L97.158 40.1609ZM103.854 45.5359C103.46 45.5346 103.074 45.4201 102.743 45.2059C102.284 44.9119 101.961 44.448 101.843 43.9159L101.158 40.6409C101.1 40.3764 101.094 40.103 101.141 39.8363C101.188 39.5696 101.288 39.3148 101.434 39.0866C101.58 38.8584 101.769 38.6612 101.992 38.5063C102.214 38.3514 102.464 38.2418 102.729 38.1839L110.373 36.5089C110.638 36.4503 110.911 36.4446 111.178 36.4919C111.445 36.5393 111.699 36.6388 111.927 36.7849C112.156 36.9309 112.353 37.1206 112.507 37.343C112.662 37.5654 112.771 37.8162 112.829 38.0809L113.515 41.3549C113.634 41.8845 113.54 42.4398 113.252 42.9C112.964 43.3603 112.506 43.6884 111.978 43.8129L104.335 45.4879C104.177 45.5192 104.016 45.5352 103.855 45.5359H103.854ZM110.791 37.1609C110.691 37.1619 110.593 37.1739 110.496 37.1949L102.853 38.8769C102.679 38.9134 102.514 38.9844 102.368 39.0858C102.222 39.1871 102.097 39.3167 102.002 39.4669C101.808 39.7709 101.742 40.1379 101.816 40.4899L102.536 43.7649C102.707 44.4849 103.417 44.9399 104.142 44.7949L111.792 43.1189C112.142 43.0409 112.448 42.8289 112.644 42.5289C112.834 42.2249 112.899 41.8569 112.822 41.5059L112.136 38.2319C112.067 37.9269 111.897 37.6544 111.652 37.4596C111.407 37.2648 111.104 37.1595 110.791 37.1609Z" fill="#231F20"/>
<path d="M98.818 41.4999C98.7563 41.4993 98.6958 41.4826 98.6424 41.4516C98.5891 41.4206 98.5446 41.3763 98.5135 41.323C98.4824 41.2697 98.4656 41.2093 98.4648 41.1476C98.464 41.0859 98.4792 41.025 98.509 40.9709C98.832 40.4149 99.882 39.5429 101.604 40.2359C101.695 40.2704 101.769 40.3397 101.809 40.4285C101.849 40.5173 101.852 40.6183 101.817 40.7094C101.783 40.8005 101.714 40.8742 101.625 40.9143C101.536 40.9543 101.435 40.9574 101.344 40.9229C99.806 40.3049 99.189 41.2449 99.127 41.3549C99.0911 41.4023 99.0442 41.4402 98.9904 41.4653C98.9365 41.4904 98.8773 41.503 98.818 41.4999Z" fill="#231F20"/>
<path d="M30.466 132.878H171.534L194.17 174.236H7.82999L30.466 132.878Z" fill="white"/>
<path d="M194.17 174.58H7.83001C7.77091 174.58 7.71286 174.564 7.66127 174.535C7.60969 174.507 7.56625 174.465 7.53501 174.415C7.50621 174.362 7.49112 174.303 7.49112 174.244C7.49112 174.184 7.50621 174.125 7.53501 174.072L30.178 132.714C30.2069 132.659 30.2502 132.614 30.3033 132.582C30.3564 132.551 30.4172 132.534 30.479 132.535H171.527C171.589 132.534 171.65 132.55 171.703 132.582C171.757 132.614 171.8 132.659 171.829 132.714L194.472 174.072C194.501 174.125 194.516 174.184 194.516 174.244C194.516 174.303 194.501 174.362 194.472 174.415C194.44 174.466 194.396 174.508 194.343 174.537C194.29 174.566 194.23 174.581 194.17 174.58ZM8.41301 173.893H193.587L171.328 133.222H30.672L8.41301 173.893Z" fill="#D1D3D4"/>
<path d="M32.654 106.196L32.956 104.892C33.642 103.588 34.404 102.709 36.174 102.709H103.326C104.138 102.71 104.928 102.975 105.577 103.462C106.226 103.95 106.7 104.635 106.928 105.414L117.845 142.934C118.127 143.739 118.092 144.62 117.746 145.4C117.4 146.179 116.771 146.798 115.985 147.129L114.798 147.41L32.654 106.196Z" fill="white"/>
<path d="M114.798 147.753C114.746 147.751 114.695 147.74 114.648 147.719L32.503 106.492C32.4334 106.458 32.3776 106.401 32.345 106.331C32.3124 106.261 32.305 106.182 32.324 106.107L32.626 104.803C32.623 104.773 32.623 104.743 32.626 104.713C33.312 103.471 34.101 102.353 36.146 102.353H103.298C104.183 102.357 105.044 102.646 105.752 103.177C106.46 103.709 106.978 104.455 107.229 105.304L118.152 142.873C118.459 143.759 118.417 144.729 118.035 145.586C117.653 146.443 116.959 147.122 116.094 147.486L114.866 147.781L114.798 147.753ZM33.073 106.011L114.867 147.046L115.93 146.799C117.584 146.154 117.927 144.389 117.536 143.031L106.619 105.51C106.41 104.803 105.979 104.182 105.39 103.74C104.8 103.297 104.084 103.056 103.347 103.052H36.174C34.658 103.052 34.006 103.739 33.279 105.016L33.073 106.011Z" fill="#231F20"/>
<path d="M114.798 147.41H46.274C45.8084 147.405 45.3569 147.25 44.9862 146.968C44.6156 146.686 44.3455 146.292 44.216 145.845L32.682 106.196C32.6386 106.044 32.631 105.884 32.6598 105.728C32.6886 105.573 32.7531 105.426 32.8482 105.3C32.9432 105.174 33.0663 105.071 33.2077 105C33.349 104.929 33.5049 104.892 33.663 104.892H104.02L115.938 145.893C115.99 146.07 116.001 146.256 115.968 146.438C115.936 146.619 115.861 146.791 115.75 146.938C115.64 147.086 115.496 147.205 115.331 147.287C115.165 147.369 114.983 147.411 114.799 147.41H114.798Z" fill="#231F20"/>
<path d="M114.798 147.753H46.274C45.7302 147.75 45.2018 147.573 44.7669 147.246C44.3319 146.92 44.0136 146.462 43.859 145.941L32.325 106.292C32.2694 106.089 32.2611 105.877 32.3007 105.67C32.3402 105.464 32.4266 105.27 32.5532 105.102C32.6797 104.934 32.843 104.798 33.0306 104.703C33.2182 104.608 33.4249 104.558 33.635 104.556H104.02C104.093 104.555 104.163 104.578 104.222 104.621C104.28 104.665 104.322 104.726 104.342 104.796L116.267 145.797C116.333 146.025 116.345 146.265 116.302 146.498C116.259 146.731 116.163 146.951 116.021 147.141C115.878 147.331 115.694 147.485 115.482 147.591C115.27 147.697 115.036 147.753 114.799 147.753H114.798ZM33.636 105.235C33.5315 105.237 33.4288 105.262 33.3356 105.309C33.2424 105.357 33.1613 105.425 33.0984 105.508C33.0355 105.591 32.9925 105.688 32.9727 105.791C32.9528 105.893 32.9567 105.999 32.984 106.1L44.511 145.75C44.744 146.53 45.461 147.065 46.274 147.067H114.798C114.931 147.068 115.061 147.038 115.18 146.98C115.299 146.921 115.403 146.836 115.484 146.731C115.562 146.626 115.614 146.504 115.636 146.375C115.659 146.247 115.651 146.114 115.614 145.989L103.744 105.235H33.636Z" fill="#231F20"/>
<path d="M103.305 130.517L99.141 148.234C98.921 149.182 98.3858 150.028 97.6229 150.633C96.86 151.238 95.9145 151.566 94.941 151.564H51.6C50.9489 151.564 50.3063 151.417 49.7202 151.133C49.1341 150.85 48.6198 150.437 48.2158 149.927C47.8118 149.416 47.5285 148.821 47.3872 148.185C47.2459 147.55 47.2503 146.891 47.4 146.257L51.071 130.517H47.483L43.97 145.447C43.7048 146.597 43.7022 147.791 43.9624 148.942C44.2227 150.093 44.739 151.17 45.473 152.094C46.2066 153.017 47.1391 153.763 48.2009 154.276C49.2628 154.789 50.4267 155.056 51.606 155.057H94.976C96.7337 155.056 98.4399 154.462 99.8192 153.373C101.199 152.283 102.171 150.761 102.579 149.051L106.929 130.517H103.305Z" fill="white"/>
<path d="M94.941 155.449H51.6C50.3657 155.448 49.1476 155.169 48.0367 154.631C46.9258 154.093 45.9509 153.311 45.185 152.343C44.4189 151.375 43.8815 150.246 43.613 149.042C43.3444 147.837 43.3516 146.587 43.634 145.385L47.14 130.448C47.1586 130.373 47.2019 130.307 47.2629 130.26C47.3239 130.213 47.3989 130.187 47.476 130.188H51.099C51.1506 130.187 51.2016 130.199 51.2481 130.221C51.2947 130.243 51.3355 130.276 51.3674 130.316C51.3993 130.357 51.4214 130.404 51.4321 130.454C51.4428 130.505 51.4417 130.557 51.429 130.607L47.729 146.347C47.593 146.931 47.5904 147.537 47.7214 148.122C47.8524 148.706 48.1136 149.254 48.4856 149.724C48.8575 150.193 49.3306 150.573 49.8697 150.835C50.4088 151.096 50.9999 151.233 51.599 151.234H94.969C95.8661 151.236 96.7372 150.933 97.4401 150.375C98.143 149.818 98.6361 149.039 98.839 148.165L103.005 130.448C103.022 130.374 103.064 130.308 103.124 130.26C103.184 130.213 103.258 130.188 103.334 130.188H106.957C107.008 130.189 107.058 130.201 107.104 130.224C107.15 130.246 107.19 130.279 107.222 130.319C107.255 130.358 107.277 130.405 107.29 130.455C107.302 130.504 107.303 130.556 107.293 130.606L102.936 149.14C102.518 150.943 101.498 152.55 100.045 153.696C98.5925 154.843 96.7918 155.461 94.941 155.449ZM47.715 130.874L44.285 145.544C44.0249 146.646 44.0178 147.793 44.2643 148.898C44.5107 150.004 45.0043 151.039 45.708 151.926C46.4116 152.813 47.3071 153.529 48.3273 154.02C49.3475 154.512 50.4657 154.765 51.598 154.762H94.968C96.6604 154.767 98.3043 154.197 99.6307 153.145C100.957 152.094 101.887 150.624 102.269 148.975L106.523 130.874H103.607L99.491 148.324C99.2557 149.349 98.6783 150.264 97.8539 150.918C97.0295 151.571 96.0071 151.925 94.955 151.92H51.6C50.8967 151.921 50.2024 151.762 49.5692 151.456C48.936 151.15 48.3803 150.704 47.9438 150.153C47.5074 149.601 47.2015 148.958 47.0491 148.271C46.8968 147.585 46.9018 146.872 47.064 146.188L50.66 130.874H47.715Z" fill="#231F20"/>
<path d="M159.198 94.39C159.198 94.39 165.332 121.641 160.309 128.602C155.287 135.562 120.212 134.464 120.212 134.464C120.212 134.464 114.524 141.294 109.584 140.841C104.644 140.388 107.525 131.039 113.337 127.147L112.534 123.9L143.458 118.937L139.341 99.353" fill="white"/>
<path d="M110.036 141.205H109.522C108.882 141.173 108.271 140.93 107.785 140.514C107.298 140.098 106.963 139.532 106.832 138.905C106.057 135.865 108.541 130.064 112.912 127.016L112.17 124.003C112.158 123.957 112.155 123.909 112.163 123.862C112.17 123.816 112.187 123.771 112.213 123.731C112.239 123.692 112.273 123.658 112.313 123.632C112.353 123.607 112.398 123.59 112.445 123.583L143.012 118.676L138.964 99.4559C138.955 99.4118 138.955 99.3663 138.963 99.3221C138.972 99.2779 138.989 99.2357 139.014 99.1981C139.038 99.1605 139.07 99.1282 139.108 99.1029C139.145 99.0777 139.187 99.06 139.231 99.0509C139.275 99.0408 139.32 99.0395 139.364 99.0472C139.408 99.0549 139.451 99.0713 139.488 99.0955C139.526 99.1198 139.559 99.1513 139.584 99.1883C139.609 99.2253 139.627 99.267 139.636 99.3109L143.753 118.896C143.773 118.988 143.753 119.086 143.698 119.163C143.672 119.201 143.639 119.234 143.6 119.258C143.561 119.283 143.518 119.3 143.472 119.307L112.918 124.215L113.604 127.098C113.622 127.165 113.618 127.237 113.594 127.302C113.569 127.367 113.525 127.423 113.467 127.462C109.267 130.277 106.75 135.94 107.47 138.754C107.562 139.239 107.816 139.679 108.19 140.001C108.564 140.324 109.036 140.511 109.529 140.532C114.229 140.972 119.821 134.354 119.862 134.279C119.895 134.239 119.937 134.207 119.985 134.185C120.032 134.164 120.084 134.153 120.136 134.155C120.486 134.155 155.129 135.165 159.973 128.43C164.817 121.696 158.875 94.7949 158.813 94.4999C158.796 94.4101 158.815 94.3174 158.865 94.2412C158.916 94.165 158.994 94.1114 159.083 94.0916C159.172 94.0719 159.266 94.0876 159.343 94.1354C159.421 94.1833 159.477 94.2595 159.5 94.3479C159.753 95.4679 165.606 121.806 160.55 128.835C155.61 135.7 123.23 134.931 120.3 134.842C119.526 135.748 114.633 141.205 110.036 141.205ZM122.4 80.8939C122.347 80.893 122.296 80.8789 122.25 80.8529C122.208 80.8339 122.17 80.8065 122.139 80.7724C122.107 80.7383 122.083 80.6983 122.068 80.6546C122.052 80.611 122.046 80.5647 122.049 80.5185C122.052 80.4724 122.064 80.4273 122.085 80.3859C127.066 70.0899 139.855 63.1629 139.986 63.0949C140.026 63.0724 140.071 63.0583 140.117 63.0534C140.163 63.0484 140.209 63.0528 140.253 63.0663C140.297 63.0797 140.338 63.1019 140.374 63.1316C140.409 63.1613 140.438 63.1978 140.459 63.2389C140.482 63.2798 140.496 63.3247 140.501 63.3712C140.506 63.4176 140.502 63.4646 140.488 63.5093C140.475 63.554 140.453 63.5956 140.423 63.6316C140.393 63.6676 140.356 63.6973 140.315 63.7189C140.192 63.7889 127.601 70.5839 122.723 80.6949C122.693 80.7548 122.647 80.8051 122.59 80.8404C122.533 80.8757 122.467 80.8936 122.4 80.8939ZM101.254 80.4069C101.204 80.4173 101.153 80.4173 101.103 80.4069C89.151 74.9149 87.703 62.8469 87.689 62.7309C87.6814 62.661 87.6946 62.5904 87.7269 62.5279C87.7593 62.4655 87.8094 62.414 87.8709 62.3799C87.9325 62.3458 88.0027 62.3307 88.0728 62.3364C88.1429 62.3421 88.2098 62.3684 88.265 62.4119C88.3013 62.4408 88.3315 62.4767 88.3538 62.5174C88.3761 62.5581 88.3901 62.6028 88.395 62.6489C88.395 62.7649 89.823 74.4419 101.432 79.6989C101.517 79.7378 101.584 79.8087 101.617 79.8963C101.651 79.9838 101.649 80.081 101.611 80.1669C101.585 80.2397 101.536 80.3022 101.472 80.3453C101.408 80.3885 101.331 80.4101 101.254 80.4069ZM46.796 95.9679C46.7216 95.9465 46.6562 95.9014 46.6097 95.8395C46.5632 95.7777 46.538 95.7024 46.538 95.6249C46.538 95.5475 46.5632 95.4722 46.6097 95.4103C46.6562 95.3485 46.7216 95.3034 46.796 95.2819C51.969 95.1239 54.48 92.1999 54.508 92.1719C54.5372 92.1362 54.5732 92.1067 54.6139 92.0849C54.6545 92.0632 54.6991 92.0497 54.745 92.0452C54.7909 92.0408 54.8373 92.0454 54.8814 92.0589C54.9255 92.0724 54.9665 92.0945 55.002 92.1239C55.152 92.2499 55.174 92.4739 55.05 92.6249C54.94 92.7549 52.305 95.8249 46.816 95.9889L46.796 95.9679Z" fill="#231F20"/>
<path d="M139.3 99.703C139.221 99.7036 139.144 99.6774 139.082 99.6288C139.02 99.5801 138.976 99.5118 138.957 99.435C138.957 99.311 135.725 86.66 135.279 79.075C135.276 79.029 135.283 78.9829 135.298 78.9394C135.313 78.8959 135.337 78.8558 135.367 78.8215C135.398 78.7871 135.435 78.7591 135.477 78.7391C135.518 78.7191 135.563 78.7075 135.609 78.705C135.702 78.6995 135.794 78.7308 135.865 78.7924C135.935 78.8539 135.979 78.9407 135.986 79.034C136.432 86.55 139.616 99.133 139.643 99.264C139.666 99.3549 139.652 99.4512 139.605 99.532C139.557 99.6129 139.48 99.6718 139.389 99.696L139.299 99.703H139.3ZM83.998 101.961C83.9513 101.958 83.9056 101.947 83.8635 101.926C83.8215 101.906 83.784 101.877 83.7532 101.842C83.7224 101.806 83.6991 101.765 83.6844 101.721C83.6698 101.677 83.6642 101.63 83.668 101.583L85.37 74.915C85.3726 74.8684 85.3844 74.8227 85.4048 74.7807C85.4252 74.7388 85.4539 74.7013 85.489 74.6705C85.5241 74.6398 85.5651 74.6164 85.6094 74.6017C85.6537 74.587 85.7005 74.5813 85.747 74.585C85.7934 74.5866 85.839 74.5976 85.881 74.6173C85.9231 74.6371 85.9606 74.6651 85.9915 74.6998C86.0223 74.7345 86.0458 74.7751 86.0605 74.8191C86.0752 74.8632 86.0809 74.9097 86.077 74.956L84.347 101.625C84.3434 101.715 84.305 101.801 84.2397 101.863C84.1745 101.926 84.0885 101.961 83.998 101.961ZM144.748 87.045C144.684 87.0457 144.622 87.0287 144.567 86.9959C144.513 86.963 144.468 86.9156 144.439 86.859L141.119 80.681C141.082 80.591 141.082 80.49 141.119 80.4C141.151 80.3079 141.216 80.2316 141.303 80.187L151.595 75.32C151.637 75.299 151.682 75.2867 151.729 75.2836C151.776 75.2806 151.823 75.287 151.867 75.3023C151.911 75.3177 151.952 75.3418 151.986 75.3732C152.021 75.4046 152.049 75.4426 152.069 75.485C152.109 75.5698 152.115 75.6671 152.084 75.7559C152.053 75.8446 151.988 75.9176 151.904 75.959L141.928 80.668L144.933 86.242L155.04 83.152C155.131 83.1247 155.229 83.1346 155.313 83.1798C155.397 83.2249 155.459 83.3014 155.487 83.3925C155.514 83.4836 155.504 83.5818 155.459 83.6655C155.414 83.7493 155.337 83.8117 155.246 83.839L144.851 87.052L144.748 87.045Z" fill="#231F20"/>
<path d="M153.661 165.374C163.017 165.374 170.602 163.091 170.602 160.274C170.602 157.457 163.017 155.174 153.661 155.174C144.305 155.174 136.72 157.457 136.72 160.274C136.72 163.091 144.305 165.374 153.661 165.374Z" fill="white"/>
<path d="M153.66 165.718C143.972 165.718 136.377 163.328 136.377 160.274C136.377 157.219 143.972 154.831 153.661 154.831C163.349 154.831 170.944 157.219 170.944 160.274C170.944 163.329 163.348 165.718 153.66 165.718ZM153.66 155.518C143.732 155.518 137.063 157.975 137.063 160.274C137.063 162.574 143.733 165.031 153.661 165.031C163.589 165.031 170.258 162.574 170.258 160.274C170.258 157.974 163.588 155.517 153.661 155.517L153.66 155.518Z" fill="#D1D3D4"/>
<path d="M140.892 145.708L140.487 145.783C139.262 145.966 138.148 146.594 137.358 147.548C136.915 148.225 136.671 149.013 136.652 149.822C136.634 150.631 136.843 151.429 137.255 152.126C139.053 155.366 143.43 156.245 146.806 156.581C147.284 156.659 147.773 156.621 148.233 156.471C148.698 156.312 149.014 155.878 149.023 155.387C148.994 155.189 148.916 155.002 148.796 154.843C148.676 154.683 148.518 154.557 148.336 154.474C147.982 154.31 147.605 154.203 147.218 154.158C145.118 153.815 142.908 153.561 140.988 152.593C139.869 152.023 138.305 150.726 139.121 149.325C139.407 148.882 139.817 148.533 140.301 148.323C142.23 147.403 144.061 148.103 145.962 148.666C146.1 148.717 146.248 148.738 146.394 148.728C146.576 148.678 146.733 148.563 146.835 148.405C146.938 148.247 146.979 148.056 146.95 147.87C146.888 147.04 146.058 146.497 145.276 146.188C143.879 145.658 142.37 145.492 140.892 145.708Z" fill="white"/>
<path d="M147.376 156.959C147.176 156.958 146.976 156.946 146.779 156.924C141.626 156.437 138.415 154.927 136.953 152.291C136.508 151.537 136.284 150.673 136.307 149.797C136.33 148.922 136.599 148.071 137.083 147.341C137.925 146.322 139.112 145.648 140.418 145.447L140.844 145.372C142.389 145.141 143.968 145.313 145.427 145.872C146.113 146.127 147.232 146.724 147.321 147.842C147.356 148.116 147.288 148.393 147.131 148.62C146.974 148.847 146.739 149.008 146.47 149.072C146.275 149.085 146.079 149.059 145.894 148.996L145.4 148.845C143.712 148.33 142.12 147.85 140.48 148.632C140.055 148.812 139.694 149.116 139.444 149.504C139.264 149.79 139.216 150.141 139.314 150.464C139.69 151.275 140.348 151.922 141.166 152.284C142.87 153.026 144.677 153.503 146.525 153.698L147.3 153.822C147.726 153.868 148.141 153.987 148.528 154.172C148.804 154.276 149.039 154.465 149.198 154.713C149.358 154.96 149.434 155.253 149.415 155.546C149.395 155.84 149.282 156.12 149.092 156.345C148.901 156.57 148.644 156.727 148.357 156.794C148.042 156.908 147.71 156.964 147.376 156.959ZM140.946 146.051L140.556 146.12C139.416 146.29 138.378 146.868 137.633 147.747C137.228 148.372 137.007 149.098 136.993 149.843C136.98 150.588 137.175 151.322 137.557 151.961C138.895 154.378 141.935 155.778 146.84 156.238C147.262 156.308 147.694 156.279 148.103 156.156C148.262 156.102 148.402 156.002 148.504 155.869C148.607 155.735 148.668 155.575 148.679 155.407C148.657 155.271 148.601 155.142 148.518 155.032C148.434 154.922 148.325 154.834 148.199 154.776C147.88 154.63 147.539 154.537 147.19 154.501L146.415 154.378C144.497 154.174 142.622 153.673 140.857 152.895C139.869 152.454 139.083 151.658 138.655 150.664C138.58 150.413 138.559 150.148 138.593 149.888C138.627 149.627 138.716 149.377 138.854 149.154C139.172 148.648 139.636 148.25 140.185 148.014C142.065 147.115 143.863 147.657 145.599 148.186L146.093 148.336C146.185 148.371 146.283 148.387 146.381 148.385C146.545 148.385 146.648 148.104 146.635 147.898C146.58 147.128 145.599 146.676 145.18 146.525C143.832 146.01 142.374 145.851 140.947 146.065V146.051H140.946Z" fill="#231F20"/>
<path d="M142.477 142.234C142.477 142.234 145.647 158.064 145.907 159.018C146.168 159.972 153.661 163.892 159.63 160.041L164.851 143.861L142.477 142.234Z" fill="white"/>
<path d="M153.79 162.052C151.997 162.037 150.221 161.698 148.549 161.05C147.232 160.542 145.736 159.718 145.571 159.107C145.317 158.153 142.271 142.955 142.141 142.303C142.129 142.252 142.129 142.198 142.142 142.147C142.154 142.095 142.179 142.048 142.214 142.008C142.249 141.968 142.293 141.938 142.342 141.919C142.391 141.899 142.444 141.892 142.497 141.898L164.872 143.559C164.924 143.561 164.975 143.576 165.021 143.601C165.067 143.627 165.106 143.663 165.135 143.706C165.165 143.75 165.184 143.8 165.19 143.852C165.197 143.904 165.191 143.956 165.174 144.006L159.952 160.185C159.926 160.259 159.875 160.322 159.808 160.363C158.01 161.501 155.919 162.088 153.791 162.052H153.79ZM142.902 142.612C143.417 145.186 146.01 158.084 146.237 158.929C146.333 159.155 147.567 160.075 149.757 160.741C151.815 161.366 155.753 162.073 159.362 159.821L164.412 144.177L142.902 142.612Z" fill="#231F20"/>
<path d="M164.905 143.157C165.015 140.475 160.086 138.095 153.895 137.841C147.705 137.587 142.597 139.555 142.487 142.237C142.377 144.919 147.306 147.299 153.497 147.553C159.687 147.807 164.794 145.839 164.905 143.157Z" fill="#231F20"/>
<path d="M154.566 147.918H153.476C146.991 147.658 142.01 145.172 142.134 142.248C142.257 139.324 147.424 137.265 153.901 137.532C160.378 137.8 165.359 140.278 165.236 143.202C165.181 144.644 163.863 145.948 161.592 146.799C159.336 147.592 156.956 147.97 154.566 147.918ZM152.844 138.164C147.404 138.164 142.909 139.949 142.813 142.283C142.717 144.726 147.616 146.998 153.503 147.239C156.176 147.395 158.853 147.019 161.38 146.133C163.37 145.372 164.536 144.28 164.584 143.147C164.687 140.697 159.781 138.425 153.901 138.184L152.844 138.164Z" fill="#231F20"/>
<path d="M126.847 98.254H90.543C90.452 98.254 90.3648 98.2178 90.3004 98.1535C90.2361 98.0892 90.2 98.0019 90.2 97.911V87.189C90.2018 87.0986 90.2385 87.0124 90.3024 86.9484C90.3664 86.8845 90.4526 86.8478 90.543 86.846H126.847C127.036 86.846 127.19 86.999 127.19 87.189V97.932C127.185 98.0193 127.146 98.1012 127.082 98.161C127.019 98.2209 126.934 98.2541 126.847 98.254ZM90.887 97.568H126.504V87.532H90.886L90.887 97.568ZM7.82999 174.236H194.163V181.423H7.82999V174.236Z" fill="white"/>
<path d="M194.17 181.767H7.83C7.78487 181.767 7.74019 181.758 7.69851 181.741C7.65683 181.723 7.61897 181.698 7.58711 181.666C7.55525 181.634 7.53 181.596 7.51282 181.555C7.49564 181.513 7.48687 181.468 7.487 181.423V174.236C7.48879 174.146 7.5255 174.059 7.58944 173.995C7.65339 173.931 7.73959 173.895 7.83 173.893H194.17C194.26 173.895 194.347 173.931 194.411 173.995C194.474 174.059 194.511 174.146 194.513 174.236V181.423C194.513 181.613 194.359 181.767 194.17 181.767ZM8.173 181.08H193.827V174.58H8.173V181.08Z" fill="#D1D3D4"/>
<path d="M164.845 107.116C164.754 107.113 164.669 107.074 164.606 107.009C164.543 106.944 164.508 106.857 164.508 106.766C164.508 105.976 165.009 87.367 167.061 80.922C169.112 74.476 172.961 71.792 173.119 71.689C173.195 71.6379 173.287 71.619 173.377 71.6363C173.466 71.6537 173.545 71.7059 173.596 71.7815C173.648 71.8571 173.666 71.9498 173.649 72.0394C173.632 72.1289 173.58 72.2079 173.504 72.259C173.462 72.259 169.709 74.86 167.713 81.128C165.716 87.395 165.201 106.588 165.194 106.78C165.193 106.825 165.183 106.869 165.165 106.911C165.147 106.952 165.121 106.989 165.089 107.02C165.056 107.052 165.018 107.076 164.976 107.093C164.934 107.109 164.889 107.117 164.844 107.116H164.845Z" fill="white"/>
<defs>
<linearGradient id="paint0_linear_401_309" x1="2.34885" y1="98.0639" x2="193.779" y2="98.0639" gradientUnits="userSpaceOnUse">
<stop stop-color="#F2EAEA"/>
<stop offset="0.802083" stop-color="#D9D9D9" stop-opacity="0"/>
</linearGradient>
</defs>
</svg>
