<svg width="188" height="202" viewBox="0 0 188 202" fill="none" xmlns="http://www.w3.org/2000/svg">
<circle cx="93.6502" cy="108.486" r="89.014" transform="rotate(87.0248 93.6502 108.486)" fill="url(#paint0_linear_401_308)"/>
<path d="M160.619 36.6116C159.696 36.5653 158.773 36.6905 157.896 36.9807C156.598 37.5565 155.334 40.5932 154.434 45.3582C153.646 49.4845 153.307 53.684 153.424 57.8832C153.436 58.2554 153.537 58.6193 153.717 58.9449C153.898 59.2706 154.153 59.5486 154.462 59.7562C158.501 62.6362 172.206 59.1164 173.66 58.7298C174.352 57.4048 180.665 45.0003 177.554 41.665C174.819 38.709 165.645 36.6116 160.619 36.6116Z" fill="white"/>
<path d="M159.846 61.4493C157.475 61.4493 155.375 61.1211 154.117 60.2105C153.736 59.9548 153.421 59.6129 153.197 59.2125C152.974 58.8121 152.848 58.3646 152.83 57.9064C152.489 51.4065 154.296 37.868 157.66 36.4281C161.024 34.9871 174.392 37.4072 177.994 41.2561C181.594 45.1041 174.433 58.5397 174.127 59.1164C174.108 59.1526 174.082 59.1844 174.05 59.2101C174.019 59.2358 173.982 59.2547 173.943 59.2657C173.498 59.3696 165.807 61.4493 159.846 61.4493ZM160.619 36.6116C159.696 36.5653 158.773 36.6905 157.896 36.9807C156.598 37.5565 155.334 40.5932 154.434 45.3582C153.646 49.4845 153.307 53.684 153.424 57.8832C153.436 58.2554 153.537 58.6193 153.717 58.9449C153.898 59.2706 154.153 59.5486 154.462 59.7562C158.501 62.6362 172.206 59.1164 173.66 58.7298C174.352 57.4048 180.665 45.0003 177.554 41.665C174.819 38.709 165.645 36.6116 160.619 36.6116Z" fill="#231F20"/>
<path d="M121.873 136.382C126.594 134.306 130.665 130.989 133.651 126.784C136.637 122.579 138.428 117.643 138.832 112.502L129.282 102.258L116.156 127.567" fill="white"/>
<path d="M121.873 136.683C121.805 136.68 121.74 136.654 121.689 136.609C121.637 136.564 121.603 136.503 121.591 136.436C121.579 136.369 121.59 136.3 121.622 136.24C121.655 136.18 121.707 136.133 121.769 136.106C126.405 134.04 130.404 130.771 133.351 126.639C136.299 122.507 138.087 117.662 138.532 112.605L129.358 102.765L116.427 127.7C116.386 127.761 116.324 127.804 116.253 127.823C116.182 127.841 116.107 127.833 116.041 127.799C115.976 127.766 115.925 127.71 115.898 127.642C115.871 127.574 115.87 127.498 115.895 127.429L129.023 102.119C129.045 102.077 129.076 102.041 129.116 102.013C129.155 101.986 129.2 101.969 129.247 101.964C129.294 101.956 129.343 101.96 129.388 101.975C129.433 101.99 129.474 102.016 129.507 102.05L139.057 112.3C139.086 112.33 139.108 112.367 139.121 112.407C139.135 112.446 139.141 112.488 139.137 112.53C138.702 117.721 136.88 122.699 133.861 126.944C130.842 131.189 126.737 134.544 121.977 136.659C121.945 136.675 121.909 136.683 121.873 136.682V136.683Z" fill="#231F20"/>
<path d="M151.474 152.03L180.359 151.472L179.96 115.153L137.545 116.679L131.642 152.03H151.474Z" fill="#231F20"/>
<path d="M151.474 152.319H131.642C131.6 152.319 131.559 152.31 131.521 152.292C131.483 152.274 131.449 152.247 131.423 152.215C131.395 152.184 131.375 152.147 131.364 152.107C131.353 152.067 131.351 152.025 131.36 151.985L137.262 116.632C137.272 116.567 137.304 116.506 137.354 116.462C137.403 116.418 137.467 116.393 137.533 116.39L179.949 114.863C180.026 114.864 180.1 114.893 180.157 114.944C180.216 114.997 180.25 115.073 180.25 115.152L180.647 151.449C180.648 151.487 180.642 151.525 180.628 151.56C180.614 151.595 180.593 151.627 180.567 151.655C180.541 151.682 180.509 151.704 180.475 151.719C180.44 151.734 180.402 151.742 180.365 151.743L151.48 152.319H151.474ZM131.983 151.743H151.473L180.071 151.166L179.678 115.446L137.787 116.955L131.983 151.743Z" fill="#231F20"/>
<path d="M185.927 74.8561C183.342 71.3475 177.156 69.4986 172.99 68.8356C168.98 68.2023 164.964 68.8356 160.936 68.4898C157.249 68.2744 153.55 68.636 149.974 69.5616C136.535 73.2724 124.043 92.6997 124.043 92.6997L137.741 93.4192C137.741 93.4192 135.751 107.725 130.038 139.073C153.834 139.92 181.53 142.281 181.53 142.281C181.53 142.281 181.651 135.72 181.951 129.261C184.098 127.262 184.023 124.076 184.416 122.226C184.923 119.847 183.896 93.996 183.896 93.996L187.017 92.8434C187.017 92.8434 187.058 76.3666 185.927 74.8561Z" fill="#E7816B"/>
<path d="M153.92 74.4936L143.482 143.048L155.946 144.299L170.123 74.3489L153.92 74.4936Z" fill="#231F20"/>
<path d="M155.946 144.587H155.917L143.448 143.337C143.369 143.328 143.296 143.289 143.246 143.227C143.222 143.196 143.205 143.161 143.197 143.123C143.188 143.086 143.187 143.046 143.194 143.008L153.633 74.4472C153.644 74.3801 153.678 74.3192 153.73 74.2751C153.782 74.2309 153.847 74.2065 153.915 74.2061L170.112 74.0615C170.155 74.0602 170.198 74.0689 170.237 74.0869C170.276 74.1049 170.311 74.1318 170.338 74.1653C170.365 74.1982 170.386 74.237 170.397 74.2787C170.407 74.3204 170.409 74.3641 170.401 74.4064L156.229 144.351C156.217 144.417 156.182 144.477 156.13 144.52C156.078 144.563 156.013 144.587 155.946 144.587ZM143.829 142.795L155.732 143.988L169.765 74.6373L154.186 74.7764L143.829 142.795Z" fill="#231F20"/>
<path d="M155.773 65.8982L153.978 74.4936C153.978 74.4936 155.889 80.2025 161.675 79.598C163.385 79.4053 165.03 78.8344 166.491 77.9266C167.952 77.0188 169.192 75.797 170.122 74.3499L172.177 58.5517C172.177 58.5517 168.317 55.7803 170.752 46.9363C165.902 48.2881 160.779 48.3121 155.916 47.0059C155.916 47.0059 152.056 56.4367 152.155 60.8327C152.253 65.2287 155.773 65.8982 155.773 65.8982Z" fill="white"/>
<path d="M160.839 79.9438C155.554 79.9438 153.718 74.6429 153.696 74.5854C153.681 74.5345 153.681 74.4805 153.696 74.4296L155.427 66.1161C154.538 65.8397 151.964 64.7104 151.861 60.8735C151.768 56.4367 155.484 47.2822 155.646 46.8965C155.673 46.8291 155.723 46.7738 155.788 46.7409C155.853 46.708 155.927 46.6997 155.998 46.7175C160.804 47.9962 165.864 47.9744 170.659 46.6545C170.71 46.6367 170.765 46.6331 170.817 46.6443C170.87 46.6554 170.918 46.6808 170.958 46.7176C170.997 46.7544 171.025 46.8013 171.04 46.8531C171.054 46.9049 171.054 46.9597 171.039 47.0114C168.692 55.5605 172.321 58.2865 172.356 58.3097C172.401 58.3405 172.436 58.3834 172.457 58.4332C172.478 58.4831 172.485 58.538 172.477 58.5916L170.423 74.3897C170.417 74.4286 170.403 74.4659 170.382 74.4991C169.438 75.9907 168.169 77.2502 166.67 78.1839C165.172 79.1175 163.482 79.7013 161.727 79.8919C161.432 79.9266 161.136 79.9439 160.839 79.9438ZM154.29 74.4704C154.538 75.1501 156.448 79.84 161.647 79.304C163.297 79.1096 164.885 78.5565 166.3 77.6835C167.714 76.8106 168.92 75.6389 169.834 74.2506L171.859 58.6954C171.167 58.1196 168.369 55.0774 170.325 47.386C165.654 48.5591 160.766 48.5591 156.096 47.386C155.519 48.8835 152.369 56.955 152.449 60.8791C152.536 64.9987 155.685 65.6033 155.825 65.632C155.902 65.6441 155.971 65.6877 156.015 65.7526C156.061 65.8203 156.078 65.9037 156.061 65.9844L154.29 74.4704Z" fill="#231F20"/>
<path d="M168.928 57.8368C169.222 57.0921 169.751 56.4633 170.434 56.0454C171.086 55.6871 171.795 55.4434 172.529 55.325C172.924 55.2171 173.337 55.1975 173.74 55.2675C174.015 55.3537 174.271 55.4882 174.496 55.6653C175.056 56.0451 175.465 56.61 175.651 57.261C175.732 57.8025 175.683 58.3552 175.506 58.8744C175.361 59.4493 175.138 60.0016 174.843 60.5156C174.54 61.0254 174.139 61.4698 173.663 61.8232C173.187 62.1765 172.645 62.4316 172.07 62.5738C171.494 62.7159 170.896 62.7421 170.31 62.6509C169.724 62.5598 169.163 62.353 168.657 62.0428" fill="white"/>
<path d="M171.017 62.9932C170.135 62.9947 169.269 62.7539 168.514 62.2968C168.464 62.2657 168.424 62.2206 168.4 62.1673C168.376 62.1139 168.367 62.0545 168.377 61.9965C168.386 61.9385 168.412 61.8845 168.451 61.8411C168.491 61.7977 168.542 61.7669 168.599 61.7525C168.637 61.7434 168.677 61.742 168.715 61.7484C168.754 61.7548 168.791 61.7688 168.824 61.7896C169.781 62.3633 170.924 62.541 172.009 62.2848C173.095 62.0143 174.028 61.3244 174.606 60.3663C174.887 59.8735 175.098 59.3443 175.235 58.7937C175.398 58.3242 175.446 57.8224 175.374 57.3306C175.203 56.7487 174.833 56.2452 174.329 55.9073C174.134 55.7496 173.911 55.6301 173.671 55.5549C173.313 55.4981 172.948 55.5181 172.598 55.6134C171.888 55.7272 171.201 55.9592 170.567 56.2995C169.939 56.6837 169.453 57.2616 169.182 57.9463C169.151 58.0191 169.092 58.0769 169.019 58.1078C168.946 58.1386 168.864 58.1402 168.789 58.112C168.715 58.0838 168.655 58.0282 168.62 57.9566C168.586 57.8849 168.581 57.8029 168.605 57.7274C168.926 56.9243 169.497 56.2456 170.233 55.7914C170.93 55.4157 171.688 55.1644 172.471 55.0487C172.91 54.9281 173.37 54.9096 173.816 54.9967C174.129 55.0895 174.421 55.2415 174.675 55.4465C175.3 55.8627 175.753 56.4907 175.951 57.2147C176.041 57.7941 175.991 58.3866 175.806 58.943C175.655 59.5478 175.422 60.1292 175.114 60.6714C174.456 61.7653 173.392 62.5546 172.154 62.8671C171.781 62.9552 171.4 62.9969 171.017 62.9932ZM155.08 70.195C156.099 70.4509 157.16 70.4857 158.193 70.297C159.227 70.1082 160.208 69.7004 161.07 69.1008C163.863 67.0554 163.833 65.6441 163.833 65.6441C163.833 65.6441 159.558 67.2918 155.98 66.0642L155.08 70.195Z" fill="#231F20"/>
<path d="M156.909 70.7077C156.265 70.7132 155.623 70.634 154.999 70.4722C154.93 70.452 154.872 70.4062 154.835 70.3442C154.799 70.2821 154.788 70.2085 154.804 70.1384L155.703 65.9955C155.711 65.9556 155.727 65.9178 155.751 65.8849C155.775 65.8521 155.806 65.8249 155.842 65.8055C155.878 65.7885 155.918 65.7797 155.958 65.7797C155.997 65.7797 156.037 65.7885 156.073 65.8055C159.506 66.9571 163.689 65.4077 163.729 65.3901C163.769 65.3689 163.814 65.3579 163.859 65.3579C163.904 65.3579 163.949 65.3689 163.989 65.3901C164.028 65.4145 164.06 65.4486 164.082 65.489C164.105 65.5294 164.116 65.5748 164.116 65.6209C164.116 65.684 164.116 67.2056 161.231 69.3141C159.977 70.2288 158.462 70.7172 156.909 70.7077ZM155.42 69.9826C156.362 70.179 157.333 70.1816 158.276 69.9903C159.218 69.799 160.112 69.4178 160.902 68.8699C162.604 67.62 163.211 66.6288 163.424 66.0883C162.212 66.4731 159.056 67.2862 156.194 66.4332L155.42 69.9826Z" fill="#231F20"/>
<path d="M160.937 53.0375C160.937 53.0375 157.273 56.892 157.838 57.7682C158.404 58.6435 160.429 58.5054 160.429 58.5054" fill="white"/>
<path d="M160.003 58.777C159.316 58.777 158.075 58.6667 157.596 57.924C156.972 56.9671 159.575 54.0463 160.723 52.8428C160.763 52.8016 160.814 52.7733 160.871 52.7616C160.927 52.7498 160.985 52.755 161.038 52.7766C161.092 52.7982 161.137 52.8352 161.169 52.8829C161.201 52.9305 161.218 52.9866 161.218 53.044C161.218 53.1191 161.188 53.1923 161.133 53.2452C159.264 55.2156 157.832 57.2786 158.069 57.6236C158.45 58.2003 159.915 58.2402 160.377 58.2003C160.535 58.1864 160.674 58.3023 160.689 58.4599C160.692 58.4978 160.688 58.5359 160.676 58.572C160.664 58.6082 160.646 58.6417 160.621 58.6705C160.596 58.6994 160.566 58.7231 160.532 58.7403C160.498 58.7575 160.461 58.7678 160.424 58.7706C160.4 58.765 160.227 58.7761 160.002 58.7761L160.003 58.777Z" fill="#231F20"/>
<path d="M166.758 54.1023C166.971 53.574 166.758 52.9907 166.283 52.7996C165.808 52.6084 165.25 52.8817 165.038 53.41C164.825 53.9382 165.038 54.5215 165.513 54.7126C165.988 54.9038 166.546 54.6305 166.758 54.1023Z" fill="#231F20"/>
<path d="M159.157 52.8607C159.369 52.3324 159.157 51.7492 158.681 51.558C158.206 51.3668 157.649 51.6401 157.436 52.1684C157.224 52.6967 157.437 53.2799 157.912 53.4711C158.387 53.6623 158.944 53.389 159.157 52.8607Z" fill="#231F20"/>
<path d="M160.424 63.6385C160.127 63.6385 159.833 63.6014 159.546 63.5291C155.554 62.5676 155.646 57.9119 155.646 57.8656C155.65 57.7896 155.684 57.7183 155.74 57.6668C155.796 57.6152 155.87 57.5875 155.946 57.5893C155.984 57.5901 156.021 57.5984 156.055 57.6137C156.089 57.629 156.12 57.6509 156.146 57.6783C156.172 57.7057 156.192 57.7379 156.205 57.7731C156.218 57.8082 156.224 57.8457 156.222 57.8832C156.222 58.0557 156.148 62.1179 159.685 62.9709C163.222 63.824 164.97 58.2402 164.987 58.1827C164.998 58.146 165.016 58.1119 165.04 58.0823C165.065 58.0527 165.094 58.0282 165.128 58.0102C165.162 57.9923 165.199 57.9812 165.237 57.9777C165.275 57.9743 165.313 57.9784 165.35 57.9899C165.386 58.0015 165.42 58.0201 165.449 58.0449C165.478 58.0696 165.502 58.0999 165.52 58.134C165.537 58.1681 165.547 58.2053 165.55 58.2435C165.553 58.2816 165.548 58.3199 165.535 58.3561C165.461 58.586 163.839 63.6385 160.424 63.6385Z" fill="#231F20"/>
<path d="M34.3075 76.9415L55.8748 101.077L86.0533 111.614L82.1989 119.576C82.1989 119.576 62.6093 116.621 54.8947 115.756C47.1802 114.893 37.4285 103.324 37.4285 103.324L34.3075 76.9415Z" fill="white"/>
<path d="M82.1989 119.859H82.1581C81.9624 119.859 62.4823 116.898 54.8604 116.039C47.1227 115.169 37.6075 103.986 37.2097 103.507C37.1709 103.467 37.1465 103.414 37.1402 103.358L34.0182 76.9415C34.0134 76.8815 34.0267 76.8215 34.0565 76.7692C34.0862 76.717 34.1311 76.6749 34.1851 76.6485C34.241 76.6225 34.3038 76.6152 34.3642 76.6275C34.4246 76.6399 34.4795 76.6713 34.5207 76.7171L56.0417 100.794L86.1498 111.309C86.1873 111.323 86.2215 111.344 86.2502 111.372C86.279 111.4 86.3016 111.434 86.3167 111.471C86.3337 111.507 86.3424 111.548 86.3424 111.588C86.3424 111.629 86.3337 111.669 86.3167 111.706L82.4575 119.691C82.4112 119.793 82.3092 119.859 82.1979 119.858L82.1989 119.859ZM37.7058 103.197C38.5078 104.131 47.7106 114.651 54.9235 115.463C62.1364 116.275 79.891 118.92 82.0431 119.254L85.6667 111.764L55.7951 101.33C55.7482 101.315 55.7064 101.287 55.6736 101.25L34.6997 77.8066L37.7058 103.197Z" fill="#231F20"/>
<path d="M44.7796 64.9756C44.4801 62.9533 43.6669 61.046 43.0485 59.1044C41.4907 54.3977 41.2654 49.5409 39.6325 44.851C37.5379 38.8184 33.5165 34.428 26.4826 34.6765C25.0671 34.6771 23.6834 35.0964 22.5058 35.8818C21.3282 36.6672 20.4094 37.7835 19.865 39.0901C16.5353 37.257 12.0985 40.9854 11.9427 44.3957C11.7109 49.425 12.0354 53.7181 9.84161 58.4822C8.18002 62.1002 5.60695 65.4883 5.39369 69.4634C5.18043 73.4393 7.43545 77.1547 10.6668 79.3504C13.8982 81.5452 17.9716 82.2767 21.8668 81.9893C25.7612 81.7009 29.5295 80.4566 33.1475 78.9702C34.9274 78.2827 36.6355 77.4221 38.2473 76.4009C41.9237 73.9465 45.4834 69.6534 44.7796 64.9756Z" fill="white"/>
<path d="M20.2627 82.3352C16.8091 82.412 13.4113 81.455 10.5055 79.5869C7.04323 77.2187 4.8967 73.2492 5.1044 69.4522C5.26017 66.5194 6.68068 63.887 8.05298 61.3399C8.57872 60.3663 9.12115 59.364 9.58291 58.3617C11.3595 54.4729 11.4578 51.0152 11.5672 46.9827C11.5672 46.1361 11.6135 45.2543 11.6534 44.3846C11.7461 42.4022 13.2297 40.2241 15.2715 39.0836C15.9294 38.6661 16.6784 38.4134 17.4549 38.3473C18.2313 38.2811 19.0123 38.4033 19.7314 38.7035C20.324 37.4186 21.2718 36.3301 22.4629 35.5664C23.6541 34.8027 25.0389 34.3958 26.4538 34.3937C32.8007 34.1869 37.4517 37.7531 39.8922 44.7648C40.6619 47.1673 41.2578 49.6222 41.6752 52.1103C42.0675 54.448 42.613 56.7575 43.3081 59.0237C43.4703 59.5021 43.6373 59.9862 43.8106 60.4646C44.3753 61.9149 44.8004 63.4158 45.08 64.9468C45.7949 69.8148 42.1027 74.1653 38.404 76.6485C36.7734 77.6846 35.0432 78.5549 33.2393 79.2466C30.198 80.4965 26.1655 81.9717 21.8724 82.2879C21.342 82.3175 20.7996 82.3352 20.2627 82.3352ZM17.9539 38.8936C17.1066 38.9124 16.2784 39.1487 15.5487 39.5797C13.6729 40.6275 12.3062 42.6155 12.2246 44.4069C12.1847 45.2887 12.1615 46.1361 12.1384 46.9938C12.0289 50.9179 11.9307 54.6157 10.1012 58.6027C9.63391 59.6171 9.08592 60.6315 8.55554 61.6107C7.21662 64.0993 5.82578 66.6808 5.67001 69.481C5.47992 73.0758 7.49943 76.8552 10.8226 79.1149C13.7434 81.0899 17.6489 81.9949 21.8381 81.7009C26.0273 81.407 30.0311 79.9383 33.0316 78.7051C34.7944 78.025 36.4856 77.1722 38.0804 76.1589C41.6289 73.7907 45.1829 69.6191 44.5024 65.0155C44.2258 63.5218 43.8086 62.0577 43.2562 60.6426C43.0893 60.1651 42.9159 59.6811 42.7545 59.1915C42.0514 56.9061 41.4983 54.5772 41.0985 52.2197C40.7012 49.7569 40.1226 47.3268 39.3674 44.9493C36.9668 38.1045 32.6626 34.7451 26.477 34.964C25.1182 34.967 23.7907 35.3718 22.6613 36.1274C21.532 36.8831 20.6513 37.9558 20.1301 39.2107C20.1137 39.2454 20.0904 39.2765 20.0618 39.3022C20.0331 39.3278 19.9996 39.3475 19.9632 39.36C19.927 39.377 19.8874 39.3859 19.8473 39.3859C19.8073 39.3859 19.7677 39.377 19.7314 39.36C19.1883 39.0641 18.5788 38.9116 17.9604 38.9167L17.9539 38.8936Z" fill="#231F20"/>
<path d="M44.889 80.5604C44.6494 79.607 44.386 78.6597 44.099 77.7194C43.3368 75.202 42.4309 71.5496 40.6367 69.5505C37.7113 66.3126 31.128 66.2088 27.1289 66.1847C20.9378 66.1513 14.6085 67.6033 9.54768 71.1574C1.75895 76.6309 0.315258 84.5763 1.21003 93.4369C2.2374 103.346 3.51883 113.233 4.90875 123.103C5.04783 124.116 6.71499 139.194 7.46512 139.199C7.51705 139.199 58.8178 139.24 57.1794 140.45C54.8716 132.448 53.1404 124.318 51.2823 116.252C50.89 114.524 50.1918 112.957 49.7653 111.274C49.1478 108.843 49.4306 106.175 49.1876 103.686C48.686 97.9247 47.4574 92.2556 46.2576 86.6097C45.8357 84.5818 45.3971 82.5596 44.889 80.5604Z" fill="#E7816B"/>
<path d="M59.4298 152.22L53.5503 126.456L6.06222 130.362L5.45674 152.22H59.4298Z" fill="#231F20"/>
<path d="M59.4298 152.509H5.45674C5.37882 152.509 5.30411 152.478 5.24904 152.423C5.19644 152.366 5.16755 152.292 5.16837 152.215L5.74511 130.356C5.74747 130.285 5.77568 130.217 5.82447 130.165C5.87326 130.113 5.93931 130.08 6.0103 130.074L53.4983 126.167C53.5673 126.165 53.635 126.186 53.6905 126.227C53.7461 126.267 53.7862 126.326 53.8043 126.392L59.6829 152.157C59.6912 152.197 59.691 152.239 59.6825 152.278C59.6739 152.318 59.6572 152.356 59.6333 152.389C59.6094 152.422 59.5789 152.45 59.5437 152.47C59.5085 152.491 59.4694 152.504 59.4289 152.509H59.4298ZM5.76829 151.933H59.0775L53.3082 126.767L6.32834 130.627L5.76829 151.933ZM31.2606 87.8883C31.4182 87.9532 31.5861 87.9922 31.7567 88.0042C32.836 88.0849 33.6834 87.0826 34.1285 86.0969C35.1207 83.9022 35.1207 81.4014 34.9473 79.0046C34.9142 77.589 34.6108 76.1929 34.0534 74.8914C33.5227 73.881 32.8108 72.9767 31.9532 72.2237C30.4122 70.8004 28.5429 69.608 26.4594 69.3428C24.3768 69.0776 21.33 70.207 20.6893 72.488C20.0207 74.9544 22.617 77.4375 23.8752 79.2521C25.6913 81.8755 27.6767 84.3775 29.8188 86.7423C30.2045 87.2291 30.6987 87.6213 31.2606 87.8883Z" fill="#231F20"/>
<path d="M31.8837 88.2917H31.7335C31.5364 88.2724 31.3425 88.2278 31.1568 88.1591C30.5578 87.876 30.0309 87.4607 29.6157 86.9444C27.4697 84.5772 25.477 82.0754 23.6499 79.4543C23.3719 79.0622 23.0831 78.6778 22.7839 78.3017C21.4802 76.6364 19.8538 74.5566 20.4296 72.4481C21.0704 70.0855 24.0829 68.8013 26.4937 69.0888C28.3816 69.3085 30.2861 70.2988 32.1498 72.0281C33.0353 72.8014 33.7697 73.7333 34.313 74.7755C34.8851 76.1125 35.1985 77.5451 35.2356 78.999C35.4025 81.3032 35.4322 83.9244 34.3881 86.224C34.1628 86.7367 33.3311 88.2917 31.8837 88.2917ZM31.3644 87.612C31.497 87.6667 31.6371 87.6992 31.7798 87.7103C32.6857 87.791 33.4646 86.8573 33.8624 85.9819C34.849 83.7983 34.8202 81.2457 34.6598 79.0333C34.6266 77.6464 34.3328 76.2782 33.7938 74.9998C33.2817 74.0201 32.5908 73.1449 31.7567 72.4194C29.9857 70.7772 28.1905 69.838 26.4251 69.6312C24.2962 69.3827 21.5386 70.5241 20.9841 72.5687C20.4881 74.4009 22.0115 76.3545 23.2401 77.916C23.5627 78.3305 23.8687 78.7227 24.1284 79.0676C25.9379 81.677 27.9155 84.1657 30.0487 86.5179C30.3964 86.9796 30.8461 87.3542 31.3644 87.612Z" fill="#231F20"/>
<path d="M56.1752 41.9757H137.291V128.443H56.1752V41.9757Z" fill="white"/>
<path d="M137.286 128.725H56.1752C56.099 128.725 56.0259 128.695 55.972 128.641C55.9181 128.587 55.8878 128.514 55.8878 128.438V41.9757C55.8878 41.8171 56.0167 41.6882 56.1752 41.6882H137.286C137.323 41.6881 137.361 41.6954 137.396 41.7098C137.431 41.7242 137.463 41.7454 137.489 41.7721C137.516 41.7988 137.537 41.8305 137.552 41.8654C137.566 41.9004 137.574 41.9378 137.574 41.9757V128.438C137.574 128.476 137.566 128.513 137.552 128.548C137.537 128.583 137.516 128.615 137.489 128.641C137.463 128.668 137.431 128.689 137.396 128.704C137.361 128.718 137.323 128.725 137.286 128.725ZM56.4645 128.15H136.997V42.264H56.4645V128.15Z" fill="#231F20"/>
<path d="M61.4094 48.6248H132.047V112.098H61.4094V48.6248Z" fill="white"/>
<path d="M132.052 112.387H61.4094C61.3715 112.387 61.3338 112.38 61.2987 112.365C61.2635 112.351 61.2316 112.33 61.2047 112.303C61.1778 112.276 61.1564 112.244 61.1419 112.209C61.1274 112.174 61.12 112.136 61.1202 112.098V48.6239C61.1202 48.4644 61.25 48.3365 61.4094 48.3365H132.052C132.211 48.3365 132.341 48.4644 132.341 48.6239V112.085C132.342 112.124 132.336 112.163 132.322 112.199C132.308 112.236 132.287 112.269 132.26 112.297C132.233 112.325 132.201 112.347 132.165 112.362C132.13 112.378 132.091 112.387 132.052 112.387ZM61.6978 111.81H131.763V48.9123H61.6978V111.81Z" fill="#D1D3D4"/>
<path d="M124.147 70.7939C123.131 71.9122 122.162 73.099 121.101 74.1412C118.325 76.9647 115.51 79.7482 112.71 82.5475C112.613 82.6458 112.538 82.7784 112.423 82.8303C111.92 83.0491 111.268 83.5331 110.934 83.3662C110.707 83.1915 110.522 82.9695 110.39 82.7157C110.259 82.4618 110.184 82.1823 110.172 81.8966C110.091 79.7361 110.144 77.5757 110.144 75.265C109.231 75.265 108.372 75.2307 107.512 75.265C104.263 75.4208 101.136 76.0662 98.3085 77.7547C96.5922 78.7046 95.1535 80.0859 94.1345 81.7622C93.1156 83.4385 92.5517 85.3516 92.4985 87.3125C92.5282 88.3872 92.7007 89.4526 93.0113 90.4818C93.1327 91.0233 93.4378 91.6334 92.7581 91.8467C92.5063 91.8478 92.2582 91.7851 92.0372 91.6642C91.8161 91.5434 91.6294 91.3685 91.4943 91.1559C90.6163 89.4148 89.9128 87.591 89.3942 85.7112C87.4498 76.9303 92.2788 68.882 101.009 66.1216C103.525 65.3186 106.151 64.9088 108.793 64.907H110.137V60.0038C110.12 59.2323 110.172 58.4609 110.293 57.6987C110.466 56.8234 111.02 56.6157 111.799 57.0478C112.114 57.2453 112.401 57.4836 112.653 57.7562C116.173 61.2704 119.689 64.7911 123.201 68.3173C123.546 68.7207 123.86 69.1509 124.141 69.6015L124.147 70.7949V70.7939Z" fill="#E7816B"/>
<path d="M80.2192 102.465C78.2442 102.09 76.4465 101.078 75.1009 99.5844C73.8116 98.0975 73.1047 96.1939 73.1111 94.2259C73.1111 86.5809 73.0647 78.9415 73.1111 71.2956C73.1058 70.219 73.3143 69.152 73.7245 68.1566C74.1346 67.1611 74.7383 66.257 75.5006 65.4967C76.2636 64.7357 77.1698 64.1334 78.1668 63.7246C79.1639 63.3157 80.232 63.1084 81.3096 63.1146C82.7327 63.0801 84.1564 63.0801 85.5795 63.1146C86.7339 63.1146 87.4609 63.8008 87.4498 64.8022C87.4377 65.8054 86.7284 66.3757 85.6027 66.3877H81.4367C80.7744 66.3666 80.1148 66.4798 79.4974 66.7204C78.8801 66.961 78.3178 67.3241 77.8446 67.7879C77.3718 68.2512 76.998 68.8057 76.7457 69.4177C76.4934 70.0297 76.3679 70.6865 76.3768 71.3484C76.3536 79.0296 76.3536 86.7117 76.3768 94.3938C76.3768 95.6965 76.8988 96.9446 77.827 97.8607C78.2867 98.3141 78.8318 98.6719 79.4307 98.9133C80.0296 99.1547 80.6704 99.275 81.3161 99.2673H109.589C110.26 99.2971 110.93 99.1882 111.557 98.9474C112.184 98.7067 112.755 98.3393 113.233 97.8681C113.711 97.3974 114.087 96.8329 114.337 96.2101C114.586 95.5874 114.705 94.9198 114.684 94.2491C114.724 91.8476 114.684 89.4442 114.684 87.0418C114.684 85.8892 115.18 85.2791 116.122 85.1521C116.905 85.0427 117.852 85.5842 117.852 86.3677C117.852 89.5768 118.088 92.8212 117.702 95.983C117.275 99.4407 114.586 101.745 111.118 102.396C110.988 102.433 110.863 102.481 110.743 102.54L80.2192 102.465Z" fill="#E7816B"/>
<path d="M131.527 118.5H71.7073C71.6308 118.5 71.5574 118.47 71.5033 118.415C71.4493 118.361 71.4189 118.288 71.4189 118.212C71.4189 118.135 71.4493 118.062 71.5033 118.008C71.5574 117.954 71.6308 117.923 71.7073 117.923H131.526C131.602 117.923 131.675 117.953 131.729 118.007C131.783 118.061 131.813 118.135 131.813 118.211C131.813 118.287 131.783 118.361 131.729 118.415C131.675 118.469 131.602 118.499 131.526 118.499L131.527 118.5ZM116.657 122.988H71.7082C71.6317 122.988 71.5584 122.957 71.5043 122.903C71.4502 122.849 71.4198 122.776 71.4198 122.699C71.4198 122.623 71.4502 122.549 71.5043 122.495C71.5584 122.441 71.6317 122.411 71.7082 122.411H116.657C116.695 122.411 116.733 122.418 116.768 122.433C116.803 122.447 116.835 122.468 116.861 122.495C116.888 122.522 116.909 122.553 116.924 122.588C116.938 122.623 116.946 122.661 116.946 122.698C116.945 122.775 116.914 122.847 116.86 122.901C116.806 122.955 116.734 122.986 116.657 122.988Z" fill="#D1D3D4"/>
<path d="M64.7382 122.694C66.5735 122.694 68.0614 121.208 68.0614 119.375C68.0614 117.542 66.5735 116.057 64.7382 116.057C62.9029 116.057 61.415 117.542 61.415 119.375C61.415 121.208 62.9029 122.694 64.7382 122.694Z" fill="white"/>
<path d="M64.7391 122.988C64.0236 122.989 63.3236 122.778 62.7278 122.382C62.132 121.986 61.6671 121.422 61.3918 120.761C61.1172 120.101 61.0448 119.375 61.1838 118.673C61.3228 117.972 61.6669 117.328 62.1726 116.823C62.6788 116.317 63.3235 115.972 64.0253 115.832C64.7272 115.693 65.4547 115.764 66.1161 116.037C66.8882 116.357 67.5257 116.934 67.92 117.671C68.3142 118.407 68.4409 119.258 68.2784 120.078C68.1159 120.897 67.6743 121.635 67.0288 122.166C66.3833 122.696 65.5747 122.987 64.7391 122.988ZM64.7391 116.344C64.1373 116.343 63.5486 116.52 63.0475 116.853C62.5464 117.186 62.1554 117.661 61.9241 118.216C61.6933 118.771 61.6328 119.382 61.75 119.972C61.8672 120.561 62.1569 121.103 62.5824 121.527C63.0083 121.952 63.5507 122.242 64.1411 122.359C64.7314 122.476 65.3432 122.415 65.8991 122.185C66.5471 121.915 67.0817 121.43 67.4122 120.811C67.7426 120.191 67.8484 119.477 67.7116 118.789C67.5748 118.1 67.2038 117.481 66.6618 117.035C66.1197 116.589 65.4409 116.345 64.7391 116.344Z" fill="#D1D3D4"/>
<path d="M37.2783 47.4899C37.2783 47.4899 40.1639 54.2021 39.3275 59.4966C39.1247 60.9735 38.4959 62.3594 37.5181 63.4848C36.5403 64.6101 35.2558 65.4262 33.8216 65.8333L34.3983 75.0805C34.3983 75.0805 34.7507 79.8048 28.8999 79.4533C27.2063 79.3474 25.5677 78.8121 24.1382 77.8978C22.7087 76.9836 21.5355 75.7205 20.7291 74.2275L18.9934 57.2842C18.9934 57.2842 25.3402 53.0783 24.3537 47.0114C24.3537 47.0114 32.4141 50.2781 37.2792 47.4899H37.2783Z" fill="white"/>
<path d="M29.535 79.7704H28.9119C27.1699 79.652 25.4858 79.0963 24.0154 78.1546C22.5449 77.213 21.3356 75.9159 20.4992 74.3832C20.4837 74.3528 20.4739 74.3198 20.4704 74.2859L18.705 57.313C18.7 57.2606 18.7092 57.2078 18.7315 57.1602C18.7538 57.1126 18.7886 57.0718 18.832 57.0422C18.8951 57.0014 24.9944 52.865 24.0709 47.0578C24.062 47.0075 24.067 46.9557 24.0853 46.9081C24.1036 46.8604 24.1345 46.8185 24.1747 46.7871C24.2149 46.7554 24.2627 46.7349 24.3134 46.7277C24.364 46.7206 24.4157 46.727 24.4631 46.7463C24.5382 46.7463 32.4493 49.9267 37.1225 47.2358C37.16 47.2201 37.2002 47.2121 37.2408 47.2121C37.2814 47.2121 37.3215 47.2201 37.359 47.2358C37.3978 47.2486 37.4334 47.2696 37.4634 47.2975C37.4933 47.3253 37.5169 47.3593 37.5324 47.3972C37.6529 47.6744 40.4754 54.2475 39.6094 59.5652C39.3987 61.056 38.7731 62.4576 37.804 63.6099C36.8348 64.7622 35.5612 65.6187 34.1285 66.0818L34.7053 75.0981C34.7301 75.7048 34.6348 76.3104 34.4247 76.8801C34.2147 77.4498 33.8941 77.9723 33.4813 78.4176C32.5819 79.3096 31.255 79.7714 29.535 79.7714V79.7704ZM21.0416 74.1589C21.8341 75.5899 22.9731 76.7991 24.3541 77.6758C25.7351 78.5526 27.314 79.0687 28.9462 79.177C30.7988 79.2874 32.1897 78.8896 33.0724 77.9902C33.7906 77.2064 34.1736 76.1727 34.1396 75.1102L33.5629 65.8917C33.5584 65.8232 33.5785 65.7553 33.6197 65.7004C33.6608 65.6455 33.7203 65.6071 33.7873 65.5922C35.17 65.2007 36.4076 64.4125 37.347 63.3249C38.2863 62.2374 38.8863 60.8983 39.0725 59.4734C39.8059 54.9393 37.6882 49.2581 37.1513 47.9164C32.8471 50.1455 26.4882 48.1176 24.7292 47.4723C25.2651 52.8762 20.2507 56.777 19.3281 57.4456L21.0416 74.1589Z" fill="#231F20"/>
<path d="M22.1209 55.8785C22.1209 55.8785 18.8144 49.6448 15.8834 53.8961C12.9525 58.1484 17.9141 62.2848 20.7477 61.7145" fill="white"/>
<path d="M20.1821 62.0659C18.5603 62.0659 16.6215 60.9134 15.5663 59.2833C14.9939 58.4674 14.696 57.4905 14.7156 56.4939C14.7353 55.4974 15.0716 54.533 15.6757 53.7403C16.4546 52.5887 17.3429 52.0704 18.3183 52.1334C20.5511 52.266 22.3573 55.5902 22.4037 55.7459C22.4321 55.8125 22.4344 55.8873 22.41 55.9555C22.3857 56.0237 22.3365 56.0801 22.2724 56.1136C22.2082 56.1471 22.1337 56.1552 22.0639 56.1362C21.994 56.1172 21.9339 56.0725 21.8956 56.0111C21.8956 56.0111 20.1645 52.8242 18.2377 52.7102C17.4681 52.6638 16.7587 53.1163 16.1078 54.0695C15.5739 54.7694 15.2761 55.6208 15.2575 56.5009C15.2388 57.381 15.5002 58.2443 16.004 58.9662C17.0953 60.6259 19.1955 61.7377 20.6781 61.4382C20.8358 61.4104 20.9869 61.5124 21.0184 61.6681C21.026 61.7049 21.0261 61.7428 21.0188 61.7796C21.0115 61.8163 20.9969 61.8513 20.9759 61.8824C20.9549 61.9135 20.928 61.9401 20.8966 61.9606C20.8652 61.9811 20.83 61.9952 20.7931 62.0019C20.5917 62.0434 20.3868 62.0651 20.1811 62.0668L20.1821 62.0659ZM34.8545 59.4558C34.3844 59.4552 33.9154 59.4108 33.4535 59.3232C33.4163 59.317 33.3808 59.3033 33.349 59.283C33.3173 59.2626 33.2901 59.236 33.269 59.2048C33.2479 59.1735 33.2334 59.1383 33.2264 59.1013C33.2194 59.0642 33.22 59.0262 33.2282 58.9894C33.2349 58.9517 33.2492 58.9157 33.2701 58.8836C33.2909 58.8514 33.318 58.8238 33.3497 58.8023C33.3814 58.7808 33.4171 58.7658 33.4547 58.7583C33.4922 58.7508 33.5309 58.7509 33.5685 58.7585C33.5685 58.7585 35.4378 59.122 36.3205 58.586C36.4475 57.8656 34.67 55.452 33.3784 53.9777C33.3531 53.9496 33.3337 53.9167 33.3213 53.881C33.309 53.8452 33.304 53.8074 33.3066 53.7697C33.3092 53.732 33.3193 53.6951 33.3365 53.6614C33.3536 53.6277 33.3773 53.5978 33.4062 53.5734C33.4612 53.52 33.5349 53.4901 33.6116 53.4901C33.6883 53.4901 33.7619 53.52 33.817 53.5734C34.3937 54.2077 37.0994 57.4455 36.9093 58.6324C36.8961 58.7242 36.863 58.8119 36.8122 58.8894C36.7614 58.967 36.6942 59.0324 36.6153 59.0812C36.071 59.3562 35.4637 59.4853 34.8545 59.4558ZM33.816 65.8453C33.816 65.8453 28.9119 66.7911 26.0273 66.2542C26.0273 66.2542 29.599 73.329 34.301 72.984L33.816 65.8453Z" fill="#231F20"/>
<path d="M33.9663 73.2891C29.3162 73.2891 25.8882 66.6687 25.7733 66.3757C25.7438 66.3301 25.7281 66.277 25.7281 66.2227C25.7281 66.1684 25.7438 66.1153 25.7733 66.0697C25.812 66.0279 25.8623 65.9986 25.9178 65.9854C25.9732 65.9722 26.0314 65.9757 26.0848 65.9955C28.8832 66.5194 33.7187 65.6033 33.7706 65.5922C33.811 65.5859 33.8522 65.5877 33.8919 65.5976C33.9315 65.6074 33.9688 65.6252 34.0015 65.6497C34.0645 65.7007 34.1035 65.7758 34.1109 65.8574L34.5958 72.9952C34.6009 73.071 34.5758 73.1458 34.5259 73.2031C34.4761 73.2604 34.4055 73.2957 34.3297 73.3012C34.2087 73.2932 34.0875 73.2892 33.9663 73.2891ZM26.5633 66.6233C27.4692 68.1625 30.3547 72.7133 33.9718 72.7133L33.5277 66.1912C32.4957 66.3757 29.0612 66.9172 26.5633 66.6233Z" fill="#231F20"/>
<path d="M30.7355 54.1429C31.2439 54.0819 31.5881 53.4664 31.5042 52.7684C31.4204 52.0703 30.9402 51.5539 30.4318 51.6149C29.9233 51.676 29.5791 52.2915 29.663 52.9895C29.7469 53.6876 30.227 54.204 30.7355 54.1429Z" fill="#231F20"/>
<path d="M37.062 53.9158C37.5705 53.8547 37.9147 53.2393 37.8308 52.5412C37.747 51.8431 37.2668 51.3267 36.7584 51.3878C36.2499 51.4489 35.9057 52.0643 35.9896 52.7624C36.0735 53.4605 36.5536 53.9769 37.062 53.9158Z" fill="#231F20"/>
<path d="M31.9356 62.2273C31.5156 62.2245 31.1011 62.1345 30.7182 61.9621C29.3097 61.352 28.4094 59.6579 28.0348 56.8864C28.0241 56.8098 28.0442 56.7321 28.0908 56.6704C28.1374 56.6087 28.2067 56.568 28.2833 56.5573C28.3599 56.5466 28.4376 56.5667 28.4993 56.6133C28.561 56.6599 28.6017 56.7292 28.6124 56.8058C28.9583 59.3464 29.7659 60.9023 30.9546 61.415C32.4141 62.0604 34.059 60.9366 34.0766 60.9254C34.1073 60.8991 34.1432 60.8796 34.182 60.868C34.2208 60.8565 34.2615 60.8532 34.3016 60.8583C34.3418 60.8635 34.3804 60.877 34.4149 60.898C34.4495 60.919 34.4793 60.9471 34.5023 60.9803C34.5254 61.0135 34.5412 61.0512 34.5488 61.0909C34.5564 61.1307 34.5556 61.1716 34.5464 61.211C34.5372 61.2504 34.5199 61.2874 34.4955 61.3197C34.4711 61.3519 34.4402 61.3787 34.4048 61.3983C33.674 61.8972 32.8194 62.1841 31.9356 62.2273Z" fill="#231F20"/>
<path d="M109.457 128.736C109.361 128.099 109.299 127.457 109.271 126.812C109.228 125.474 109.437 124.139 109.889 122.878C110.028 122.316 110.336 121.812 110.772 121.432C110.998 121.255 111.281 121.169 111.566 121.189C111.852 121.209 112.12 121.335 112.318 121.541C112.429 121.77 112.492 122.018 112.502 122.272C112.512 122.526 112.469 122.779 112.376 123.015C112.076 124.354 112.007 125.734 112.174 127.095C112.393 125.263 112.636 123.361 113.634 121.817C113.841 121.456 114.137 121.153 114.493 120.937C114.672 120.83 114.877 120.774 115.085 120.774C115.293 120.774 115.498 120.83 115.676 120.937C116.19 121.31 116.149 122.088 116.086 122.698C115.923 124.311 115.948 125.938 116.16 127.545C116.045 126.132 116.148 124.709 116.466 123.327C116.675 122.423 117.084 121.426 117.968 121.138C118.153 121.073 118.352 121.061 118.544 121.104C118.948 121.24 119.243 121.588 119.311 122.008C119.378 122.42 119.378 122.84 119.311 123.252C119.144 124.875 119.195 126.512 119.461 128.12C119.254 126.709 119.306 125.272 119.617 123.881C119.699 123.323 119.921 122.795 120.263 122.348C120.438 122.126 120.677 121.964 120.948 121.884C121.219 121.805 121.508 121.811 121.775 121.904C122.166 122.111 122.437 122.488 122.507 122.924C122.576 123.355 122.591 123.792 122.554 124.226C122.514 125.869 122.819 127.502 123.448 129.02C123.968 130.281 124.643 131.681 124.522 133.093C124.416 133.828 124.111 134.52 123.642 135.095C123.172 135.67 122.555 136.107 121.856 136.359C120.449 136.846 118.93 136.918 117.483 136.567C112.71 135.622 108.77 133.352 107.097 128.795" fill="white"/>
<path d="M119.501 137.097C118.81 137.094 118.12 137.022 117.443 136.884C111.949 135.795 108.377 133.116 106.82 128.922C106.792 128.845 106.796 128.761 106.831 128.688C106.865 128.614 106.928 128.557 107.004 128.53C107.081 128.502 107.165 128.506 107.238 128.541C107.312 128.575 107.369 128.638 107.396 128.714C108.873 132.701 112.301 135.253 117.574 136.296C118.965 136.639 120.427 136.574 121.781 136.106C122.428 135.874 122.999 135.471 123.435 134.941C123.871 134.41 124.155 133.772 124.257 133.093C124.36 131.9 123.858 130.708 123.373 129.561L123.206 129.153C122.564 127.595 122.252 125.922 122.289 124.238V124.035C122.319 123.693 122.306 123.349 122.249 123.01C122.219 122.84 122.152 122.679 122.053 122.538C121.953 122.398 121.823 122.281 121.672 122.198C121.465 122.137 121.245 122.139 121.039 122.203C120.834 122.268 120.652 122.393 120.518 122.561C120.21 122.974 120.011 123.457 119.941 123.967C119.633 125.322 119.58 126.723 119.785 128.098C119.797 128.176 119.777 128.255 119.731 128.319C119.684 128.383 119.614 128.425 119.537 128.438C119.465 128.447 119.393 128.43 119.334 128.39C119.274 128.349 119.232 128.289 119.214 128.219C118.942 126.583 118.891 124.919 119.064 123.27V123.171C119.119 122.823 119.119 122.467 119.064 122.117C119.038 121.962 118.971 121.817 118.87 121.697C118.768 121.577 118.636 121.488 118.487 121.437C118.343 121.408 118.193 121.418 118.054 121.466C117.447 121.662 117.01 122.33 116.749 123.436C116.438 124.788 116.339 126.18 116.455 127.563C116.446 127.628 116.415 127.689 116.367 127.735C116.319 127.782 116.257 127.811 116.191 127.818C116.125 127.825 116.059 127.81 116.002 127.775C115.945 127.741 115.902 127.688 115.879 127.626C115.663 125.996 115.638 124.347 115.803 122.711C115.861 122.135 115.89 121.501 115.515 121.224C115.384 121.146 115.234 121.105 115.082 121.105C114.93 121.105 114.78 121.146 114.649 121.224C114.336 121.413 114.075 121.679 113.893 121.996C112.912 123.517 112.688 125.453 112.486 127.182C112.476 127.253 112.441 127.319 112.387 127.366C112.333 127.414 112.263 127.441 112.191 127.441C112.119 127.44 112.05 127.414 111.996 127.366C111.942 127.318 111.907 127.253 111.897 127.182C111.724 125.788 111.793 124.375 112.099 123.004C112.266 122.61 112.266 122.166 112.099 121.771C112.052 121.708 111.992 121.654 111.924 121.615C111.855 121.575 111.779 121.55 111.701 121.541C111.444 121.504 111.183 121.568 110.974 121.72C110.587 122.064 110.315 122.518 110.195 123.022C109.75 124.245 109.544 125.542 109.589 126.842C109.589 127.043 109.618 127.222 109.629 127.389C109.649 127.844 109.698 128.295 109.774 128.743C109.77 128.811 109.744 128.876 109.699 128.927C109.654 128.978 109.592 129.013 109.525 129.024C109.458 129.036 109.388 129.024 109.329 128.99C109.269 128.957 109.223 128.905 109.197 128.841C109.118 128.374 109.068 127.902 109.047 127.429C109.047 127.262 109.047 127.083 109.006 126.888C108.958 125.515 109.173 124.147 109.641 122.854C109.797 122.234 110.142 121.677 110.628 121.259C110.961 121.02 111.374 120.916 111.782 120.971C112.097 121.015 112.381 121.183 112.572 121.437C112.714 121.701 112.797 121.991 112.816 122.29C112.834 122.588 112.789 122.887 112.682 123.166C112.679 123.197 112.679 123.228 112.682 123.258C112.869 122.729 113.115 122.223 113.414 121.749C113.651 121.345 113.986 121.008 114.389 120.769C114.618 120.635 114.878 120.569 115.143 120.576C115.407 120.583 115.664 120.664 115.884 120.81C116.461 121.247 116.461 122.054 116.461 122.613C116.563 122.245 116.749 121.905 117.005 121.62C117.26 121.335 117.577 121.113 117.932 120.971C118.177 120.884 118.442 120.87 118.695 120.93C119.217 121.096 119.6 121.542 119.687 122.083C119.74 122.346 119.755 122.616 119.733 122.884C119.833 122.675 119.961 122.481 120.113 122.307C120.328 122.035 120.624 121.838 120.958 121.745C121.292 121.651 121.647 121.667 121.971 121.789C122.445 122.037 122.778 122.49 122.872 123.016C122.94 123.396 122.961 123.783 122.935 124.168V124.37C122.903 125.971 123.2 127.561 123.806 129.043L123.973 129.446C124.465 130.598 125.018 131.918 124.902 133.26C124.795 134.05 124.473 134.796 123.97 135.416C123.467 136.036 122.804 136.506 122.052 136.774C121.231 137.047 120.364 137.157 119.501 137.097Z" fill="#231F20"/>
<path d="M169.822 96.5653L168.946 109.782C168.946 109.782 141.826 88.4651 137.286 87.549V91.2764C137.286 91.2764 129.743 90.3548 129.144 91.8522C128.544 93.3506 129.565 99.0429 131.527 100.195C132.681 100.892 142.426 100.95 142.426 100.95C142.426 100.95 143.806 104.325 157.25 116.695C170.695 129.066 183.342 135.68 184.133 124.094C184.923 112.507 185.927 92.9816 185.927 92.9816" fill="white"/>
<path d="M179.159 130.38C174.387 130.38 166.528 125.62 157.048 116.898C145.225 106.014 142.703 102.079 142.242 101.232C140.632 101.232 132.531 101.117 131.377 100.437C129.219 99.1634 128.221 93.333 128.867 91.7261C129.514 90.1183 135.168 90.7117 136.991 90.9139V87.5202C136.991 87.4761 137.001 87.4326 137.021 87.3927C137.04 87.3528 137.067 87.3176 137.101 87.2893C137.136 87.2623 137.176 87.2427 137.218 87.2319C137.261 87.221 137.305 87.2191 137.349 87.2263C141.636 88.0905 165.045 106.309 168.686 109.171L169.522 96.531C169.514 96.486 169.516 96.4396 169.528 96.3953C169.54 96.3511 169.562 96.3102 169.592 96.2759C169.623 96.2416 169.661 96.2147 169.703 96.1973C169.746 96.1799 169.791 96.1726 169.837 96.1757C169.883 96.1789 169.927 96.1925 169.967 96.2155C170.007 96.2386 170.041 96.2704 170.066 96.3086C170.091 96.3468 170.108 96.3903 170.114 96.4358C170.12 96.4813 170.115 96.5275 170.1 96.5709L169.246 109.782C169.243 109.836 169.225 109.888 169.193 109.932C169.161 109.976 169.118 110.01 169.067 110.03C169.018 110.053 168.963 110.062 168.909 110.056C168.855 110.05 168.804 110.029 168.761 109.995C168.502 109.788 142.923 89.7094 137.603 87.918V91.2533C137.603 91.2956 137.594 91.3376 137.577 91.3764C137.56 91.4151 137.535 91.4498 137.503 91.4781C137.472 91.5065 137.434 91.5277 137.394 91.5406C137.354 91.5535 137.311 91.5576 137.269 91.5527C134.233 91.1781 129.768 91.0576 129.438 91.9505C128.889 93.3163 129.888 98.8639 131.694 99.9303C132.508 100.409 138.566 100.616 142.444 100.644C142.503 100.643 142.562 100.661 142.611 100.694C142.661 100.727 142.699 100.774 142.721 100.83C142.721 100.857 144.319 104.361 157.469 116.466C168.259 126.38 176.798 131.099 180.953 129.48C182.685 128.794 183.648 126.968 183.838 124.059C184.617 112.611 185.621 93.1374 185.633 92.9473C185.635 92.9081 185.644 92.8696 185.66 92.8341C185.677 92.7985 185.7 92.7666 185.729 92.7402C185.758 92.7139 185.792 92.6936 185.829 92.6806C185.866 92.6676 185.906 92.6621 185.945 92.6645C185.984 92.666 186.022 92.6753 186.058 92.6919C186.093 92.7085 186.125 92.7319 186.151 92.7609C186.178 92.7899 186.198 92.8239 186.211 92.8608C186.224 92.8978 186.23 92.9369 186.227 92.976C186.227 93.1717 185.211 112.652 184.432 124.087C184.214 127.245 183.117 129.273 181.161 130.016C180.523 130.265 179.843 130.387 179.158 130.38H179.159Z" fill="#231F20"/>
<path d="M168.946 109.753L175.448 114.593Z" fill="white"/>
<path d="M175.448 114.893C175.385 114.89 175.323 114.869 175.269 114.835L168.767 109.995C168.704 109.946 168.663 109.875 168.653 109.796C168.642 109.718 168.662 109.638 168.709 109.574C168.757 109.513 168.828 109.472 168.905 109.461C168.983 109.45 169.062 109.47 169.125 109.517L175.627 114.357C175.676 114.395 175.712 114.447 175.73 114.507C175.748 114.566 175.747 114.63 175.728 114.688C175.708 114.747 175.671 114.798 175.621 114.835C175.571 114.872 175.51 114.892 175.448 114.893Z" fill="#231F20"/>
<path d="M18.5492 85.8957C18.5492 85.8957 29.6741 106.52 29.9736 107.327C30.0775 107.598 52.8984 95.3952 53.7348 93.7299C53.4607 91.8605 53.645 89.9526 54.2716 88.1702C54.6407 87.1966 55.3213 87.0761 56.1298 86.3899C56.0258 87.6067 56.0025 88.829 56.0603 90.0488C57.592 88.432 59.2475 86.9371 61.0117 85.5777C61.1952 85.3839 61.4243 85.2391 61.678 85.1565C61.9318 85.0739 62.2022 85.0561 62.4646 85.1048C62.7039 85.2253 62.9041 85.4108 63.0423 85.6407C65.4077 88.9648 63.4345 92.9575 61.7377 96.0693C58.5415 101.923 53.7524 105.558 48.6638 109.649C45.2742 112.354 41.7476 114.883 38.098 117.225C35.2715 119.134 32.2665 120.764 29.1252 122.093C27.2448 122.842 24.6476 123.822 22.6513 122.888C15.4096 119.536 7.10721 102.4 4.83921 94.8583" fill="white"/>
<path d="M24.5382 123.558C23.8548 123.568 23.1775 123.429 22.5539 123.149C18.4509 121.253 14.36 115.273 11.6534 110.589C8.763 105.634 6.39631 100.391 4.59164 94.9464C4.57782 94.8765 4.59044 94.804 4.62704 94.7429C4.66364 94.6818 4.72162 94.6365 4.78974 94.6157C4.85786 94.5949 4.93128 94.6002 4.99575 94.6304C5.06022 94.6607 5.11116 94.7138 5.1387 94.7795C7.4475 102.534 15.8139 119.397 22.7959 122.63C24.6077 123.465 26.9731 122.63 29.0454 121.83C32.1657 120.505 35.151 118.882 37.9598 116.984C41.6028 114.647 45.1232 112.124 48.5071 109.425L49.3842 108.717C54.0871 104.954 58.5239 101.399 61.5013 95.932C63.2954 92.6478 65.021 88.8916 62.8225 85.8085C62.7113 85.6231 62.5499 85.4729 62.3552 85.3765C61.9918 85.2327 61.5356 85.5322 61.2018 85.803C59.4533 87.1573 57.8099 88.642 56.2856 90.2444C56.2474 90.2848 56.1984 90.3134 56.1444 90.3266C56.0905 90.3398 56.0338 90.3372 55.9813 90.319C55.9288 90.3007 55.8827 90.2677 55.8485 90.2239C55.8143 90.1801 55.7935 90.1273 55.7886 90.0719C55.7422 89.5425 55.7487 87.9977 55.7886 87.0075L55.5874 87.1456C55.1122 87.3902 54.7428 87.8001 54.5489 88.2982C53.9451 90.0317 53.7648 91.8846 54.0231 93.702C54.043 93.76 54.043 93.823 54.0231 93.881C53.5382 94.8481 47.1746 98.5246 41.9061 101.434C38.9056 103.099 30.5337 107.645 29.9857 107.645C29.928 107.641 29.8726 107.621 29.8257 107.587C29.7787 107.554 29.7419 107.508 29.7195 107.455C29.4887 106.833 22.1552 93.1837 18.3128 86.0561C18.2761 85.9889 18.2677 85.9098 18.2894 85.8363C18.311 85.7629 18.361 85.701 18.4282 85.6644C18.4955 85.6277 18.5745 85.6193 18.648 85.6409C18.7215 85.6626 18.7833 85.7125 18.82 85.7798C19.253 86.5865 28.9583 104.591 30.147 107.005C32.6626 106.003 52.2002 95.2756 53.4344 93.6501C53.1744 91.7661 53.3726 89.8473 54.012 88.0562C54.2522 87.4535 54.6982 86.9555 55.2693 86.6495C55.5086 86.4984 55.7376 86.3334 55.9555 86.1544C56.0482 86.0756 56.179 86.0617 56.2856 86.1201C56.3885 86.1794 56.4451 86.2963 56.4293 86.414C56.3424 87.3869 56.3095 88.3639 56.331 89.3404C57.7405 87.8934 59.2483 86.5457 60.8438 85.3069C61.3167 84.9453 61.9454 84.5531 62.575 84.7951C62.8754 84.9342 63.1295 85.1558 63.3075 85.4349C65.8926 89.064 63.4688 93.4999 62.0205 96.1675C58.9857 101.734 54.5192 105.323 49.7533 109.126L48.8705 109.834C45.4756 112.548 41.9415 115.082 38.2825 117.428C35.441 119.347 32.4209 120.986 29.2643 122.325C27.777 123.02 26.1757 123.437 24.5382 123.558Z" fill="#231F20"/>
<path d="M18.5492 86.16C18.4989 86.1598 18.4494 86.1464 18.4058 86.1212C18.3622 86.096 18.326 86.0598 18.3007 86.0162L12.7151 76.5038C12.6958 76.4708 12.6832 76.4343 12.678 76.3965C12.6728 76.3586 12.6751 76.3201 12.6848 76.2831C12.6945 76.2461 12.7113 76.2114 12.7344 76.1809C12.7575 76.1505 12.7864 76.1249 12.8194 76.1056C12.8524 76.0863 12.8889 76.0736 12.9268 76.0684C12.9646 76.0632 13.0032 76.0655 13.0401 76.0752C13.0771 76.0849 13.1118 76.1018 13.1423 76.1249C13.1727 76.148 13.1984 76.1769 13.2177 76.2099L18.8144 85.7511C18.834 85.7834 18.8469 85.8195 18.8523 85.8569C18.8577 85.8944 18.8555 85.9326 18.8458 85.9692C18.8361 86.0058 18.8191 86.0401 18.7959 86.07C18.7727 86.0999 18.7436 86.1248 18.7106 86.1433C18.6599 86.1659 18.6034 86.1718 18.5492 86.16ZM169.822 96.8648C169.783 96.861 169.746 96.8496 169.712 96.8313C169.678 96.813 169.648 96.7882 169.623 96.7582C169.598 96.7283 169.58 96.6938 169.569 96.6567C169.558 96.6196 169.554 96.5807 169.558 96.5422L170.786 83.1696C170.805 83.0092 170.948 82.8915 171.11 82.9054C171.149 82.9075 171.188 82.9177 171.223 82.9354C171.259 82.953 171.29 82.9777 171.315 83.008C171.341 83.0382 171.36 83.0734 171.371 83.1112C171.382 83.1491 171.385 83.1889 171.381 83.2281L170.146 96.5941C170.143 96.6332 170.132 96.6714 170.114 96.7064C170.096 96.7413 170.071 96.7723 170.041 96.7976C170.011 96.8228 169.976 96.8417 169.939 96.8533C169.901 96.8649 169.862 96.8688 169.823 96.8648H169.822Z" fill="#231F20"/>
<defs>
<linearGradient id="paint0_linear_401_308" x1="4.63617" y1="108.486" x2="182.664" y2="108.486" gradientUnits="userSpaceOnUse">
<stop stop-color="#F2EAEA"/>
<stop offset="0.802083" stop-color="#D9D9D9" stop-opacity="0"/>
</linearGradient>
</defs>
</svg>
