<svg width="202" height="202" viewBox="0 0 202 202" fill="none" xmlns="http://www.w3.org/2000/svg">
<circle cx="101" cy="101" r="84.3387" transform="rotate(-102.865 101 101)" fill="url(#paint0_linear_401_307)"/>
<path d="M185.547 157.655H25.6018C25.5191 157.655 25.4398 157.623 25.3813 157.564C25.3228 157.506 25.2899 157.426 25.2899 157.343C25.2899 157.261 25.3228 157.181 25.3813 157.123C25.4398 157.064 25.5191 157.032 25.6018 157.032H185.547C185.629 157.032 185.709 157.064 185.767 157.123C185.826 157.181 185.858 157.261 185.858 157.343C185.858 157.426 185.826 157.506 185.767 157.564C185.709 157.623 185.629 157.655 185.547 157.655Z" fill="#D1D3D4"/>
<path d="M136.449 102.912H172.155V164.46H136.449V102.912Z" fill="white"/>
<path d="M172.155 164.771H136.449C136.408 164.771 136.368 164.763 136.33 164.747C136.292 164.732 136.258 164.709 136.229 164.679C136.2 164.65 136.177 164.616 136.162 164.578C136.146 164.54 136.138 164.5 136.138 164.459V102.912C136.138 102.739 136.278 102.599 136.449 102.599H172.155C172.327 102.599 172.466 102.739 172.466 102.912V164.446C172.468 164.488 172.461 164.53 172.446 164.569C172.431 164.609 172.408 164.644 172.379 164.675C172.35 164.705 172.316 164.729 172.277 164.746C172.239 164.762 172.197 164.771 172.155 164.771ZM136.759 164.148H171.844V103.223H136.76V164.146L136.759 164.148Z" fill="#231F20"/>
<path d="M38.0795 102.912H73.7855V164.46H38.0795V102.912Z" fill="white"/>
<path d="M73.7855 164.771H38.0795C38.0386 164.771 37.998 164.763 37.9602 164.747C37.9224 164.732 37.8881 164.709 37.8593 164.679C37.8304 164.65 37.8075 164.616 37.7919 164.578C37.7764 164.54 37.7684 164.5 37.7685 164.459V102.912C37.7685 102.739 37.9073 102.599 38.0795 102.599H73.7855C73.9568 102.599 74.0965 102.739 74.0965 102.912V164.446C74.0981 164.488 74.0912 164.53 74.0763 164.569C74.0613 164.609 74.0387 164.644 74.0097 164.675C73.9807 164.705 73.9459 164.729 73.9074 164.746C73.8689 164.762 73.8275 164.771 73.7855 164.771ZM38.3896 164.148H73.4745V103.223H38.3905V164.146L38.3896 164.148ZM143.096 85.0652L150.165 99.315H131.046L143.096 85.0652Z" fill="#231F20"/>
<path d="M150.165 99.6277H131.066C131.006 99.6291 130.947 99.6129 130.896 99.5812C130.845 99.5494 130.805 99.5036 130.779 99.4491C130.754 99.3947 130.746 99.3342 130.755 99.2749C130.763 99.2156 130.789 99.1603 130.829 99.1155L142.878 84.8658C142.91 84.8255 142.952 84.7944 143 84.7756C143.048 84.7568 143.1 84.7509 143.151 84.7586C143.202 84.7643 143.251 84.7827 143.294 84.8122C143.336 84.8416 143.371 84.8812 143.394 84.9273L150.457 99.1788C150.485 99.2269 150.499 99.2817 150.497 99.3371C150.496 99.3926 150.479 99.4466 150.449 99.4931C150.419 99.5395 150.376 99.5767 150.326 99.6005C150.276 99.6243 150.22 99.6337 150.165 99.6277ZM131.717 99.004H149.66L143.028 85.6328L131.717 99.004Z" fill="#231F20"/>
<path d="M88.7996 99.3158H134.316L150.83 75.021H107.862L88.7996 99.3158Z" fill="#231F20"/>
<path d="M134.317 99.6277H88.7873C88.7288 99.6276 88.6714 99.611 88.6219 99.5798C88.5724 99.5486 88.5327 99.5041 88.5074 99.4513C88.4821 99.3985 88.4721 99.3397 88.4788 99.2815C88.4854 99.2234 88.5083 99.1683 88.5448 99.1226L107.607 74.8278C107.636 74.7906 107.672 74.7606 107.714 74.7401C107.757 74.7195 107.803 74.7089 107.85 74.7092H150.818C150.933 74.7127 151.037 74.7768 151.092 74.8778C151.122 74.9266 151.138 74.9829 151.138 75.0404C151.138 75.0978 151.122 75.1541 151.092 75.2029L134.579 99.4907C134.55 99.5337 134.512 99.5689 134.466 99.5928C134.42 99.6168 134.369 99.6288 134.317 99.6277ZM89.44 99.004H134.174L150.264 75.3329H108.011L89.44 99.004Z" fill="#231F20"/>
<path d="M109.23 77.3808L95.6266 95.077H129.405L142.188 77.3808H109.23Z" fill="white"/>
<path d="M129.405 95.3897H95.6257C95.5674 95.3896 95.5102 95.373 95.4608 95.342C95.4114 95.3109 95.3718 95.2665 95.3464 95.214C95.3176 95.1637 95.3024 95.1068 95.3024 95.0488C95.3024 94.9909 95.3176 94.9339 95.3464 94.8837L108.957 77.1875C108.985 77.1504 109.022 77.1204 109.064 77.0998C109.106 77.0792 109.152 77.0686 109.199 77.0689H142.151C142.208 77.0682 142.263 77.0838 142.312 77.1136C142.36 77.1435 142.398 77.1865 142.423 77.2376C142.454 77.2863 142.47 77.3426 142.47 77.4001C142.47 77.4575 142.454 77.5138 142.423 77.5626L129.641 95.2579C129.614 95.2965 129.579 95.3285 129.538 95.3514C129.497 95.3742 129.452 95.3874 129.405 95.3897ZM96.2609 94.766H129.212L141.578 77.6803H109.385L96.26 94.7651L96.2609 94.766Z" fill="#231F20"/>
<path d="M118.904 91.8563C118.839 91.8558 118.776 91.8352 118.724 91.7972C118.671 91.7593 118.632 91.7059 118.612 91.6445C116.977 86.8065 114.701 81.5002 113.875 81.3754C112.885 81.3754 106.544 86.6378 100.911 91.7816C100.871 91.8187 100.821 91.8445 100.768 91.8564C100.714 91.8684 100.658 91.866 100.606 91.8495C100.554 91.833 100.507 91.803 100.47 91.7626C100.433 91.7221 100.407 91.6726 100.395 91.6191C100.383 91.5655 100.386 91.5097 100.402 91.4573C100.418 91.4049 100.448 91.3577 100.488 91.3204C102.44 89.5405 112.146 80.7578 113.93 80.7578H113.998C115.59 81.0012 118.407 88.9975 119.234 91.4442C119.247 91.4831 119.252 91.5242 119.25 91.5652C119.247 91.6062 119.236 91.6463 119.217 91.6829C119.199 91.7196 119.173 91.7522 119.142 91.7788C119.111 91.8054 119.074 91.8255 119.035 91.8378C118.993 91.8555 118.949 91.8619 118.904 91.8563Z" fill="#D1D3D4"/>
<path d="M129.05 92.5055C128.982 92.5051 128.916 92.4823 128.862 92.4405C128.808 92.3987 128.769 92.3404 128.752 92.2744C127.658 88.3738 126.097 84.2096 125.364 83.9908C124.63 83.7729 121.223 86.8627 118.45 89.8339C118.422 89.8638 118.388 89.8878 118.351 89.9046C118.313 89.9214 118.273 89.9306 118.232 89.9318C118.191 89.9329 118.15 89.926 118.112 89.9113C118.074 89.8966 118.039 89.8745 118.009 89.8462C117.949 89.7889 117.914 89.7103 117.912 89.6273C117.909 89.5444 117.94 89.4639 117.997 89.4034C119.414 87.8862 124.139 82.9735 125.544 83.3978C126.95 83.823 128.963 90.7265 129.349 92.1374C129.372 92.2166 129.363 92.3018 129.323 92.3742C129.284 92.4467 129.217 92.5005 129.138 92.5239L129.05 92.5055Z" fill="#D1D3D4"/>
<path d="M139.042 87.0437C138.277 87.0437 137.674 86.6747 137.674 86.2073C137.674 85.7391 138.296 85.3771 139.042 85.3771C139.788 85.3771 140.41 85.7391 140.41 86.2073C140.41 86.6756 139.807 87.0437 139.042 87.0437ZM139.042 85.5326C138.383 85.5326 137.799 85.8392 137.799 86.2073C137.799 86.5763 138.352 86.8873 139.042 86.8873C139.732 86.8873 140.254 86.5754 140.254 86.2073C140.254 85.8383 139.701 85.5519 139.042 85.5519V85.5326ZM144.475 79.9654H141.715C141.696 79.9639 141.677 79.9555 141.664 79.9416C141.65 79.9277 141.642 79.9093 141.64 79.8898C141.64 79.8477 141.673 79.8125 141.715 79.809H144.475C144.486 79.809 144.496 79.8111 144.505 79.8152C144.515 79.8193 144.523 79.8254 144.531 79.833C144.538 79.8406 144.543 79.8496 144.546 79.8594C144.55 79.8691 144.551 79.8795 144.55 79.8898C144.55 79.8997 144.548 79.9095 144.545 79.9187C144.541 79.9278 144.535 79.9362 144.529 79.9432C144.522 79.9502 144.513 79.9558 144.504 79.9596C144.495 79.9634 144.485 79.9654 144.475 79.9654Z" fill="#A7A9AC"/>
<path d="M134.317 99.6277C134.25 99.6283 134.185 99.6087 134.13 99.5715C134.064 99.5217 134.02 99.4484 134.008 99.367C133.995 99.2856 134.014 99.2024 134.061 99.1349L142.878 86.9875C142.902 86.9544 142.933 86.9264 142.967 86.905C143.002 86.8836 143.041 86.8694 143.081 86.863C143.122 86.8566 143.163 86.8583 143.203 86.8679C143.243 86.8775 143.28 86.8948 143.313 86.9189C143.449 87.0226 143.48 87.215 143.382 87.3556L134.566 99.5284C134.534 99.5623 134.495 99.5889 134.452 99.6062C134.409 99.6235 134.363 99.6303 134.317 99.6277Z" fill="white"/>
<path d="M118.904 81.8876C118.149 81.8876 117.536 81.2726 117.536 80.5145C117.536 80.3345 117.571 80.1562 117.64 79.9898C117.708 79.8234 117.809 79.6721 117.936 79.5446C118.063 79.4171 118.214 79.3159 118.38 79.2467C118.546 79.1775 118.724 79.1417 118.904 79.1413C119.66 79.1413 120.272 79.7563 120.272 80.5145C120.272 80.6944 120.237 80.8727 120.169 81.0391C120.1 81.2055 119.999 81.3568 119.872 81.4843C119.745 81.6118 119.595 81.7131 119.428 81.7823C119.262 81.8515 119.084 81.8873 118.904 81.8876ZM118.904 79.7651C118.806 79.7651 118.708 79.7845 118.618 79.8222C118.527 79.8599 118.445 79.9151 118.375 79.9847C118.306 80.0544 118.251 80.137 118.213 80.2279C118.176 80.3188 118.157 80.4162 118.157 80.5145C118.157 80.9274 118.491 81.263 118.904 81.263C119.002 81.263 119.1 81.2436 119.19 81.206C119.281 81.1683 119.363 81.1132 119.433 81.0436C119.502 80.9741 119.557 80.8916 119.595 80.8008C119.632 80.71 119.651 80.6127 119.651 80.5145C119.652 80.4161 119.633 80.3185 119.595 80.2275C119.558 80.1364 119.503 80.0536 119.434 79.984C119.364 79.9143 119.282 79.859 119.191 79.8215C119.1 79.7839 119.002 79.7647 118.904 79.7651Z" fill="#D1D3D4"/>
<path d="M33.3355 99.8465H173.672V105.82H33.3355V99.8465Z" fill="white"/>
<path d="M173.678 106.132H33.3364C33.2538 106.132 33.1747 106.099 33.1164 106.041C33.0581 105.982 33.0254 105.903 33.0254 105.82V99.8465C33.0269 99.7644 33.0602 99.6861 33.1181 99.628C33.1761 99.5699 33.2543 99.5364 33.3364 99.5346H173.679C173.849 99.5372 173.987 99.6752 173.99 99.8465V105.82C173.99 105.903 173.957 105.982 173.899 106.04C173.841 106.099 173.762 106.132 173.679 106.132H173.678ZM33.6465 105.509H173.342V100.152H33.6474V105.508L33.6465 105.509Z" fill="#231F20"/>
<path d="M86.1201 132.162C86.251 132.605 78.3978 160.908 78.3978 160.908L89.3724 162.68L102.341 123.579L86.1201 132.162Z" fill="white"/>
<path d="M89.3724 162.992H89.3214L78.3486 161.22C78.3045 161.213 78.2622 161.198 78.2245 161.174C78.1868 161.15 78.1545 161.119 78.1299 161.082C78.0869 161.004 78.0738 160.913 78.093 160.827C81.1581 149.802 85.7212 133.13 85.8082 132.193C85.8041 132.132 85.8179 132.072 85.8479 132.018C85.8779 131.965 85.9227 131.922 85.9769 131.894L102.197 123.311C102.253 123.283 102.315 123.271 102.377 123.278C102.439 123.285 102.498 123.309 102.546 123.348C102.591 123.39 102.624 123.444 102.641 123.503C102.657 123.563 102.656 123.626 102.639 123.685L89.6632 162.786C89.6425 162.847 89.6031 162.899 89.5507 162.936C89.4984 162.974 89.4365 162.993 89.3724 162.992ZM78.8028 160.651L89.1729 162.331L101.819 124.222L86.4003 132.375C86.0577 134.166 83.5029 143.66 78.7905 160.651H78.8028Z" fill="#231F20"/>
<path d="M77.7336 159.684L76.0609 164.964L102.341 167.006C101.11 164.513 98.9759 162.582 96.3725 161.606C93.6429 160.645 90.7025 159.497 90.7025 159.497L89.3724 162.68L77.7336 159.684Z" fill="#231F20"/>
<path d="M102.341 167.318L76.0609 165.277C76.0138 165.273 75.9681 165.259 75.9273 165.236C75.8864 165.212 75.8514 165.18 75.825 165.14C75.7986 165.101 75.7814 165.057 75.7748 165.01C75.7682 164.963 75.7723 164.916 75.7868 164.871L77.4595 159.591C77.4837 159.515 77.5358 159.452 77.6052 159.413C77.6746 159.375 77.7561 159.365 77.8329 159.384L89.2099 162.312L90.4538 159.377C90.4689 159.34 90.4912 159.306 90.5193 159.278C90.5475 159.249 90.581 159.226 90.618 159.211C90.655 159.195 90.6947 159.187 90.7348 159.187C90.7749 159.187 90.8147 159.194 90.8518 159.209C90.8826 159.209 93.8177 160.364 96.5157 161.313C99.202 162.314 101.403 164.307 102.665 166.881C102.717 166.976 102.717 167.092 102.665 167.187C102.631 167.24 102.582 167.281 102.524 167.305C102.466 167.328 102.402 167.333 102.341 167.318ZM76.4712 164.684L101.805 166.657C100.577 164.471 98.6181 162.787 96.2723 161.9C94.0523 161.12 91.6715 160.209 90.8694 159.904L89.657 162.799C89.6285 162.869 89.5758 162.926 89.5086 162.961C89.4414 162.995 89.3641 163.005 89.2907 162.987L77.9375 160.078L76.4703 164.684L76.4712 164.684ZM59.2863 132.536L57.4212 162.349C57.4212 162.349 51.1169 162.568 49.5382 163.679C47.9586 164.79 46.6715 169.821 46.6715 169.821H48.6368C48.6368 169.821 49.7806 166.076 51.0361 165.626C52.2923 165.177 59.4295 165.003 59.4295 165.003C59.4295 165.003 62.8733 166.338 63.4268 168.629C63.8626 170.433 63.7378 170.852 63.7378 170.852H65.9139C65.9089 169.825 65.7625 168.804 65.4791 167.817C65.0442 166.569 63.4084 165.076 63.4084 165.076C63.4084 165.076 67.0086 165.152 68.2086 165.152C69.4087 165.152 70.658 167.449 70.658 167.449H73.0019C73.0019 167.449 70.5526 163.304 68.9668 163.011C67.3811 162.717 63.3152 162.006 63.3152 162.006L62.2083 134.229L59.2863 132.536Z" fill="#231F20"/>
<path d="M65.9394 171.17H63.7633C63.7142 171.169 63.666 171.157 63.622 171.135C63.5779 171.114 63.5392 171.082 63.5085 171.044C63.4804 171.004 63.4618 170.957 63.4542 170.909C63.4465 170.86 63.4501 170.81 63.4646 170.763C63.4676 170.066 63.3609 169.373 63.1483 168.71C62.6809 166.756 59.8275 165.501 59.4172 165.328C57.3966 165.371 52.1615 165.558 51.1854 165.951C50.3772 166.25 49.4011 168.561 48.9785 169.94C48.959 170.004 48.9195 170.061 48.8659 170.101C48.8122 170.141 48.747 170.164 48.6798 170.165H46.697C46.6496 170.164 46.603 170.152 46.5608 170.13C46.5185 170.108 46.4817 170.078 46.453 170.04C46.4243 170.002 46.4045 169.958 46.3951 169.912C46.3856 169.865 46.3867 169.817 46.3983 169.771C46.4475 169.566 47.7284 164.615 49.3827 163.455C50.8437 162.43 55.8855 162.137 57.1541 162.081L58.9815 132.543C58.9858 132.49 59.0028 132.439 59.0311 132.395C59.0594 132.35 59.0982 132.313 59.144 132.287C59.1899 132.262 59.2412 132.25 59.2933 132.25C59.3455 132.25 59.3968 132.262 59.4427 132.287L62.3893 133.991C62.4815 134.044 62.5404 134.141 62.5448 134.246L63.6447 161.775C64.5522 161.931 67.7114 162.48 69.0538 162.736C70.7204 163.049 73.0388 166.881 73.2944 167.318C73.3217 167.366 73.3361 167.42 73.3361 167.474C73.3361 167.529 73.3217 167.583 73.2944 167.63C73.2672 167.679 73.2275 167.72 73.1794 167.748C73.1312 167.777 73.0763 167.792 73.0203 167.793H70.6764C70.6206 167.792 70.5659 167.777 70.5179 167.748C70.4699 167.72 70.4303 167.679 70.4032 167.63C69.9552 166.806 68.9607 165.495 68.2271 165.495C67.3811 165.495 65.3297 165.458 64.1982 165.439C64.8742 166.096 65.415 166.878 65.7901 167.743C66.0888 168.756 66.2407 169.807 66.2434 170.863C66.242 170.944 66.2097 171.02 66.153 171.078C66.0964 171.135 66.0198 171.168 65.9394 171.17ZM64.0743 170.546H65.61C65.5892 169.658 65.4509 168.776 65.1988 167.924C64.7947 166.756 63.2283 165.333 63.2098 165.314C63.1642 165.272 63.1322 165.216 63.1178 165.155C63.1035 165.094 63.1074 165.03 63.129 164.972C63.1546 164.913 63.1964 164.864 63.2492 164.828C63.3021 164.793 63.364 164.773 63.4277 164.771C63.4646 164.771 67.0332 164.846 68.2209 164.846C69.4087 164.846 70.5148 166.563 70.8504 167.143H72.4546C71.6217 165.826 69.9683 163.517 68.9229 163.323C67.3626 163.029 63.3275 162.33 63.2783 162.324C63.2068 162.312 63.1415 162.276 63.0937 162.222C63.046 162.167 63.0187 162.098 63.0165 162.025L61.9289 134.422L59.5657 133.055L57.7568 162.393C57.7523 162.471 57.7192 162.543 57.664 162.598C57.6088 162.652 57.5354 162.684 57.4581 162.687C55.73 162.748 50.9746 163.092 49.7429 163.934C48.6236 164.721 47.5422 167.923 47.1011 169.509H48.4312C48.7176 168.629 49.7367 165.763 50.9175 165.333C52.0991 164.902 59.1247 164.709 59.4172 164.709H59.5349C59.6843 164.765 63.1413 166.126 63.7255 168.548C63.91 169.2 64.0312 169.87 64.0857 170.545L64.0743 170.546Z" fill="#231F20"/>
<path d="M95.2348 113.523C95.2348 113.523 120.066 114.853 121.634 118.405C123.2 121.956 111.686 161.013 111.686 161.013C111.686 161.013 123.841 165.233 121.851 166.119C119.862 167.006 99.9665 165.233 99.9665 165.233L109.398 129.029L84.8269 127.368L95.2348 113.523Z" fill="white"/>
<path d="M118.724 166.681C112.892 166.681 101.558 165.689 99.9604 165.545C99.9148 165.541 99.8706 165.528 99.8308 165.505C99.7911 165.482 99.7568 165.451 99.7302 165.414C99.7046 165.376 99.6874 165.333 99.6798 165.288C99.6722 165.242 99.6744 165.196 99.6863 165.152L109.013 129.34L84.8146 127.705C84.7595 127.699 84.7069 127.679 84.6614 127.648C84.6158 127.616 84.5788 127.574 84.5537 127.525C84.5298 127.473 84.5207 127.416 84.5272 127.36C84.5337 127.304 84.5556 127.25 84.5906 127.206L95.0055 113.335C95.0324 113.292 95.0714 113.257 95.1176 113.235C95.1639 113.213 95.2156 113.204 95.2664 113.211C95.3288 113.211 101.558 113.548 107.9 114.322C120.888 115.895 121.678 117.687 121.939 118.28C123.474 121.769 113.235 156.981 112.103 160.82C115.405 161.975 122.368 164.565 122.417 165.845C122.419 165.97 122.381 166.092 122.308 166.193C122.236 166.294 122.132 166.369 122.013 166.407C120.936 166.657 119.827 166.75 118.724 166.681ZM100.377 164.952C106.146 165.464 120.21 166.519 121.745 165.833C121.335 165.077 116.225 162.924 111.586 161.319C111.51 161.291 111.448 161.236 111.412 161.164C111.377 161.092 111.37 161.009 111.394 160.932C114.576 150.102 122.584 121.363 121.341 118.535C120.098 115.707 102.354 114.228 95.378 113.848L85.4296 127.125L109.428 128.754C109.474 128.756 109.519 128.768 109.56 128.79C109.601 128.811 109.637 128.842 109.665 128.878C109.714 128.956 109.732 129.05 109.714 129.141L100.375 164.952H100.377Z" fill="#231F20"/>
<path d="M86.8106 91.3256C86.8106 91.3256 99.5686 107.306 105.021 106.862C110.474 106.42 126.091 86.7186 126.091 86.7186C128.914 83.3363 132.072 79.0412 130.052 74.378C129.852 73.929 129.504 73.4485 129.019 73.4854C128.815 73.5169 128.622 73.596 128.454 73.7164L126.713 74.79C126.769 74.3094 126.16 73.9659 125.693 74.0977C125.239 74.2752 124.861 74.6072 124.624 75.0333C122.814 77.618 121.646 80.077 121.745 83.2607L103.492 92.6241L96.2495 84.5777" fill="white"/>
<path d="M104.803 107.18C99.139 107.18 87.0838 92.1998 86.5681 91.5189C86.5251 91.4539 86.5079 91.3751 86.5199 91.2981C86.532 91.2211 86.5723 91.1513 86.6331 91.1025C86.6941 91.0537 86.7711 91.0297 86.8489 91.0352C86.9268 91.0408 86.9997 91.0755 87.0531 91.1324C87.1769 91.2887 99.4377 106.563 104.784 106.563H104.995C110.256 106.138 125.681 86.7318 125.83 86.5324C128.746 83.049 131.687 78.9665 129.753 74.5159C129.678 74.3402 129.417 73.7849 129.033 73.8104C128.877 73.8386 128.729 73.9027 128.602 73.9975L126.85 75.065C126.8 75.096 126.743 75.1125 126.684 75.1123C126.625 75.1122 126.568 75.0955 126.519 75.0641C126.469 75.0328 126.43 74.9881 126.405 74.9353C126.38 74.8824 126.37 74.8235 126.377 74.7654C126.381 74.7204 126.373 74.6752 126.353 74.6345C126.333 74.5938 126.303 74.5592 126.265 74.5343C126.195 74.4776 126.112 74.437 126.024 74.4154C125.936 74.3939 125.845 74.3919 125.756 74.4096C125.373 74.5737 125.055 74.8613 124.854 75.2266C123.325 77.4124 121.925 79.896 122.032 83.2669C122.034 83.3257 122.019 83.3839 121.989 83.4348C121.96 83.4856 121.916 83.527 121.864 83.5542L103.61 92.9175C103.549 92.9491 103.479 92.9595 103.411 92.9471C103.344 92.9347 103.282 92.9002 103.236 92.849L96 84.7903C95.9412 84.7318 95.908 84.6523 95.9077 84.5694C95.9075 84.4864 95.9402 84.4068 95.9987 84.3479C96.0572 84.2891 96.1366 84.2559 96.2196 84.2557C96.3025 84.2554 96.3822 84.2881 96.441 84.3466L103.517 92.1998L121.391 83.0543C121.335 79.6026 122.765 77.0627 124.325 74.8339C124.605 74.3471 125.044 73.9721 125.569 73.7726C125.952 73.6804 126.355 73.7753 126.657 74.0283C126.741 74.1021 126.812 74.1882 126.868 74.2848L128.261 73.4291C128.472 73.2816 128.715 73.1875 128.969 73.155C129.511 73.1111 129.989 73.5108 130.3 74.2348C132.551 79.4154 128.484 84.2851 126.296 86.9005C125.675 87.6991 110.555 106.707 105.027 107.156L104.803 107.18Z" fill="#231F20"/>
<path d="M45.0489 88.5978C45.0489 88.5978 38.4775 103.548 40.9145 105.146C43.3516 106.745 58.1864 105.146 58.1864 105.146L56.8994 85.7953" fill="white"/>
<path d="M46.5538 106.132C43.8989 106.132 41.5796 105.945 40.7344 105.383C40.3119 105.109 39.0187 104.265 41.7729 96.1698C43.0968 92.2692 44.744 88.5108 44.7634 88.4739C44.7763 88.4321 44.798 88.3934 44.8269 88.3605C44.8559 88.3276 44.8914 88.3012 44.9313 88.283C44.9712 88.2648 45.0144 88.2553 45.0582 88.255C45.1021 88.2547 45.1454 88.2636 45.1856 88.2812C45.2257 88.2989 45.2616 88.3248 45.291 88.3573C45.3204 88.3897 45.3426 88.4281 45.3562 88.4697C45.3697 88.5114 45.3743 88.5555 45.3697 88.599C45.365 88.6426 45.3512 88.6847 45.3291 88.7225C42.842 94.4093 39.472 103.816 41.0762 104.858C42.9413 106.107 53.5109 105.284 57.8631 104.858L56.6191 85.8146C56.6151 85.7732 56.6194 85.7314 56.6318 85.6916C56.6443 85.6519 56.6645 85.615 56.6914 85.5832C56.7183 85.5514 56.7513 85.5254 56.7884 85.5065C56.8255 85.4877 56.866 85.4765 56.9076 85.4735C56.9491 85.4706 56.9908 85.476 57.0302 85.4894C57.0696 85.5029 57.1059 85.5241 57.137 85.5518C57.1681 85.5795 57.1933 85.6131 57.2112 85.6507C57.2291 85.6883 57.2392 85.7291 57.2411 85.7707L58.5281 105.122C58.5333 105.203 58.507 105.282 58.4547 105.344C58.4025 105.405 58.3283 105.444 58.2479 105.452C57.813 105.478 51.5465 106.132 46.5538 106.132Z" fill="#231F20"/>
<path d="M50.4026 113.935C50.4026 113.935 47.1872 121.101 50.6135 125.62C54.0398 130.14 101.594 130.683 101.594 130.683L105.008 113.523L85.1133 110.802L83.9571 104.865L50.4018 113.935H50.4026Z" fill="white"/>
<path d="M101.608 130.995C101.489 130.995 89.5709 130.852 77.3603 130.158C60.9151 129.222 51.8259 127.755 50.3455 125.789C46.8516 121.182 49.9607 114.091 50.0978 113.791C50.1347 113.704 50.2111 113.639 50.3025 113.617L83.8763 104.547C83.9598 104.52 84.052 104.534 84.1249 104.584C84.1952 104.628 84.2453 104.701 84.2611 104.784L85.3742 110.508L105.027 113.192C105.069 113.198 105.11 113.212 105.147 113.235C105.183 113.258 105.214 113.288 105.238 113.324C105.262 113.358 105.28 113.396 105.288 113.437C105.297 113.478 105.297 113.52 105.288 113.561L101.912 130.739C101.9 130.811 101.862 130.875 101.806 130.922C101.751 130.969 101.68 130.994 101.608 130.995ZM50.6267 114.197C50.2225 115.19 47.8409 121.45 50.8621 125.434C53.4863 128.892 84.8831 130.178 101.353 130.377L104.654 113.791L85.1071 111.12C85.0431 111.11 84.9835 111.081 84.9368 111.037C84.89 110.992 84.8583 110.934 84.8462 110.87L83.7577 105.252L50.6267 114.197Z" fill="#231F20"/>
<path d="M69.8866 53.5665C69.4012 53.2738 68.9787 52.8877 68.6435 52.4306C68.1778 51.7599 67.8406 51.0086 67.649 50.2149C65.964 44.0977 65.9517 36.2639 71.3793 32.0751C72.9778 30.8472 74.8483 30.0219 76.8328 29.6687C78.8173 29.3155 80.8576 29.4448 82.7817 30.0457C85.4173 30.9075 87.6557 34.5472 88.8312 36.9131C89.795 38.8283 90.4477 40.9139 91.5915 42.7246C92.7354 44.5344 94.5575 46.1201 96.6958 46.2264C95.8492 46.7022 94.9057 46.9797 93.9364 47.0379C92.967 47.0962 91.9971 46.9338 91.0996 46.5629C91.5168 47.1266 92.088 47.5579 92.7444 47.8049C93.4008 48.0519 94.1145 48.1041 94.7999 47.9553C93.5559 48.9481 91.7778 48.9103 90.2114 48.5791C88.645 48.2488 87.1023 47.7489 85.4928 47.9553C83.0057 48.2365 81.3892 50.0708 79.4433 51.4009C76.9746 53.0236 72.7093 55.2085 69.8866 53.5665Z" fill="white"/>
<path d="M72.2305 54.4661C71.3609 54.4848 70.5022 54.2693 69.7443 53.8424C69.2127 53.5241 68.7531 53.0986 68.3949 52.5931C67.9042 51.8821 67.55 51.0861 67.3503 50.2457C66.5298 47.2499 64.366 37.0502 71.1737 31.7816C72.8118 30.5195 74.7304 29.6714 76.7665 29.3095C78.8026 28.9476 80.8959 29.0826 82.8686 29.703C85.6913 30.6202 87.9852 34.4787 89.086 36.6944C89.4594 37.4438 89.795 38.223 90.1121 38.9785C90.5906 40.1916 91.1643 41.3649 91.8279 42.4874C92.4499 43.4538 94.141 45.7142 96.6835 45.839C96.8214 45.8442 96.9383 45.9418 96.9699 46.0762C96.9874 46.1418 96.9821 46.2113 96.955 46.2735C96.9279 46.3358 96.8805 46.387 96.8205 46.4188C95.4416 47.1909 93.8352 47.454 92.2821 47.162C93.0104 47.6118 93.8836 47.7594 94.7191 47.5749C94.7883 47.5585 94.8611 47.5661 94.9254 47.5965C94.9897 47.6269 95.0417 47.6784 95.0728 47.7424C95.1039 47.8064 95.1123 47.879 95.0966 47.9484C95.0808 48.0178 95.0419 48.0797 94.9862 48.124C93.8731 49.0034 92.2452 49.2406 90.1428 48.8356C89.7695 48.7662 89.3961 48.6793 89.0236 48.5923C87.8878 48.2625 86.7044 48.1273 85.5235 48.1925C83.7639 48.392 82.4584 49.4401 81.072 50.496C80.5994 50.8642 80.1145 51.2384 79.6111 51.5881C78.1615 52.5992 75.0524 54.4661 72.2305 54.4661ZM79.0391 29.7531C76.3273 29.7521 73.6911 30.6475 71.5409 32.3C65.0442 37.3375 67.1395 47.1998 67.9407 50.1086C68.1225 50.8729 68.4458 51.5977 68.8921 52.2434C69.204 52.6713 69.6002 53.0297 70.0553 53.2977C73.0511 55.0459 77.8698 52.0502 79.2755 51.0952C79.7617 50.7554 80.2364 50.3994 80.6987 50.0278C82.0911 48.9411 83.5337 47.8174 85.4673 47.5995C86.7252 47.5206 87.9872 47.66 89.1976 48.0116C89.5648 48.0924 89.9311 48.1802 90.2983 48.2488C91.3328 48.4907 92.4091 48.4907 93.4435 48.2488C92.417 48.0829 91.4959 47.5227 90.8764 46.6876C90.8361 46.6336 90.8143 46.5679 90.8143 46.5005C90.8143 46.4331 90.8361 46.3674 90.8764 46.3134C90.917 46.2593 90.9747 46.2206 91.0402 46.2037C91.1056 46.1867 91.1749 46.1926 91.2366 46.2203C92.6386 46.7904 94.2017 46.8235 95.6266 46.3134C93.8089 45.7347 92.2753 44.4935 91.3306 42.8362C90.6455 41.6877 90.055 40.4854 89.5648 39.2412C89.2476 38.498 88.9428 37.724 88.551 36.994C87.6935 35.2773 85.3988 31.1957 82.6885 30.3145C81.5092 29.9363 80.2776 29.7474 79.0391 29.7531Z" fill="#231F20"/>
<path d="M86.7359 49.122C86.7359 49.122 88.4332 54.4529 87.5442 55.2085C86.6551 55.964 84.8084 54.778 84.8084 54.778" fill="white"/>
<path d="M86.7913 55.7769C86.0305 55.7112 85.298 55.4579 84.6591 55.0398C84.6203 55.0199 84.5861 54.9921 84.5587 54.9583C84.5312 54.9244 84.5112 54.8852 84.4998 54.8431C84.4885 54.801 84.486 54.757 84.4926 54.7139C84.4993 54.6708 84.5148 54.6296 84.5383 54.5929C84.5618 54.5562 84.5927 54.5248 84.6291 54.5007C84.6654 54.4767 84.7064 54.4605 84.7493 54.4532C84.7923 54.4458 84.8363 54.4476 84.8786 54.4583C84.9208 54.469 84.9604 54.4884 84.9947 54.5153C85.4304 54.7903 86.7921 55.4712 87.3579 54.9722C87.7866 54.6032 87.2332 51.7005 86.4372 49.2222C86.4139 49.1428 86.4223 49.0575 86.4606 48.9843C86.499 48.911 86.5643 48.8555 86.6428 48.8295C86.7212 48.804 86.8065 48.8107 86.88 48.8481C86.9535 48.8855 87.0091 48.9505 87.0346 49.0289C87.4449 50.3274 88.7188 54.6471 87.762 55.4457C87.4915 55.6734 87.1446 55.7916 86.7913 55.7769Z" fill="#231F20"/>
<path d="M87.7682 43.011C89.2169 45.0843 87.7682 48.1925 87.1462 50.308C86.2889 53.286 85.3624 56.2437 84.3674 59.1785C83.7454 61.0516 78.8459 59.6969 78.1501 58.8913L76.8191 66.5757L66.5175 62.9984L69.8313 53.6789C69.8313 53.6789 73.1451 54.6409 76.1294 51.3263C79.1138 48.0116 81.1898 39.5592 81.1898 39.5592C81.1898 39.5592 86.3564 40.9816 87.7682 43.011Z" fill="white"/>
<path d="M76.8129 66.8876H76.7137L66.405 63.3243C66.3659 63.312 66.3297 63.2918 66.2987 63.2649C66.2677 63.238 66.2426 63.205 66.2249 63.1679C66.197 63.0892 66.197 63.0033 66.2249 62.9246L69.5141 53.5744C69.5395 53.5005 69.5923 53.4392 69.6617 53.4032C69.731 53.3672 69.8116 53.3593 69.8866 53.3811C70.0184 53.4119 73.0643 54.2359 75.8747 51.1145C78.6842 47.9931 80.848 39.5724 80.848 39.4855C80.8572 39.4451 80.8747 39.407 80.8993 39.3738C80.924 39.3405 80.9553 39.3127 80.9912 39.2922C81.0669 39.261 81.1519 39.261 81.2275 39.2922C81.4445 39.3537 86.5251 40.7716 87.9852 42.8625C89.2784 44.7347 88.4455 47.2323 87.7682 49.2916C87.6373 49.6913 87.5134 50.0717 87.408 50.4275C86.5468 53.409 85.6177 56.3704 84.6213 59.3094C84.5001 59.5968 84.3029 59.8457 84.0509 60.0294C83.799 60.2131 83.5017 60.3247 83.1911 60.3522C81.5178 60.5383 79.8271 60.2208 78.3354 59.4403L77.0923 66.632C77.0853 66.6763 77.0682 66.7185 77.0423 66.7552C77.0164 66.7919 76.9824 66.8222 76.943 66.8437C76.9037 66.8691 76.8596 66.8842 76.8129 66.8876ZM66.9102 62.806L76.5713 66.1646L77.8153 58.8359C77.8261 58.7785 77.8527 58.7252 77.8922 58.6822C77.9317 58.6391 77.9825 58.608 78.0388 58.5925C78.0952 58.5769 78.1547 58.5775 78.2107 58.5941C78.2667 58.6107 78.3169 58.6428 78.3556 58.6866C78.8037 59.2049 81.4955 60.0536 83.0751 59.7408C83.6092 59.6354 83.9325 59.4105 84.045 59.0731C85.0396 56.1446 85.9661 53.1934 86.8238 50.2219C86.9292 49.86 87.0601 49.4726 87.191 49.0605C87.8121 47.1568 88.6081 44.7847 87.4897 43.1867C86.3696 41.5886 82.5155 40.2911 81.3839 39.9537C80.9675 41.5456 79.04 48.5237 76.3289 51.5327C73.724 54.4231 70.9013 54.2043 70 54.0295L66.9102 62.806Z" fill="#231F20"/>
<path d="M84.92 56.9313C84.92 56.9313 82.2159 57.7052 81.6624 54.9651Z" fill="white"/>
<path d="M84.0942 57.3433C83.5602 57.3572 83.0327 57.2235 82.5699 56.9568C82.2381 56.7414 81.9557 56.458 81.7414 56.1255C81.5271 55.7929 81.3858 55.4187 81.3268 55.0275C81.3186 54.9867 81.3186 54.9446 81.3266 54.9037C81.3347 54.8629 81.3507 54.824 81.3738 54.7893C81.3969 54.7547 81.4266 54.7249 81.4612 54.7017C81.4958 54.6785 81.5346 54.6623 81.5754 54.6541C81.6163 54.6459 81.6583 54.6459 81.6992 54.6539C81.7401 54.662 81.779 54.678 81.8136 54.7011C81.8483 54.7242 81.8781 54.7539 81.9013 54.7885C81.9245 54.8231 81.9406 54.8619 81.9488 54.9028C82.0323 55.5177 82.3705 56.0686 82.8809 56.42C83.4783 56.7222 84.1654 56.7977 84.8146 56.6317C84.8694 56.6166 84.9272 56.6163 84.9821 56.6308C85.037 56.6454 85.0871 56.6742 85.1273 56.7143C85.1674 56.7545 85.1963 56.8046 85.2108 56.8595C85.2253 56.9145 85.225 56.9723 85.2099 57.027C85.1954 57.0817 85.1667 57.1316 85.1268 57.1717C85.0868 57.2118 85.037 57.2407 84.9824 57.2554C84.6907 57.321 84.393 57.3505 84.0942 57.3433Z" fill="#231F20"/>
<path d="M80.5001 49.4286C80.6264 48.6583 80.5382 47.868 80.2453 47.1445C80.0937 46.5605 79.8591 46.0013 79.5487 45.484C79.3879 45.2292 79.1732 45.0126 78.9197 44.8496C78.6662 44.6866 78.3801 44.5811 78.0815 44.5405C77.8134 44.5359 77.5474 44.5892 77.3018 44.6969C77.0561 44.8045 76.8366 44.9639 76.6583 45.1643C76.2946 45.5561 76.0258 46.0252 75.8747 46.5383C75.5149 47.6431 75.4501 48.8227 75.6867 49.9602C75.9232 51.0978 76.4529 52.1538 77.2232 53.0236L77.1055 52.7987" fill="white"/>
<path d="M77.2241 53.3354C77.1809 53.3352 77.1382 53.3263 77.0985 53.3093C77.0588 53.2922 77.0229 53.2674 76.993 53.2362C76.1843 52.3201 75.6283 51.2092 75.3798 50.0128C75.1313 48.8163 75.1989 47.5758 75.576 46.4135C75.7429 45.8557 76.0363 45.3452 76.4334 44.9218C76.6471 44.6941 76.9068 44.5145 77.1951 44.3949C77.4835 44.2752 77.7941 44.2183 78.1061 44.2277C78.8072 44.3086 79.4327 44.7065 79.8035 45.3083C80.1338 45.8495 80.3833 46.4364 80.5432 47.0505C80.8551 47.8283 80.9457 48.6772 80.805 49.5033C80.7835 49.5844 80.7308 49.6536 80.6583 49.6958C80.5858 49.738 80.4995 49.7496 80.4184 49.7282C80.3393 49.706 80.2722 49.6536 80.2316 49.5822C80.1909 49.5108 80.1801 49.4263 80.2014 49.3469C80.3056 48.6337 80.2176 47.9055 79.9467 47.2376C79.8073 46.6833 79.5852 46.1531 79.2878 45.665C79.1549 45.4447 78.9741 45.2572 78.7587 45.1165C78.5433 44.9758 78.2989 44.8855 78.0438 44.8524C77.5957 44.8436 77.1661 45.0281 76.863 45.3584C76.5318 45.7142 76.2876 46.1403 76.1479 46.6068C75.826 47.5954 75.7499 48.6476 75.9265 49.6722C76.103 50.6968 76.5267 51.6629 77.1608 52.4868C77.2487 52.5114 77.3225 52.5694 77.3664 52.6493L77.478 52.8742C77.5138 52.9412 77.5234 53.0191 77.5051 53.0927C77.4867 53.1664 77.4417 53.2307 77.3787 53.2731C77.3342 53.3089 77.2801 53.3309 77.2232 53.3363L77.2241 53.3354Z" fill="#231F20"/>
<path d="M87.3648 46.7406C87.498 46.1454 87.2221 45.5771 86.7486 45.4711C86.2751 45.3652 85.7833 45.7618 85.6502 46.357C85.517 46.9522 85.7929 47.5206 86.2664 47.6265C86.7399 47.7324 87.2317 47.3358 87.3648 46.7406Z" fill="#231F20"/>
<path d="M78.1439 58.8913C76.7925 58.011 75.4984 57.0456 74.2696 56.0009C74.2696 56.0009 73.6485 61.4074 77.3357 62.6496L78.1439 58.8913Z" fill="#231F20"/>
<path d="M77.3357 62.9615C77.3026 62.9675 77.2686 62.9675 77.2355 62.9615C73.3691 61.6569 73.9349 56.2144 73.9586 55.9825C73.9727 55.8682 74.0465 55.7716 74.1519 55.7268C74.2045 55.7067 74.2615 55.7008 74.3171 55.7096C74.3728 55.7183 74.4252 55.7416 74.469 55.7769C75.6891 56.8127 76.9725 57.7716 78.3117 58.6479C78.418 58.7182 78.4716 58.8465 78.4479 58.973L77.6396 62.7181C77.6302 62.7608 77.6121 62.8011 77.5864 62.8365C77.5607 62.8719 77.528 62.9015 77.4903 62.9237C77.4425 62.9483 77.3895 62.9613 77.3357 62.9615ZM74.5507 56.6378C74.5507 57.9732 74.7238 61.164 77.1117 62.2253L77.7951 59.0353C76.6723 58.2933 75.59 57.493 74.5507 56.6378Z" fill="#231F20"/>
<path d="M48.4751 116.3C48.4751 116.3 49.0339 78.0985 54.7417 69.3036C60.4495 60.5078 75.2588 58.5232 82.3213 63.7662C89.3847 69.0101 85.9839 109.085 85.9839 109.085C85.9839 109.085 63.4646 116.3 48.4751 116.3Z" fill="#E7816B"/>
<path d="M77.391 61.5198C81.1496 63.053 84.6609 65.1333 87.8112 67.6932C92.6985 71.7696 103.012 89.2962 103.012 89.2962L89.4093 97.5685L77.1977 82.4499L77.391 61.5198ZM60.6234 63.898C60.6234 63.898 53.5047 64.7027 49.7367 72.5497C47.6977 76.8062 42.4748 90.5517 42.4748 90.5517L58.1803 92.3684L60.6234 63.898Z" fill="#E7816B"/>
<path d="M88.3902 96.6126C88.3411 96.6125 88.2928 96.6006 88.2494 96.5778C88.2059 96.555 88.1686 96.522 88.1407 96.4817L76.0117 79.896C75.9623 79.8297 75.9412 79.7466 75.9529 79.6648C75.9645 79.583 76.0081 79.5091 76.0741 79.4593C76.1413 79.412 76.2243 79.3927 76.3054 79.4055C76.3866 79.4183 76.4596 79.4622 76.509 79.5279L88.6388 96.1136C88.6732 96.16 88.6941 96.2149 88.6991 96.2724C88.7042 96.3299 88.6932 96.3877 88.6675 96.4393C88.6418 96.491 88.6022 96.5345 88.5533 96.5651C88.5044 96.5957 88.4479 96.6121 88.3902 96.6126ZM124.599 77.8675L127.633 68.411L128.578 68.6851L126.669 78.0115C126.669 78.0115 125.326 79.31 124.599 77.8675Z" fill="#231F20"/>
<path d="M125.532 78.8602H125.321C125.098 78.8131 124.891 78.7122 124.716 78.5664C124.542 78.4206 124.405 78.2344 124.319 78.0238C124.288 77.9478 124.288 77.8627 124.319 77.7866L127.334 68.317C127.361 68.2407 127.416 68.1772 127.487 68.1392C127.559 68.1011 127.642 68.0912 127.72 68.1114L128.665 68.3855C128.74 68.4077 128.804 68.4572 128.844 68.5242C128.885 68.5912 128.898 68.6709 128.882 68.7475L126.974 78.1108C126.962 78.1707 126.931 78.2253 126.886 78.2672C126.517 78.6159 126.038 78.8256 125.532 78.8602ZM124.91 77.8306C125.006 78.03 125.186 78.1767 125.402 78.2294C125.757 78.2329 126.101 78.0959 126.359 77.849L128.193 68.9038L127.813 68.7984L124.91 77.8306Z" fill="#231F20"/>
<path d="M67.2265 56.4569C61.6302 55.2093 55.4129 56.0826 50.8929 59.5783C48.9756 60.9843 47.5366 62.9456 46.7708 65.1965C46.4073 66.3282 46.3226 67.5311 46.5241 68.7027C46.7255 69.8742 47.2071 70.9798 47.9278 71.9251C52.2177 77.0996 61.6364 77.075 67.4619 75.383C71.4355 74.2347 83.1981 68.6289 79.959 63.124C77.6273 59.1847 71.4223 57.3617 67.2265 56.4569Z" fill="#E7816B"/>
<path d="M60.1016 75.8521C56.3923 75.7437 52.7709 74.6976 49.5751 72.8115C49.5396 72.7904 49.5088 72.7624 49.4844 72.729C49.4601 72.6957 49.4428 72.6577 49.4335 72.6175C49.4242 72.5773 49.4232 72.5356 49.4304 72.4949C49.4377 72.4543 49.4531 72.4156 49.4758 72.3811C49.4977 72.3467 49.5263 72.317 49.5597 72.2937C49.5931 72.2704 49.6308 72.2539 49.6707 72.2452C49.7105 72.2364 49.7516 72.2356 49.7918 72.2428C49.8319 72.25 49.8702 72.265 49.9045 72.2871C49.9792 72.3371 57.6707 77.1365 64.9502 74.3656C68.445 73.0364 70.5464 70.6758 72.5538 68.3987C74.7739 65.901 76.8692 63.5422 80.4869 63.211C80.528 63.2074 80.5693 63.212 80.6085 63.2245C80.6478 63.2371 80.6841 63.2573 80.7154 63.2841C80.7468 63.3108 80.7724 63.3435 80.791 63.3803C80.8095 63.4171 80.8205 63.4572 80.8234 63.4983C80.8275 63.5389 80.8235 63.5799 80.8116 63.619C80.7997 63.658 80.7801 63.6943 80.754 63.7257C80.7279 63.7571 80.6959 63.783 80.6597 63.8019C80.6235 63.8207 80.5839 63.8322 80.5432 63.8356C77.174 64.1413 75.2457 66.3324 73.0203 68.8292C71.0437 71.0571 68.8052 73.5794 65.1681 74.9648C63.5468 75.5656 61.8297 75.8662 60.1007 75.8521H60.1016ZM49.0339 102.649C48.9929 102.647 48.9526 102.638 48.9154 102.621C48.8781 102.603 48.8446 102.579 48.8169 102.549C48.7891 102.518 48.7676 102.483 48.7536 102.444C48.7396 102.406 48.7333 102.365 48.7352 102.324C49.1894 92.4431 51.2232 78.2233 51.2232 78.0801C51.2366 77.9989 51.281 77.9262 51.3471 77.8772C51.4132 77.8281 51.4957 77.8067 51.5772 77.8174C51.7442 77.8437 51.8601 77.9992 51.8382 78.167C51.8382 78.3111 49.7806 92.5239 49.3519 102.349C49.3487 102.431 49.3136 102.508 49.2541 102.564C49.1947 102.62 49.1156 102.651 49.0339 102.649ZM96.7142 164.566H109.926C109.926 164.566 111.363 161.35 114.459 160.908C114.459 160.908 126.508 166.02 124.736 167.068C122.964 168.117 95.7821 168.004 95.7821 168.004L96.7142 164.565V164.566Z" fill="#231F20"/>
<path d="M98.5548 168.323H95.776C95.7283 168.323 95.6814 168.311 95.6388 168.29C95.5962 168.269 95.5591 168.238 95.5303 168.2C95.5014 168.162 95.4817 168.118 95.4725 168.071C95.4633 168.024 95.465 167.976 95.4773 167.93L96.4103 164.49C96.428 164.423 96.4676 164.364 96.5226 164.323C96.5777 164.281 96.6451 164.258 96.7142 164.259H109.734C110.1 163.541 111.599 161.007 114.415 160.601C114.468 160.585 114.524 160.585 114.576 160.601C117.064 161.65 125.146 165.196 125.227 166.744C125.231 166.861 125.203 166.977 125.145 167.078C125.086 167.18 125.001 167.263 124.897 167.318C123.386 168.229 105.76 168.323 98.5548 168.323ZM96.1862 167.7C107.085 167.73 123.349 167.53 124.58 166.8C124.58 166.026 119.314 163.31 114.416 161.226C111.592 161.688 110.225 164.665 110.212 164.696C110.187 164.75 110.147 164.796 110.096 164.829C110.045 164.861 109.986 164.877 109.926 164.877H96.9506L96.1862 167.7ZM86.7298 133.86C95.1417 132.081 100.781 128.13 97.4733 122.799C94.1656 117.468 70.4094 120.926 65.7646 116.974C61.1207 113.024 62.7811 92.068 57.6821 88.4792C52.584 84.8904 30.7306 81.263 28.2866 85.7953C25.8443 90.3267 28.2866 123.304 35.4062 130.627C42.5249 137.948 78.5226 135.558 86.7298 133.86Z" fill="#231F20"/>
<path d="M62.0537 135.951H60.648C51.1977 135.87 39.1056 134.915 35.1575 130.87C28.1197 123.579 25.3707 90.5894 28.0134 85.6644C28.4676 84.821 29.506 84.2034 31.1225 83.7914C37.8801 82.181 53.5047 85.1144 57.8561 88.1612C60.5988 90.0895 61.4501 96.6627 62.2768 103.017C63.0297 108.822 63.8063 114.821 65.9763 116.676C68.0408 118.435 74.3821 118.692 80.5186 118.941C88.0722 119.247 95.8875 119.565 97.7588 122.574C98.8412 124.322 99.052 126.007 98.3808 127.568C97.1377 130.452 93.0464 132.768 86.8106 134.084C82.5269 135.033 72.0566 135.951 62.0537 135.951ZM35.8472 83.9978C34.3023 83.9701 32.7592 84.1145 31.2463 84.4283C29.8293 84.7657 28.9217 85.2831 28.5607 85.964C26.1482 90.4392 28.7785 123.36 35.6302 130.426C42.5996 137.612 78.411 135.264 86.6612 133.548C92.6115 132.3 96.665 130.052 97.7904 127.393C98.3747 126.02 98.1823 124.529 97.2124 122.961C95.515 120.227 87.8859 119.922 80.4746 119.621C73.9472 119.359 67.7799 119.11 65.5537 117.205C63.2037 115.196 62.4446 109.347 61.6425 103.155C60.8413 96.9623 60.0014 90.4954 57.4774 88.7296C54.1197 86.3505 43.3024 83.9978 35.8481 83.9978H35.8472Z" fill="#231F20"/>
<path d="M102.341 116.613H102.291L82.2467 113.092C82.1639 113.078 82.0902 113.032 82.0416 112.963C81.993 112.895 81.9735 112.81 81.9875 112.727C82.0015 112.645 82.0477 112.571 82.1161 112.522C82.1845 112.474 82.2694 112.454 82.3521 112.468L102.397 115.989C102.438 115.992 102.478 116.004 102.515 116.023C102.551 116.042 102.583 116.068 102.61 116.1C102.636 116.131 102.656 116.168 102.668 116.207C102.68 116.246 102.685 116.288 102.681 116.329C102.678 116.37 102.666 116.409 102.647 116.446C102.628 116.482 102.602 116.514 102.57 116.541C102.538 116.567 102.502 116.587 102.463 116.599C102.423 116.612 102.382 116.617 102.341 116.613Z" fill="#D1D3D4"/>
<path d="M160.131 157.58L159.509 157.511C159.509 157.33 161.468 139.259 155.237 131.232L155.729 130.852C158.415 134.309 159.975 139.865 160.355 147.362C160.527 150.769 160.452 154.184 160.131 157.58Z" fill="#231F20"/>
<path d="M157.985 159.883C157.976 159.673 157.997 159.463 158.048 159.26C159.534 149.802 157.016 145.396 154.641 143.361L155.045 142.886C157.531 145.021 160.193 149.616 158.664 159.359C158.626 159.596 158.602 159.752 158.602 159.816L157.985 159.883Z" fill="#231F20"/>
<path d="M154.759 139.347C154.256 139.051 153.688 138.884 153.105 138.86C152.588 138.786 152.061 138.819 151.557 138.957C151.053 139.096 150.584 139.337 150.177 139.665C149.971 139.865 149.791 140.202 149.978 140.42C150.088 140.522 150.227 140.587 150.376 140.608C150.783 140.725 151.154 140.944 151.453 141.244C151.752 141.544 151.97 141.916 152.085 142.324C151.656 142.006 151.29 141.6 150.842 141.282C150.429 140.934 149.896 140.759 149.357 140.795C148.771 140.933 148.256 141.28 147.907 141.769C147.506 142.2 147.173 142.691 146.919 143.223C146.655 143.758 146.576 144.367 146.695 144.952C147.262 144.788 147.858 144.748 148.442 144.833C148.858 144.871 149.253 145.035 149.573 145.302C149.67 145.377 149.74 145.483 149.773 145.601C149.783 145.722 149.749 145.843 149.677 145.94C149.605 146.038 149.5 146.106 149.381 146.132C149.144 146.187 148.898 146.187 148.661 146.132C148.153 146.028 147.64 145.955 147.124 145.914C146.931 145.889 146.735 145.901 146.546 145.951C146.091 146.206 145.843 146.719 145.924 147.237C145.915 147.448 145.994 147.654 146.142 147.805C146.397 148.005 146.764 147.862 147.062 147.736C147.582 147.518 148.139 147.399 148.704 147.387C148.767 147.381 148.832 147.392 148.89 147.418C148.922 147.44 148.948 147.468 148.968 147.502C148.988 147.535 149.001 147.571 149.005 147.61C149.01 147.648 149.007 147.687 148.996 147.724C148.984 147.761 148.965 147.795 148.94 147.824C148.835 147.941 148.696 148.022 148.542 148.055C148.115 148.19 147.679 148.292 147.236 148.361C146.981 148.398 146.682 148.455 146.559 148.686C146.511 148.787 146.487 148.898 146.49 149.01C146.465 149.856 146.709 150.689 147.187 151.388C147.264 151.514 147.365 151.625 147.485 151.713C147.656 151.804 147.845 151.854 148.039 151.862C149.518 152.016 151.013 151.802 152.39 151.239C152.462 151.213 152.524 151.168 152.57 151.107C152.651 150.964 152.515 150.795 152.409 150.67C151.949 150.102 152.054 149.285 152.185 148.566C152.196 148.427 152.253 148.295 152.347 148.192C152.434 148.133 152.54 148.109 152.644 148.126C152.748 148.142 152.842 148.197 152.907 148.28C153.032 148.45 153.103 148.654 153.111 148.866C153.204 149.605 153.144 150.355 152.937 151.07C153.653 150.902 154.352 150.664 155.019 150.358C155.561 150.147 156.072 149.863 156.538 149.515C157.005 149.16 157.333 148.652 157.464 148.079C157.491 147.973 157.48 147.86 157.433 147.761C157.385 147.693 157.32 147.637 157.246 147.599C156.597 147.177 156.087 146.574 155.779 145.864C155.717 145.714 155.685 145.508 155.822 145.433C155.881 145.415 155.944 145.415 156.003 145.433C156.786 145.564 157.184 146.444 157.83 146.913C157.882 146.955 157.944 146.981 158.011 146.987C158.051 146.987 158.09 146.979 158.126 146.963C158.163 146.946 158.195 146.923 158.222 146.893C158.482 146.651 158.658 146.331 158.726 145.982C158.914 145.296 158.874 144.566 158.614 143.904C158.48 143.576 158.274 143.283 158.011 143.047C157.749 142.81 157.436 142.636 157.096 142.537C156.778 142.463 156.45 142.448 156.126 142.493C156.015 142.493 155.418 142.705 155.338 142.63C155.257 142.555 155.574 142.105 155.649 141.956C156.053 141.032 155.511 139.846 154.759 139.347ZM164.154 133.698C163.665 133.694 163.183 133.809 162.75 134.035C162.316 134.26 161.944 134.587 161.666 134.989C161.29 135.643 161.137 136.401 161.232 137.15C161.328 137.889 161.507 138.616 161.766 139.315C162.005 138.882 162.347 138.515 162.761 138.244C163.175 137.973 163.649 137.807 164.141 137.761C165.154 137.673 163.973 138.654 163.799 138.859C163.23 139.536 162.676 140.225 162.138 140.926C161.98 141.101 161.875 141.317 161.834 141.55C161.832 141.801 161.906 142.047 162.045 142.256C162.466 143.191 163.106 144.011 163.911 144.646C164.133 144.842 164.447 144.892 164.719 144.778C164.845 144.673 164.939 144.534 164.993 144.378C165.29 143.751 165.678 143.17 166.143 142.655C166.255 142.524 166.435 142.393 166.578 142.487C166.721 142.58 166.696 142.724 166.684 142.861L166.553 144.253C166.466 144.755 166.496 145.27 166.641 145.757C166.97 146.644 167.965 147.087 168.891 147.262C169.144 147.331 169.409 147.331 169.662 147.262C170.159 147.087 170.365 146.494 170.452 145.97C170.549 145.284 170.831 144.637 171.266 144.097C171.379 145.004 171.669 145.88 172.118 146.676C172.342 147.103 172.654 147.479 173.032 147.78C173.433 148.066 173.895 148.259 174.381 148.342C175.201 148.49 176.036 148.536 176.868 148.479C177.443 148.486 178.017 148.412 178.572 148.26C179.132 148.103 179.611 147.739 179.914 147.243C180.405 146.357 180.026 145.214 179.392 144.428C178.757 143.641 177.9 143.054 177.241 142.287C178.064 142.514 178.829 142.914 179.485 143.46C179.562 143.549 179.658 143.621 179.765 143.671C179.872 143.72 179.989 143.746 180.107 143.747C180.216 143.724 180.316 143.667 180.393 143.585C181.375 142.599 180.244 140.932 179.721 140.046C179.444 139.416 178.95 138.907 178.329 138.611C177.961 138.517 177.577 138.517 177.209 138.611C176.65 138.704 173.877 139.971 175.059 138.304C175.376 137.935 175.772 137.642 176.217 137.447C176.663 137.251 177.147 137.158 177.633 137.174C178.111 137.218 178.838 137.605 178.826 136.706C178.792 136.384 178.667 136.079 178.466 135.827C178.081 135.249 177.666 134.692 177.222 134.159C177.111 133.996 176.946 133.879 176.756 133.829C176.591 133.823 176.427 133.869 176.29 133.961C175.156 134.65 173.903 135.119 172.596 135.345C172.298 135.345 171.881 135.252 171.931 134.959C171.961 134.852 172.03 134.761 172.124 134.703C172.913 134.079 174.095 134.347 174.903 133.772C175.147 133.617 175.308 133.361 175.344 133.073C175.344 132.655 175.002 132.325 174.667 132.068C173.829 131.337 172.8 130.859 171.701 130.689C170.066 130.557 168.593 131.638 167.493 132.868C167.126 133.286 166.87 134.372 166.304 134.303C165.947 134.176 165.599 134.028 165.26 133.86C164.902 133.748 164.528 133.693 164.153 133.698H164.154ZM156.233 125.058C156.163 124.427 155.875 123.84 155.418 123.398C154.585 122.636 153.335 122.599 152.222 122.774C151.388 122.953 150.569 123.197 149.773 123.503C148.971 123.735 148.735 123.916 149.45 124.572C149.953 125.027 151.315 126.657 150.693 127.437C150.072 128.217 149.027 126.226 148.623 125.895C148.096 125.378 147.395 125.077 146.658 125.051C146.012 125.163 145.419 125.478 144.967 125.951C144.482 126.382 144.021 126.838 143.587 127.318C143.516 127.387 143.461 127.47 143.425 127.561C143.325 127.923 143.817 128.136 144.184 128.185C145.234 128.379 146.409 128.928 146.621 129.977C145.538 130.245 144.519 129.147 143.412 129.266C143.01 129.363 142.638 129.558 142.329 129.834C142.02 130.109 141.783 130.457 141.64 130.845C141.342 131.547 141.249 132.32 141.373 133.073C142.307 132.748 143.308 132.662 144.283 132.824C144.405 132.831 144.519 132.882 144.606 132.967C144.651 133.051 144.661 133.149 144.634 133.24C144.608 133.331 144.546 133.408 144.463 133.455C144.294 133.539 144.103 133.571 143.916 133.548H142.113C141.937 133.529 141.759 133.571 141.61 133.666C141.488 133.793 141.417 133.959 141.41 134.135C141.294 134.962 141.284 135.801 141.379 136.631C141.394 137.147 141.595 137.639 141.945 138.018C142.226 138.23 142.555 138.372 142.903 138.429C143.813 138.648 144.745 138.766 145.682 138.778C145.476 138.49 145.344 138.155 145.295 137.805C145.247 137.454 145.283 137.096 145.402 136.762C145.775 135.889 146.409 136.394 146.441 137.187C146.441 137.562 146.372 137.93 146.36 138.304C146.353 138.375 146.366 138.446 146.397 138.511C146.435 138.559 146.484 138.598 146.54 138.623C147.034 138.891 147.61 138.966 148.156 138.835C148.312 138.804 148.459 138.738 148.585 138.641C148.875 138.295 148.972 137.827 148.846 137.393L148.591 135.14C148.577 135.087 148.576 135.032 148.587 134.979C148.598 134.926 148.62 134.877 148.654 134.834C148.765 134.721 148.965 134.834 149.082 134.922C149.546 135.335 149.794 135.941 149.754 136.563C149.754 136.919 149.605 137.262 149.58 137.612C149.554 137.788 149.575 137.967 149.641 138.133C149.706 138.298 149.814 138.444 149.953 138.554C150.101 138.626 150.262 138.667 150.427 138.675C150.591 138.684 150.756 138.659 150.911 138.604C151.327 138.543 151.71 138.343 151.998 138.036C152.246 137.643 152.321 137.163 152.204 136.713C152.08 136.269 151.993 135.816 151.943 135.358C151.943 134.434 152.887 133.111 153.043 134.735C153.049 135.263 153.018 135.794 152.95 136.319C152.934 136.387 152.934 136.457 152.95 136.525C152.991 136.58 153.044 136.624 153.106 136.653C153.168 136.683 153.236 136.697 153.305 136.694C154.036 136.758 154.77 136.615 155.424 136.282C155.875 136.062 156.271 135.741 156.581 135.345C156.811 135.02 157.004 134.67 157.159 134.303C157.912 132.699 159.111 131.445 157.712 129.728C157.233 129.141 156.344 128.985 155.897 128.385C155.368 127.674 156.183 126.544 156.213 125.651C156.235 125.455 156.242 125.256 156.233 125.058Z" fill="#231F20"/>
<path d="M151.75 155.708H167.604L166.36 167.656C166.273 168.531 165.863 169.343 165.21 169.934C164.557 170.524 163.709 170.851 162.829 170.851H156.494C155.615 170.849 154.767 170.522 154.116 169.931C153.465 169.341 153.056 168.53 152.968 167.655L151.75 155.707V155.708Z" fill="white"/>
<path d="M162.854 171.181H156.494C155.534 171.181 154.608 170.824 153.897 170.179C153.185 169.534 152.74 168.648 152.646 167.693L151.402 155.745C151.396 155.657 151.425 155.569 151.483 155.501C151.513 155.468 151.551 155.441 151.593 155.423C151.634 155.404 151.679 155.395 151.725 155.396H167.579C167.624 155.395 167.668 155.404 167.709 155.422C167.75 155.44 167.787 155.467 167.816 155.501C167.847 155.533 167.87 155.572 167.884 155.614C167.898 155.656 167.902 155.701 167.896 155.745L166.653 167.693C166.561 168.64 166.123 169.521 165.422 170.165C164.721 170.809 163.806 171.17 162.854 171.181ZM152.105 156.038L153.285 167.63C153.364 168.427 153.736 169.166 154.329 169.703C154.922 170.241 155.693 170.539 156.494 170.539H162.854C163.654 170.538 164.426 170.24 165.019 169.703C165.611 169.165 165.983 168.427 166.062 167.63L167.249 156.038H152.104H152.105Z" fill="#231F20"/>
<path d="M161.878 155.926C161.878 155.814 160.634 144.378 166.23 135.164L166.765 135.489C161.287 144.515 162.505 155.739 162.519 155.851L161.877 155.926H161.878Z" fill="#231F20"/>
<path d="M147.478 134.235C147.399 134.233 147.324 134.201 147.267 134.147C147.238 134.118 147.215 134.083 147.199 134.045C147.184 134.007 147.176 133.967 147.176 133.925C147.176 133.884 147.184 133.844 147.199 133.806C147.215 133.768 147.238 133.733 147.267 133.704C150.513 130.271 155.623 128.18 155.841 128.086C155.916 128.062 155.998 128.068 156.069 128.102C156.14 128.136 156.196 128.195 156.226 128.269C156.255 128.342 156.255 128.424 156.226 128.498C156.198 128.571 156.142 128.631 156.071 128.666C156.021 128.666 150.867 130.789 147.715 134.128C147.685 134.162 147.649 134.189 147.608 134.207C147.567 134.225 147.523 134.235 147.478 134.235ZM149.668 150.14C149.614 150.139 149.562 150.125 149.515 150.099C149.468 150.073 149.43 150.035 149.402 149.989C149.374 149.943 149.359 149.891 149.358 149.837C149.356 149.784 149.368 149.731 149.393 149.684C150.572 147.461 152.067 145.421 153.833 143.629C153.861 143.6 153.895 143.577 153.932 143.561C153.969 143.545 154.01 143.537 154.05 143.537C154.091 143.537 154.131 143.545 154.168 143.561C154.205 143.577 154.239 143.6 154.267 143.629C154.325 143.687 154.357 143.766 154.357 143.848C154.357 143.929 154.325 144.008 154.267 144.066C152.554 145.815 151.101 147.802 149.954 149.965C149.927 150.018 149.886 150.062 149.836 150.093C149.785 150.124 149.727 150.14 149.668 150.14ZM176.102 145.72C176.051 145.719 176.001 145.706 175.955 145.683C175.91 145.659 175.871 145.625 175.842 145.583C175.692 145.352 172.111 139.964 167.864 136.782C167.798 136.732 167.755 136.658 167.743 136.576C167.732 136.493 167.753 136.41 167.803 136.344C167.853 136.279 167.927 136.237 168.008 136.226C168.089 136.214 168.172 136.234 168.238 136.283C172.479 139.496 175.972 144.659 176.358 145.233C176.403 145.302 176.419 145.386 176.402 145.466C176.386 145.547 176.339 145.618 176.27 145.663C176.222 145.699 176.163 145.719 176.103 145.72H176.102ZM136.71 37.2935H174.455V63.898H136.71V37.2935Z" fill="white"/>
<path d="M174.449 64.2099H136.71C136.628 64.2096 136.548 64.1767 136.49 64.1182C136.432 64.0598 136.399 63.9806 136.399 63.898V37.2935C136.399 37.1213 136.539 36.9817 136.71 36.9817H174.449C174.621 36.9817 174.76 37.1213 174.76 37.2935V63.898C174.76 63.9806 174.727 64.0598 174.669 64.1182C174.611 64.1767 174.532 64.2096 174.449 64.2099ZM137.021 63.5861H174.139V37.6045H137.021V63.5844V63.5861Z" fill="#D1D3D4"/>
<path d="M161.07 89.153C160.996 89.1527 160.924 89.1264 160.867 89.0785C160.81 89.0307 160.772 88.9644 160.759 88.8912L159.229 78.9287L156.556 80.1147C156.518 80.1313 156.478 80.1402 156.437 80.1409C156.396 80.1417 156.355 80.1343 156.317 80.1192C156.279 80.1041 156.244 80.0815 156.215 80.0529C156.185 80.0242 156.162 79.99 156.146 79.9522C156.13 79.915 156.121 79.875 156.121 79.8345C156.12 79.794 156.127 79.7537 156.142 79.7161C156.157 79.6785 156.18 79.6442 156.208 79.6152C156.236 79.5862 156.27 79.5631 156.307 79.5472L159.359 78.2233C159.402 78.2018 159.449 78.1906 159.496 78.1906C159.544 78.1906 159.591 78.2018 159.634 78.2233C159.676 78.2461 159.712 78.2782 159.74 78.3172C159.768 78.3561 159.787 78.4009 159.795 78.4482L161.387 88.7797C161.394 88.8202 161.392 88.8617 161.383 88.9017C161.373 88.9417 161.356 88.9793 161.331 89.0124C161.307 89.0455 161.276 89.0734 161.241 89.0944C161.205 89.1154 161.166 89.129 161.125 89.1346L161.07 89.153Z" fill="#231F20"/>
<path d="M166.342 99.8465H158.558L158.135 83.0235H166.765L166.342 99.8465Z" fill="white"/>
<path d="M166.342 100.152H158.558C158.478 100.152 158.4 100.121 158.342 100.065C158.285 100.009 158.25 99.933 158.247 99.8526L157.799 83.0358C157.797 82.9516 157.829 82.87 157.888 82.8091C157.946 82.7482 158.026 82.7129 158.11 82.7108H166.74C166.912 82.7213 167.047 82.8628 167.051 83.0358L166.627 99.8904C166.617 99.9599 166.582 100.024 166.53 100.071C166.479 100.119 166.412 100.147 166.342 100.152ZM158.881 99.5284H166.056L166.46 83.3293H158.452L158.881 99.5284Z" fill="#231F20"/>
<path d="M157.346 81.3192H167.554V83.0235H157.346V81.3192Z" fill="white"/>
<path d="M167.554 83.3354H157.346C157.263 83.3352 157.184 83.3022 157.126 83.2438C157.068 83.1853 157.035 83.1061 157.035 83.0235V81.3192C157.035 81.147 157.174 81.0073 157.346 81.0073H167.554C167.726 81.0073 167.865 81.1479 167.865 81.3192V83.0235C167.865 83.1061 167.833 83.1853 167.774 83.2438C167.716 83.3022 167.637 83.3352 167.554 83.3354ZM157.656 82.7117H167.243V81.6311H157.656V82.7117Z" fill="#231F20"/>
<path d="M162.617 94.1659C161.868 94.2293 161.117 94.0648 160.464 93.694C159.81 93.3232 159.284 92.7635 158.954 92.0882C158.622 91.4119 158.501 90.6515 158.608 89.9058C158.714 89.1601 159.041 88.4635 159.548 87.9064C160.054 87.3505 160.716 86.9607 161.447 86.7882C162.178 86.6157 162.944 86.6687 163.645 86.94C164.346 87.2132 164.949 87.6914 165.375 88.3123C165.8 88.9332 166.029 89.668 166.031 90.4207C166.073 91.3695 165.738 92.2964 165.098 92.9983C164.458 93.7003 163.566 94.1201 162.618 94.1659H162.617ZM162.617 87.331C161.992 87.2672 161.362 87.3946 160.811 87.6962C160.26 87.9978 159.813 88.4595 159.53 89.0204C159.245 89.5822 159.137 90.2169 159.218 90.8415C159.3 91.4661 159.568 92.0515 159.988 92.5213C160.406 92.9898 160.957 93.3203 161.567 93.4688C162.177 93.6174 162.818 93.5771 163.405 93.3533C163.993 93.1281 164.499 92.7305 164.856 92.2126C165.214 91.6947 165.407 91.0808 165.409 90.4515C165.451 89.668 165.181 88.8998 164.658 88.3149C164.135 87.7301 163.401 87.3763 162.618 87.331H162.617ZM147.789 58.6295C147.027 58.6247 146.271 58.4941 145.552 58.2429C144.61 57.9457 143.7 57.5567 142.834 57.0815C142.623 56.9629 142.418 56.825 142.212 56.6879C141.693 56.3499 141.247 55.9092 140.904 55.3928C140.561 54.8764 140.327 54.2952 140.217 53.6851C140.137 53.2369 140.211 52.7746 140.428 52.3743C140.773 51.8999 141.249 51.538 141.796 51.3324C142.16 51.1811 142.496 50.9703 142.79 50.7086C143.412 50.0401 143.17 49.0658 142.922 48.0362C142.853 47.7744 142.79 47.5178 142.741 47.2683C142.584 46.4709 142.609 45.6484 142.814 44.8619C143.018 44.0753 143.397 43.3448 143.922 42.7246C144.495 42.0808 145.213 41.5817 146.016 41.2681C146.819 40.9545 147.684 40.8353 148.542 40.9201C150.954 41.1951 152.857 42.3618 153.764 44.1162C154.161 44.9359 154.346 45.8421 154.301 46.7518C154.257 47.6614 153.984 48.5453 153.509 49.3223C153.173 49.7985 152.983 50.3624 152.962 50.945C153.088 51.4598 153.358 51.9272 153.739 52.2935C154.182 52.7451 154.495 53.3073 154.647 53.9223C154.796 54.9467 154.125 55.9262 152.596 56.9181C151.198 57.9511 149.525 58.5467 147.789 58.6295ZM143.145 56.5315C143.975 56.9901 144.847 57.3644 145.75 57.649C148.374 58.5478 150.432 57.5682 152.266 56.4015C153.572 55.5458 154.131 54.7718 154.038 54.0163C153.899 53.5162 153.634 53.0604 153.267 52.6932C152.806 52.2336 152.489 51.65 152.353 51.0135C152.345 50.3193 152.551 49.6394 152.944 49.0667C153.378 48.3751 153.63 47.5852 153.678 46.7701C153.726 45.955 153.567 45.141 153.217 44.4035C152.409 42.8362 150.68 41.7942 148.48 41.5386C147.721 41.4628 146.955 41.5682 146.245 41.846C145.535 42.1238 144.901 42.5661 144.395 43.1366C143.932 43.6852 143.599 44.3306 143.419 45.0252C143.24 45.7197 143.218 46.4457 143.356 47.1497C143.406 47.3869 143.469 47.6364 143.531 47.8868C143.798 48.9788 144.102 50.2211 143.251 51.1321C142.908 51.4572 142.51 51.7207 142.076 51.9061C141.639 52.0658 141.256 52.3449 140.969 52.7117C140.824 52.992 140.778 53.313 140.838 53.6227C140.942 54.1469 141.15 54.6448 141.45 55.0868C141.75 55.5288 142.137 55.9057 142.586 56.1951C142.766 56.3268 142.953 56.4498 143.145 56.5632V56.5315Z" fill="#D1D3D4"/>
<path d="M164.719 58.4485C163.123 58.4267 161.546 58.098 160.075 57.4804L159.764 57.3556C159.116 56.9835 158.376 56.8015 157.63 56.8302C156.883 56.859 156.16 57.0974 155.542 57.5181C154.862 57.8704 154.133 58.1166 153.378 58.2482C152.535 58.322 151.686 58.1837 150.91 57.8458C150.134 57.5079 149.454 56.9812 148.933 56.3137C148.031 55.3015 147.44 54.051 147.23 52.7117C147.103 51.9063 147.237 51.0815 147.612 50.3573C147.986 49.6332 148.582 49.0475 149.313 48.6854C150.755 48.0617 152.291 48.4921 153.783 48.9165C154.853 49.3004 155.986 49.4743 157.121 49.4286C157.992 49.2824 158.833 48.9914 159.609 48.5677C160.117 48.3129 160.64 48.0898 161.175 47.8991C163.662 47.0689 168.468 47.8991 170.359 49.9839C170.869 50.521 171.231 51.1809 171.411 51.8995C171.59 52.6181 171.581 53.3709 171.384 54.0848C171.103 55.0174 170.599 55.8674 169.915 56.5613C169.232 57.2552 168.389 57.7721 167.461 58.0672C166.573 58.3383 165.648 58.467 164.719 58.4485ZM157.837 56.2012H157.986C158.688 56.2706 159.372 56.4627 160.007 56.7687L160.306 56.8944C162.477 57.8794 164.926 58.0716 167.225 57.4373C168.054 57.1761 168.807 56.7176 169.42 56.1011C170.033 55.4845 170.487 54.7284 170.743 53.8977C170.911 53.2831 170.917 52.6356 170.761 52.0179C170.605 51.4002 170.293 50.8331 169.854 50.3713C168.151 48.4983 163.606 47.6927 161.331 48.4605C160.819 48.638 160.319 48.8471 159.832 49.0843C159.006 49.544 158.108 49.8629 157.177 50.0278C155.96 50.0822 154.744 49.8999 153.596 49.491C152.154 49.0781 150.786 48.6854 149.549 49.2345C148.947 49.548 148.46 50.0428 148.155 50.649C147.85 51.2551 147.744 51.9417 147.852 52.6116C148.052 53.8371 148.6 54.9792 149.431 55.9016C150.09 56.644 151.469 57.8678 153.335 57.6306C154.024 57.503 154.691 57.2736 155.312 56.9497C156.09 56.521 156.951 56.2657 157.837 56.2012Z" fill="#D1D3D4"/>
<path d="M163.836 53.7729C163.422 53.7991 163.006 53.7287 162.624 53.5673C162.241 53.4059 161.9 53.1578 161.63 52.8426C161.327 52.5387 160.978 52.2838 160.597 52.0871C160.141 51.8709 159.65 51.7379 159.148 51.6944C158.7 51.6814 158.26 51.5746 157.857 51.3809C157.453 51.1872 157.095 50.9109 156.805 50.5698C156.481 50.1473 156.251 49.66 156.132 49.141C156.013 48.6219 156.007 48.0833 156.114 47.5618C156.245 46.8785 156.518 46.2301 156.914 45.6583C157.31 45.0864 157.821 44.6036 158.415 44.2409C161.692 42.3064 167.771 44.3226 169.755 47.1814C170.458 48.1917 171.26 50.1965 168.761 52.2241C167.448 53.2022 165.864 53.7478 164.227 53.7852L163.836 53.7729ZM161.598 44.0722C160.6 44.0397 159.611 44.2725 158.732 44.747C158.216 45.0644 157.771 45.4858 157.426 45.9845C157.081 46.4832 156.844 47.0481 156.729 47.6435C156.636 48.0758 156.639 48.5232 156.736 48.9545C156.834 49.3857 157.025 49.7904 157.296 50.1402C157.537 50.4186 157.835 50.6427 158.169 50.7976C158.504 50.9525 158.867 51.0348 159.236 51.039C160.315 51.1065 161.327 51.5899 162.058 52.3875C162.314 52.6912 162.647 52.9203 163.023 53.0509C163.398 53.1815 163.801 53.2088 164.19 53.1299C165.694 53.0862 167.149 52.5925 168.369 51.7128C169.954 50.4214 170.234 48.9665 169.246 47.5117C167.915 45.5895 164.495 44.0722 161.598 44.0722Z" fill="#D1D3D4"/>
<path d="M68.9545 51.5011C68.9545 51.5011 70.9628 49.8653 68.9545 47.755H65.7154C65.7154 47.755 66.4112 50.4829 65.7154 51.5011H68.9545Z" fill="#231F20"/>
<path d="M68.9545 51.813H65.7154C65.6579 51.8123 65.6016 51.7963 65.5524 51.7667C65.5031 51.737 65.4626 51.6948 65.4351 51.6443C65.4061 51.5951 65.3908 51.5389 65.3908 51.4818C65.3908 51.4246 65.4061 51.3685 65.4351 51.3192C65.9394 50.5901 65.5722 48.5607 65.3859 47.8429C65.3761 47.7957 65.3759 47.747 65.3854 47.6997C65.395 47.6525 65.414 47.6076 65.4413 47.5679C65.4712 47.5306 65.5092 47.5005 65.5524 47.4799C65.5956 47.4594 65.6429 47.4489 65.6908 47.4493H68.9299C69.0133 47.4523 69.0927 47.4857 69.1531 47.5433C69.4671 47.8307 69.717 48.1812 69.8864 48.5717C70.0558 48.9623 70.1409 49.3842 70.1361 49.8099C70.0578 50.5592 69.6976 51.2508 69.1285 51.7444C69.0787 51.7843 69.0181 51.8082 68.9545 51.813ZM66.2003 51.1892H68.8298C69.2198 50.8114 69.4623 50.3063 69.5141 49.766C69.5156 49.4503 69.453 49.1375 69.3301 48.8466C69.2072 48.5558 69.0265 48.2929 68.799 48.074H66.0879C66.3501 49.0917 66.3884 50.1552 66.2003 51.1892Z" fill="#231F20"/>
<path d="M67.1948 50.265C67.242 49.9012 67.2029 49.5314 67.0808 49.1854C66.9588 48.8394 66.757 48.527 66.492 48.2734C66.2546 47.9633 65.9812 47.6825 65.6776 47.437C65.0952 47.0566 64.442 46.7975 63.7571 46.6753C62.2461 46.3072 60.4802 46.7755 58.9384 46.8071C57.2817 46.8384 55.6359 46.5323 54.1012 45.9075C53.5733 45.7284 53.1002 45.4169 52.7272 45.0026C52.3416 47.2692 52.3916 49.7651 53.691 51.6689C54.7902 53.1048 56.3125 54.1594 58.0432 54.684C59.1925 55.1494 60.4449 55.3005 61.6719 55.1217C62.8989 54.9429 64.0562 54.4407 65.0249 53.6667C65.912 52.9935 66.5961 52.0885 67.0015 51.0513C67.092 50.7965 67.157 50.5329 67.1948 50.265Z" fill="white"/>
<path d="M60.735 55.4958C59.7714 55.486 58.8165 55.3107 57.9123 54.9774C56.1241 54.4341 54.5518 53.3425 53.4177 51.8569C52.2546 50.1525 51.919 47.8367 52.4101 44.9903C52.421 44.9312 52.4484 44.8764 52.4891 44.8323C52.5298 44.7881 52.5822 44.7564 52.6403 44.7408C52.6982 44.7262 52.7592 44.7289 52.8157 44.7488C52.8721 44.7686 52.9214 44.8047 52.9574 44.8524C53.2991 45.2222 53.7261 45.5007 54.2005 45.6641C55.7133 46.2457 57.3254 46.5198 58.9446 46.4698C59.4541 46.4698 59.983 46.4012 60.5426 46.338C61.6349 46.1474 62.7519 46.1474 63.8441 46.338C64.5714 46.468 65.2648 46.7441 65.8823 47.1497C66.2003 47.4151 66.4902 47.712 66.7477 48.0371C67.3424 48.6186 67.6262 49.4515 67.512 50.2773C67.4654 50.5672 67.389 50.8519 67.2818 51.126C66.8538 52.2159 66.1359 53.168 65.2058 53.8793C63.9443 54.9135 62.3663 55.484 60.735 55.4958ZM52.9328 45.6387C52.6095 48.0739 52.9328 50.0085 53.9343 51.4879C54.9904 52.8725 56.4567 53.8883 58.124 54.3906C59.2251 54.8349 60.4244 54.9795 61.5995 54.8096C62.7747 54.6397 63.8839 54.1614 64.814 53.4233C65.6524 52.7774 66.2976 51.9138 66.6791 50.9265C66.7708 50.6925 66.8393 50.45 66.8838 50.2026C66.9239 49.883 66.8886 49.5584 66.7807 49.2548C66.6729 48.9512 66.4955 48.6771 66.2627 48.4544C66.0321 48.1826 65.7736 47.9358 65.4914 47.7181C64.9405 47.3661 64.3254 47.1263 63.6816 47.0127C62.6531 46.8351 61.6018 46.8351 60.5734 47.0127C60.026 47.0689 59.4541 47.1313 58.92 47.1445C57.2174 47.1717 55.5264 46.8596 53.9457 46.2264C53.5855 46.0718 53.2456 45.875 52.9328 45.6395V45.6387Z" fill="#231F20"/>
<path d="M105.574 33.9911H131.973V51.4941H105.574V33.9911Z" fill="white"/>
<path d="M131.973 51.813H105.574C105.492 51.8127 105.413 51.7798 105.354 51.7213C105.296 51.6628 105.263 51.5836 105.263 51.5011V33.985C105.263 33.8128 105.403 33.6731 105.574 33.6731H131.973C132.143 33.6766 132.281 33.8137 132.283 33.985V51.5011C132.282 51.583 132.249 51.6612 132.191 51.7193C132.133 51.7774 132.055 51.8109 131.973 51.813ZM105.861 51.1892H131.687V34.303H105.884L105.861 51.1892Z" fill="#D1D3D4"/>
<path d="M105.574 51.5011H131.973V54.9651H105.574V51.5011Z" fill="white"/>
<path d="M131.973 55.277H105.574C105.492 55.2768 105.413 55.2438 105.354 55.1853C105.296 55.1269 105.263 55.0477 105.263 54.9651V51.5011C105.263 51.328 105.403 51.1883 105.574 51.1883H131.973C132.144 51.1883 132.283 51.3289 132.283 51.5011V54.9651C132.283 55.0475 132.251 55.1266 132.192 55.185C132.134 55.2435 132.055 55.2765 131.973 55.277ZM105.861 54.6532H131.687V51.813H105.884L105.861 54.6532ZM108.596 47.4247C108.537 47.4262 108.479 47.4105 108.428 47.3796C108.377 47.3486 108.337 47.3037 108.311 47.2502C108.286 47.1967 108.276 47.137 108.284 47.0781C108.291 47.0193 108.316 46.9639 108.354 46.9187C108.653 46.5444 115.814 37.724 122.491 38.2546C125.153 38.4672 126.968 39.865 127.353 41.9998C127.528 42.9127 127.396 43.8577 126.979 44.6884C126.562 45.5191 125.883 46.1891 125.047 46.5945C123.182 47.4616 121.454 47.4493 120.247 46.5567C119.724 46.1362 119.327 45.5788 119.101 44.9464C118.875 44.314 118.828 43.6313 118.966 42.9741C118.991 42.4072 119.191 41.8619 119.54 41.4143C119.889 40.9667 120.369 40.6392 120.912 40.4773C121.475 40.3286 122.068 40.3341 122.628 40.4933C123.188 40.6525 123.695 40.9596 124.095 41.3822C124.473 41.8004 124.555 42.4083 124.301 42.9108C123.828 43.8289 123.269 44.3095 122.634 44.334C121.621 44.334 120.875 43.1797 120.844 43.1305C120.812 43.0778 120.796 43.0167 120.798 42.955C120.801 42.8933 120.821 42.8337 120.858 42.7837C120.894 42.7337 120.944 42.6956 121.002 42.6741C121.06 42.6527 121.123 42.6488 121.183 42.6631C121.262 42.6833 121.331 42.7342 121.372 42.8054C121.534 43.0611 122.05 43.7419 122.616 43.7103C123.182 43.6795 123.499 43.0865 123.747 42.6244C123.816 42.4864 123.84 42.3303 123.815 42.1781C123.791 42.0259 123.719 41.8852 123.61 41.7758C123.288 41.4461 122.884 41.2077 122.44 41.0849C121.995 40.9621 121.526 40.9592 121.08 41.0765C120.655 41.2088 120.282 41.4706 120.014 41.8254C119.745 42.1801 119.594 42.61 119.581 43.0549C119.462 43.6001 119.495 44.1677 119.677 44.6953C119.859 45.223 120.183 45.6901 120.614 46.0454C121.628 46.801 123.15 46.7939 124.786 46.0454C125.499 45.6943 126.075 45.1164 126.424 44.4025C126.772 43.6885 126.874 42.879 126.713 42.1008C126.383 40.2709 124.78 39.0664 122.417 38.8793C116.094 38.3548 108.906 47.2183 108.838 47.3123C108.808 47.3476 108.771 47.3759 108.729 47.3954C108.687 47.4148 108.643 47.4248 108.596 47.4247ZM118.904 67.7741H108.733C108.65 67.7738 108.571 67.7409 108.513 67.6824C108.454 67.6239 108.422 67.5447 108.422 67.4622V59.3472C108.422 59.175 108.561 59.0353 108.733 59.0353H118.904C119.075 59.0353 119.215 59.175 119.215 59.3472V67.4622C119.215 67.5447 119.182 67.6239 119.124 67.6824C119.066 67.7409 118.987 67.7738 118.904 67.7741ZM109.043 67.1503H118.593V59.6591H109.044V67.1494L109.043 67.1503Z" fill="#D1D3D4"/>
<path d="M113.818 60.8267C113.736 60.8264 113.657 60.7935 113.598 60.735C113.54 60.6765 113.507 60.5973 113.507 60.5148V58.5732C113.504 58.5304 113.51 58.4874 113.524 58.4469C113.538 58.4064 113.56 58.3692 113.59 58.3377C113.619 58.3063 113.654 58.2812 113.694 58.264C113.733 58.2468 113.775 58.238 113.818 58.238C113.861 58.238 113.904 58.2468 113.943 58.264C113.982 58.2812 114.018 58.3063 114.047 58.3377C114.076 58.3692 114.099 58.4064 114.113 58.4469C114.127 58.4874 114.133 58.5304 114.129 58.5732V60.5016C114.131 60.5435 114.124 60.5854 114.109 60.6247C114.094 60.6639 114.072 60.6998 114.043 60.7301C114.014 60.7604 113.979 60.7846 113.94 60.8012C113.902 60.8178 113.86 60.8264 113.818 60.8267Z" fill="#D1D3D4"/>
<defs>
<linearGradient id="paint0_linear_401_307" x1="16.6613" y1="101" x2="185.339" y2="101" gradientUnits="userSpaceOnUse">
<stop stop-color="#F2EAEA"/>
<stop offset="0.71875" stop-color="#D9D9D9" stop-opacity="0"/>
</linearGradient>
</defs>
</svg>
